<svg xmlns="http://www.w3.org/2000/svg" fill="none" viewBox="0 0 606 305">
  <path stroke="#193861" stroke-width="20" d="M.5 59c79 0 71.92 37.627 102.897 93.549 30.976 55.921 107.64 150.703 181.002 28.367 4.009-6.685 8.104-12.799 12.271-18.376M.5 59c72 0 94.197 75.9 116.117 135.91 64.802 177.409 158.548 85.566 180.053-32.37M.5 59c110 0 112.371 97.525 163.761 122.419 65.935 31.94 134.078-12.351 158.768-67.72 27.177-60.949 103.999-77.387 161.409 26.316C529.96 222.243 581 224.5 605.5 224.5m0 0c-45 0-72.338-8.191-106.884-50.698C464.2 131.455 369.546 64.985 296.67 162.54M605.5 224.5c-70.5 0-79.362-20.962-132.372-139.452-45.202-101.036-100.441-80.91-127.193-45.35-36.785 48.897-44.392 96.116-49.265 122.842"/>
</svg>
