<svg xmlns="http://www.w3.org/2000/svg" fill="none" width="573" height="374" preserveAspectRatio="none">
  <path stroke="#4F96D9" stroke-width="15" d="M0 238.257c64.5 0 75.5 8 125.5 42.5s154.5 81.5 160.5-61c.328-7.787.979-15.113 1.924-22M0 238.257c82.5 0 110.6 31.1 155 73.5 131.259 125.347 167.38 0 132.924-114M0 238.257c104.5 0 135 41.5 188 39 68-3.207 104.169-74.548 99.924-135-4.673-66.543 50.882-117.494 143.576-53.5 73.5 50.743 111 46.5 141 46.5m0 0c-45.5 0-67.5-2.5-114.5-23.5-46.823-20.921-153.539-34.461-170.076 86m284.576-62.5c-83 0-78.878-10.403-174.5-89.5-81.537-67.446-117.818-23.5-124 20.5-8.5 60.5 6.116 105.667 13.924 131.5"/>
</svg>
