<svg xmlns="http://www.w3.org/2000/svg" fill="none" viewBox="0 0 435 132">
  <path fill="#fff" d="M1 1h434v130H1z"/>
  <path fill="#000" d="M182.373 28.952c2.19 0 4.197.366 6.023 1.096 1.825.73 3.424 1.694 4.795 2.892l-4.379 4.56c-1.081-.79-2.059-1.36-2.935-1.71-.876-.35-1.869-.526-2.979-.526-2.131 0-3.766.81-4.905 2.432-1.138 1.621-1.707 4.083-1.707 7.384 0 2.484.176 4.435.526 5.852.35 1.417.897 2.418 1.641 3.002.745.584 1.731.876 2.958.876 1.08 0 2.116-.249 3.109-.745V48.5h-3.067l-.831-6.092h12.569v15.294c-1.606 1.11-3.446 1.973-5.519 2.586-2.073.613-4.073.92-6 .92-4.992 0-8.687-1.365-11.081-4.097S167 50.354 167 45.036c0-3.359.657-6.251 1.97-8.676 1.315-2.425 3.14-4.266 5.475-5.523 2.336-1.256 4.978-1.885 7.928-1.885zM211.632 36.184c.758 0 1.546.132 2.364.395l-1.358 8.37c-.789-.233-1.504-.35-2.146-.35-1.285 0-2.241.424-2.869 1.27-.627.848-1.131 2.119-1.51 3.813v10.65h-8.673V36.93h7.578l.7 4.382c.497-1.549 1.285-2.79 2.365-3.726 1.08-.934 2.263-1.401 3.549-1.401zM238.304 48.323c0 .731-.059 1.652-.175 2.76h-14.191c.233 1.58.722 2.64 1.466 3.18.745.54 1.819.81 3.221.81.817 0 1.649-.167 2.496-.504.847-.336 1.781-.855 2.804-1.556l3.504 4.733c-2.833 2.308-6.045 3.462-9.637 3.462-4.146 0-7.285-1.146-9.417-3.439-2.132-2.294-3.197-5.325-3.197-9.094 0-2.337.445-4.463 1.336-6.377.89-1.914 2.211-3.433 3.964-4.558 1.752-1.125 3.869-1.688 6.35-1.688 2.306 0 4.321.483 6.044 1.448 1.723.964 3.059 2.366 4.008 4.207.949 1.84 1.424 4.046 1.424 6.616zm-8.542-2.453c-.028-1.374-.24-2.44-.635-3.198-.394-.76-1.102-1.14-2.124-1.14-.964 0-1.687.336-2.169 1.009-.481.671-.794 1.883-.941 3.635h5.869v-.306zM256.831 36.052c1.956 0 3.497.613 4.62 1.84 1.124 1.228 1.686 2.952 1.686 5.172v17.268h-8.673V44.643c0-.876-.109-1.475-.329-1.796-.218-.322-.546-.484-.983-.484-.964 0-1.942.774-2.935 2.322v15.647h-8.672V36.93h7.578l.611 2.409c1.08-1.139 2.183-1.971 3.306-2.498 1.125-.526 2.389-.79 3.791-.79zM285.561 36.93v6.003l-9.59 11h9.898l-.744 6.4h-19.272v-6.049l9.723-11.044h-8.847v-6.31h18.832zM311.053 48.323c0 .731-.059 1.652-.175 2.76h-14.192c.234 1.58.722 2.64 1.467 3.18.745.54 1.818.81 3.221.81.817 0 1.649-.167 2.496-.504.846-.336 1.78-.855 2.803-1.556l3.504 4.733c-2.832 2.308-6.045 3.462-9.636 3.462-4.147 0-7.286-1.146-9.418-3.439-2.131-2.294-3.196-5.325-3.196-9.094 0-2.337.445-4.463 1.335-6.377.89-1.914 2.212-3.433 3.964-4.558 1.752-1.125 3.869-1.688 6.351-1.688 2.306 0 4.32.483 6.044 1.448 1.722.964 3.058 2.366 4.008 4.207.949 1.84 1.424 4.046 1.424 6.616zm-8.542-2.453c-.028-1.374-.24-2.44-.635-3.198-.394-.76-1.102-1.14-2.124-1.14-.964 0-1.687.336-2.169 1.009-.481.671-.795 1.883-.941 3.635h5.869v-.306zM329.58 36.052c1.956 0 3.496.613 4.62 1.84 1.124 1.228 1.686 2.952 1.686 5.172v17.268h-8.673V44.643c0-.876-.11-1.475-.329-1.796-.219-.322-.546-.484-.983-.484-.964 0-1.942.774-2.935 2.322v15.647h-8.673V36.93h7.578l.612 2.409c1.08-1.139 2.182-1.971 3.306-2.498 1.125-.526 2.388-.79 3.791-.79zM360.106 36.052c1.723 0 3.38.27 4.971.812 1.592.54 2.928 1.278 4.008 2.213l-3.065 4.688a12.176 12.176 0 00-2.717-1.248 9.358 9.358 0 00-2.846-.46c-1.314 0-1.971.35-1.971 1.052 0 .292.087.534.262.724.176.188.592.422 1.249.7.656.278 1.715.635 3.175 1.073 2.336.73 4.066 1.659 5.19 2.784 1.124 1.125 1.687 2.71 1.687 4.754 0 1.578-.475 2.98-1.424 4.207-.949 1.228-2.264 2.178-3.943 2.85-1.678.671-3.583 1.007-5.715 1.007-2.043 0-3.963-.329-5.759-.986-1.796-.657-3.307-1.57-4.534-2.738l4.118-4.56a11.557 11.557 0 002.869 1.69c1.037.423 2.066.635 3.087.635.789 0 1.395-.124 1.818-.372.424-.249.635-.607.635-1.074 0-.41-.095-.723-.284-.942-.19-.22-.577-.439-1.161-.658-.584-.22-1.606-.548-3.067-.986-4.525-1.344-6.787-3.871-6.787-7.583 0-1.43.401-2.717 1.203-3.856.803-1.14 1.971-2.046 3.504-2.717 1.533-.673 3.365-1.01 5.497-1.01zM381.874 36.93v23.402h-8.672V36.93h8.672zM377.539 24c1.401 0 2.561.446 3.481 1.338.92.891 1.38 1.994 1.38 3.308 0 1.315-.46 2.418-1.38 3.308-.92.891-2.08 1.337-3.481 1.337-1.402 0-2.563-.446-3.483-1.337-.92-.89-1.38-1.993-1.38-3.308 0-1.314.46-2.417 1.38-3.308.92-.892 2.081-1.338 3.483-1.338zM401.715 36.052c1.956 0 3.497.613 4.62 1.84 1.124 1.228 1.686 2.952 1.686 5.172v17.268h-8.673V44.643c0-.876-.109-1.475-.329-1.796-.218-.322-.546-.484-.983-.484-.964 0-1.942.774-2.935 2.322v15.647h-8.672V36.93h7.578l.611 2.409c1.08-1.139 2.183-1.971 3.306-2.498 1.125-.526 2.389-.79 3.791-.79zM435 27.726v32.606h-7.709l-.305-2.41c-1.664 2.19-3.869 3.286-6.614 3.286-2.95 0-5.169-1.124-6.658-3.373-1.489-2.25-2.232-5.362-2.232-9.335 0-2.396.408-4.537 1.225-6.422.817-1.884 1.963-3.36 3.437-4.426 1.475-1.067 3.176-1.6 5.103-1.6 2.016 0 3.709.613 5.082 1.84V26.85l8.671.876zm-11.694 27.259c1.227 0 2.234-.687 3.023-2.06v-9.377c-.409-.44-.818-.768-1.227-.986-.408-.22-.86-.33-1.357-.33-1.023 0-1.84.505-2.453 1.512-.614 1.008-.92 2.622-.92 4.843 0 2.571.255 4.28.766 5.127.512.847 1.234 1.271 2.168 1.271zM208.201 92.115c0 .731-.059 1.652-.175 2.76h-14.192c.234 1.58.722 2.64 1.467 3.18.745.54 1.819.81 3.221.81.817 0 1.649-.168 2.496-.504.846-.336 1.78-.855 2.803-1.556l3.504 4.733c-2.832 2.308-6.045 3.462-9.636 3.462-4.147 0-7.286-1.146-9.418-3.439-2.131-2.294-3.196-5.325-3.196-9.094 0-2.338.445-4.463 1.336-6.377.889-1.914 2.211-3.433 3.963-4.558 1.753-1.125 3.869-1.688 6.351-1.688 2.306 0 4.32.482 6.044 1.448 1.722.964 3.058 2.366 4.008 4.207.949 1.84 1.424 4.046 1.424 6.616zm-8.542-2.453c-.028-1.374-.24-2.44-.635-3.199-.394-.76-1.102-1.14-2.124-1.14-.964 0-1.687.337-2.169 1.01-.481.67-.795 1.883-.941 3.635h5.869v-.306zM218.58 105c-2.365 0-4.183-.664-5.453-1.993-1.27-1.329-1.905-3.207-1.905-5.632V71.518l8.673-.876v26.383c0 .788.35 1.182 1.05 1.182.321 0 .628-.058.92-.175l1.534 6.18c-1.373.525-2.979.788-4.819.788zM245.692 96.541c0 .82.102 1.426.306 1.82.204.394.569.694 1.095.9l-1.753 5.564c-1.577-.117-2.861-.416-3.854-.897-.992-.483-1.809-1.265-2.452-2.346-1.519 2.279-3.869 3.418-7.052 3.418-2.307 0-4.168-.694-5.584-2.081-1.416-1.388-2.125-3.177-2.125-5.369 0-2.6.963-4.587 2.891-5.96 1.928-1.373 4.731-2.06 8.411-2.06h1.664v-.57c0-1.169-.234-1.957-.702-2.366-.467-.409-1.358-.614-2.671-.614-.701 0-1.599.11-2.694.33a27.778 27.778 0 00-3.35.897l-1.884-5.523a24.541 24.541 0 014.664-1.357c1.679-.322 3.205-.483 4.578-.483 3.679 0 6.351.708 8.015 2.125 1.665 1.417 2.497 3.587 2.497 6.508v8.064zm-11.037 2.367c.524 0 1.013-.131 1.466-.393.453-.263.826-.6 1.118-1.009v-3.462h-.92c-1.226 0-2.132.22-2.717.659-.584.438-.875 1.109-.875 2.013 0 .674.175 1.207.525 1.6.351.395.819.592 1.403.592zM266.847 102.984c-.906.643-2.009 1.14-3.308 1.49-1.3.351-2.533.526-3.7.526-2.892-.03-5.031-.84-6.418-2.432-1.387-1.591-2.08-3.951-2.08-7.078v-8.896h-2.804v-5.872h2.804v-4.91l8.673-1.007v5.916h5.255l-.876 5.873h-4.379v8.81c0 1.021.16 1.744.481 2.167.322.424.774.636 1.358.636.73 0 1.46-.204 2.19-.612l2.804 5.389zM277.577 80.722v23.402h-8.672V80.722h8.672zm-4.335-12.93c1.401 0 2.561.446 3.481 1.338.92.891 1.38 1.994 1.38 3.308 0 1.315-.46 2.418-1.38 3.308-.92.891-2.08 1.336-3.481 1.336-1.402 0-2.563-.445-3.483-1.336-.92-.89-1.38-1.993-1.38-3.308 0-1.314.46-2.417 1.38-3.308.92-.892 2.081-1.338 3.483-1.338zM303.987 80.722l-6.963 23.402h-10.249l-7.139-23.402h9.415l2.935 17.134 3.242-17.134h8.759zM338.588 92.115c0 .731-.059 1.652-.175 2.76h-14.192c.234 1.58.722 2.64 1.467 3.18.745.54 1.818.81 3.221.81.817 0 1.649-.168 2.495-.504.847-.336 1.781-.855 2.804-1.556l3.504 4.733c-2.832 2.308-6.045 3.462-9.636 3.462-4.147 0-7.286-1.146-9.418-3.439-2.131-2.294-3.196-5.325-3.196-9.094 0-2.338.445-4.463 1.335-6.377.89-1.914 2.212-3.433 3.964-4.558 1.752-1.125 3.869-1.688 6.35-1.688 2.307 0 4.321.482 6.045 1.448 1.722.964 3.058 2.366 4.008 4.207.949 1.84 1.424 4.046 1.424 6.616zm-8.542-2.453c-.028-1.374-.24-2.44-.635-3.199-.394-.76-1.102-1.14-2.124-1.14-.964 0-1.687.337-2.169 1.01-.481.67-.795 1.883-.941 3.635h5.869v-.306zM345.244 95.971c1.255 0 2.322.447 3.198 1.339.876.89 1.314 1.95 1.314 3.177s-.438 2.286-1.314 3.177c-.876.89-1.943 1.336-3.198 1.336s-2.32-.446-3.196-1.336c-.877-.891-1.315-1.95-1.315-3.177s.438-2.286 1.315-3.177c.876-.892 1.941-1.339 3.196-1.339zM377.831 73.62l-7.709 30.504h-11.651l-8.19-30.504h9.504l4.644 24.236 4.16-24.236h9.242zM382.866 95.971c1.256 0 2.322.447 3.199 1.339.876.89 1.314 1.95 1.314 3.177s-.438 2.286-1.314 3.177c-.877.89-1.943 1.336-3.199 1.336-1.254 0-2.32-.446-3.196-1.336-.876-.891-1.314-1.95-1.314-3.177s.438-2.286 1.314-3.177c.876-.892 1.942-1.339 3.196-1.339zM181.423 79.844a7.73 7.73 0 012.365.394l-1.359 8.37c-.789-.233-1.504-.35-2.145-.35-1.286 0-2.242.424-2.869 1.27-.628.848-1.131 2.119-1.511 3.813v10.65h-8.673V80.589h7.578l.701 4.382c.496-1.549 1.284-2.79 2.365-3.726 1.08-.934 2.263-1.401 3.548-1.401z"/>
  <g>
    <mask id="a" width="137" height="132" x="0" y="0" maskUnits="userSpaceOnUse" style="mask-type:alpha">
      <ellipse cx="68.645" cy="66.2" fill="#C4C4C4" rx="67.668" ry="65.214"/>
    </mask>
    <g mask="url(#a)">
      <path fill="url(#paint0_linear_9_9)" d="M136.537 131.951V-5.513H-.927v137.464h137.464z"/>
      <path fill="#4F93DD" d="M128.36 61.3l.445.28c-.064.104-6.667 10.52-19.552 20.26-11.894 8.993-31.713 19.255-58.696 16.997-14.933-1.242-23.648-7.33-32.072-13.214C4.11 75.579-9.472 66.09-52.1 82.127l-.186-.493C-9.404 65.5 4.29 75.063 18.786 85.19c8.37 5.847 17.024 11.894 31.817 13.122 26.774 2.229 46.513-7.957 58.334-16.893 12.807-9.683 19.358-20.013 19.423-20.118z"/>
      <path fill="#4F93DD" d="M128.126 58.448l.449.28c-.177.282-18.04 28.348-50.308 36.325-8.251 2.037-17.038 2.201-27.66.52-12.415-1.967-20.352-7.302-28.032-12.462-3.734-2.51-7.263-4.88-11.273-6.885-11.909-5.957-27.857-9.616-63.604 3.832l-.185-.493c35.934-13.516 52.013-9.82 64.023-3.811 4.04 2.02 7.584 4.4 11.332 6.92 7.632 5.129 15.52 10.43 27.82 12.379 10.55 1.67 19.269 1.51 27.45-.512 32.06-7.924 49.813-35.81 49.988-36.093z"/>
      <path fill="#4F93DD" d="M127.896 55.595l.449.28c-.187.3-19.039 29.979-50.586 37.61-9.774 2.366-18.803.834-27.103-1.175-10.201-2.47-17.27-7.24-24.11-11.851-4.791-3.235-9.32-6.288-14.792-8.544-16.088-6.63-35.302-4.814-64.254 6.076l-.186-.493c29.08-10.939 48.411-12.757 64.64-6.07 5.521 2.276 10.069 5.346 14.888 8.594 6.799 4.587 13.827 9.33 23.936 11.775 8.237 1.993 17.188 3.515 26.857 1.176 31.34-7.582 50.075-37.08 50.261-37.378z"/>
      <path fill="#4F93DD" d="M127.666 52.743l.449.28c-.198.314-20.04 31.599-50.862 38.892-9.74 2.308-17.789.062-26.553-2.873-8.27-2.77-14.424-7.092-20.373-11.272-5.72-4.014-11.119-7.808-18.123-10.168-15.805-5.332-35.219-2.846-64.9 8.32l-.186-.493c29.804-11.208 49.322-13.696 65.255-8.326 7.073 2.385 12.506 6.199 18.255 10.235 5.92 4.157 12.042 8.455 20.24 11.202 8.687 2.91 16.662 5.133 26.26 2.861 30.616-7.243 50.342-38.345 50.538-38.658z"/>
      <path fill="#4F93DD" d="M127.434 49.89l.449.28c-.208.331-21.05 33.204-51.14 40.178-10.212 2.364-17.876-1.007-25.996-4.574-6.612-2.905-11.846-6.847-16.91-10.659-6.48-4.877-12.605-9.485-21.181-11.826-19.075-5.203-42.782 2.004-65.55 10.567l-.186-.493c22.85-8.597 46.646-15.825 65.875-10.581 8.673 2.366 14.835 7.003 21.358 11.912 5.04 3.792 10.25 7.715 16.809 10.597 8.036 3.532 15.634 6.869 25.663 4.545 29.881-6.925 50.605-39.615 50.809-39.946z"/>
      <path fill="#4F93DD" d="M127.205 47.037l.448.28c-.219.348-22.06 34.802-51.418 41.464-10.08 2.283-16.965-1.553-24.932-5.999l-.506-.282c-5.207-2.901-9.56-6.498-13.77-9.974-7.067-5.836-13.742-11.347-23.92-13.552-18.837-4.078-42.063 3.734-66.197 12.812l-.186-.492c24.21-9.106 47.513-16.94 66.495-12.833 10.304 2.23 17.026 7.782 24.143 13.658 4.191 3.462 8.527 7.042 13.69 9.92l.508.282c7.875 4.392 14.676 8.18 24.559 5.944 29.148-6.612 50.87-40.882 51.086-41.228z"/>
      <path fill="#4F93DD" d="M126.975 44.184l.449.28c-.228.363-23.07 36.39-51.695 42.749-10.156 2.256-16.438-2.115-23.713-7.174l-1.175-.813c-4.037-2.792-7.576-6.057-10.996-9.213-7.456-6.882-14.5-13.381-26.293-15.353-18.795-3.135-41.884 5.608-62.26 13.328-1.536.583-3.067 1.16-4.583 1.732l-.185-.493c1.515-.571 3.042-1.148 4.581-1.732C-28.458 59.752-5.298 50.97 13.638 54.14c11.947 1.998 19.048 8.55 26.564 15.484 3.408 3.145 6.931 6.396 10.94 9.167l1.173.815c7.178 4.99 13.39 9.294 23.298 7.092 28.412-6.312 51.136-42.152 51.362-42.515z"/>
      <path fill="#4F93DD" d="M126.745 41.334l.445.28c-.236.379-24.082 37.966-51.97 44.031-10.342 2.257-16.144-2.707-22.863-8.444-.483-.413-.972-.83-1.467-1.249-3.084-2.608-5.897-5.548-8.614-8.39-7.653-8.002-14.882-15.559-28.277-17.215-18.04-2.229-39.017 6.083-57.518 13.419-3.491 1.386-6.79 2.694-9.967 3.889l-.186-.493c3.17-1.193 6.468-2.5 9.96-3.883 18.558-7.362 39.59-15.703 57.776-13.453 13.581 1.68 21.215 9.658 28.594 17.376 2.709 2.832 5.508 5.758 8.574 8.352.495.419.986.836 1.47 1.251 6.61 5.647 12.326 10.517 22.407 8.33 27.674-6.025 51.4-43.424 51.636-43.801z"/>
      <path fill="#4F93DD" d="M126.515 38.48l.445.279c-.247.396-25.098 39.538-52.245 45.317-10.623 2.269-16-3.333-22.23-9.807-.505-.527-1.02-1.06-1.542-1.596-2.32-2.378-4.5-4.99-6.607-7.517-7.33-8.779-14.905-17.858-29.89-19.128C-3.52 44.5-24.438 53.368-41.24 60.49c-4.474 1.897-8.698 3.687-12.443 5.097l-.185-.493c3.733-1.405 7.954-3.194 12.423-5.088C-24.59 52.86-3.617 43.97 14.492 45.503c15.202 1.29 22.85 10.452 30.248 19.316 2.102 2.518 4.276 5.122 6.582 7.486a347.52 347.52 0 011.543 1.599c6.122 6.362 11.425 11.85 21.74 9.658 26.928-5.733 51.663-44.69 51.91-45.083z"/>
      <path fill="#4F93DD" d="M126.284 35.629l.444.28c-.257.41-26.116 41.098-52.523 46.601-10.944 2.278-15.95-3.996-21.738-11.271-.483-.609-.974-1.224-1.474-1.844-1.71-2.12-3.358-4.403-4.952-6.613-7.176-9.953-14.6-20.243-31.15-21.069-18.327-.904-39.778 8.879-55.457 16.03-5.143 2.346-9.59 4.373-13.317 5.776l-.185-.493c3.712-1.397 8.148-3.42 13.285-5.762 15.727-7.174 37.286-16.996 55.699-16.078 16.808.839 24.303 11.236 31.555 21.288 1.59 2.204 3.232 4.481 4.936 6.59.5.622.99 1.237 1.473 1.846 5.911 7.431 10.57 13.307 21.217 11.085 26.19-5.46 51.929-45.958 52.187-46.367z"/>
      <path fill="#4F93DD" d="M126.053 32.773l.445.28c-.268.426-27.132 42.659-52.8 47.888-11.363 2.313-15.98-4.711-21.336-12.843-.43-.653-.867-1.318-1.312-1.983-1.23-1.841-2.439-3.799-3.607-5.693-6.885-11.158-14.005-22.695-32.107-23.03a43.023 43.023 0 00-.922-.009c-18.723 0-39.828 10.37-55.304 17.976-5.26 2.585-9.801 4.816-13.189 6.091l-.186-.493c3.363-1.264 7.894-3.491 13.141-6.07C-25.599 47.258-4.431 36.86 14.414 36.86c.31 0 .62.002.928.008 18.394.34 25.591 12 32.548 23.281 1.166 1.888 2.372 3.843 3.594 5.676.447.668.886 1.332 1.316 1.987 5.469 8.299 9.778 14.862 20.79 12.616 25.451-5.185 52.196-47.23 52.463-47.654z"/>
      <path fill="#4F93DD" d="M125.824 29.92l.444.283c-.278.44-28.152 44.209-53.077 49.17-11.798 2.352-16.054-5.475-20.99-14.535-.36-.66-.725-1.33-1.096-2.003a243.456 243.456 0 01-2.534-4.764c-6.417-12.292-13.052-24.998-32.35-24.998-.148 0-.297 0-.447.002-19.845.2-42.628 12.245-57.702 20.213-5.303 2.804-9.49 5.017-12.35 6.093l-.185-.493c2.83-1.064 7.004-3.27 12.289-6.063 15.12-7.994 37.97-20.075 57.944-20.277l.455-.002c19.615 0 26.32 12.85 32.812 25.28.824 1.576 1.676 3.207 2.528 4.753.373.675.738 1.344 1.098 2.008 5.032 9.243 9.004 16.547 20.424 14.27 24.706-4.92 52.458-48.496 52.737-48.936z"/>
      <path fill="#4F93DD" d="M125.592 27.068l.444.282c-.286.455-29.17 45.753-53.353 50.456C60.4 80.199 56.513 71.502 52.01 61.44c-.278-.624-.56-1.252-.845-1.886-.567-1.254-1.123-2.535-1.688-3.826C43.684 42.45 37.697 28.73 17.84 28.73c-.531 0-1.071.01-1.621.03-21 .756-45.255 14.533-59.745 22.765-4.867 2.764-8.712 4.949-10.95 5.792l-.185-.494c2.2-.827 6.027-3.002 10.874-5.753 14.534-8.255 38.858-22.072 59.984-22.835.54-.019 1.074-.03 1.592-.03 20.256-.001 26.574 14.49 32.17 27.314.564 1.29 1.12 2.569 1.688 3.822.287.634.569 1.264.846 1.888 4.589 10.265 8.196 18.368 20.088 16.065 23.962-4.663 52.724-49.77 53.011-50.226z"/>
      <path fill="#4F93DD" d="M19.31 23.832c20.85-.002 26.426 15.57 31.372 29.374.347.971.693 1.936 1.04 2.89l.593 1.63c3.966 10.917 7.406 20.343 19.76 17.996 23.215-4.407 52.988-51.037 53.287-51.507l.445.283c-.299.472-30.192 47.293-53.63 51.74-12.797 2.421-16.31-7.19-20.355-18.334l-.59-1.626c-.35-.954-.696-1.92-1.044-2.893-5.09-14.202-10.882-30.313-33.522-28.944-22.44 1.342-48.343 17.148-62.26 25.638-4.349 2.655-7.49 4.57-9.075 5.169l-.188-.496c1.537-.577 4.661-2.484 8.987-5.123 13.954-8.516 39.932-24.366 62.5-25.717.919-.055 1.815-.08 2.68-.08z"/>
      <path fill="#4F93DD" d="M20.775 19.44c21.408 0 26.203 16.658 30.457 31.449l.919 3.177c3.491 12.06 6.502 22.471 19.423 20.084 22.469-4.152 53.248-52.303 53.558-52.787l.445.282c-.31.487-31.216 48.829-53.91 53.026-13.402 2.473-16.466-8.154-20.025-20.458l-.918-3.177c-4.436-15.414-9.45-32.878-33.624-30.914-24.263 1.983-51.944 20.167-65.245 28.906-3.478 2.284-5.776 3.794-6.725 4.153l-.185-.493c.896-.338 3.295-1.915 6.622-4.098C-35.095 39.827-7.338 21.592 17.06 19.6a43.86 43.86 0 013.715-.16z"/>
      <path fill="#4F93DD" d="M22.149 15.032c21.989-.003 25.958 17.763 29.492 33.551l.369 1.652c2.98 13.295 5.573 24.781 19.056 22.346C92.79 68.675 124.582 19.01 124.9 18.51l.445.282c-.318.504-32.236 50.361-54.184 54.31-14.014 2.515-16.626-9.193-19.664-22.75l-.37-1.652C47.402 32.067 43.16 13.221 17.54 15.8c-26.766 2.752-58.379 25.294-68.765 32.701-2.396 1.707-3.469 2.468-3.844 2.609l-.185-.493c.327-.123 1.751-1.138 3.723-2.545 10.414-7.427 42.113-30.028 69.018-32.796a47.23 47.23 0 014.66-.244z"/>
      <path fill="#4F93DD" d="M23.557 10.603c22.457 0 25.585 18.863 28.368 35.65 1.642 9.905 3.194 19.26 8.663 23.134 2.567 1.816 5.833 2.351 9.972 1.624 20.976-3.666 53.78-54.842 54.108-55.358l.445.282c-.329.519-33.257 51.888-54.463 55.594-4.284.75-7.68.19-10.368-1.712-5.65-4.003-7.218-13.463-8.88-23.48C48.44 28.471 45.1 8.214 17.98 11.481c-32.916 3.963-72.773 37.178-73.171 37.515l-.337-.402c.398-.337 40.373-33.653 73.447-37.633a47.072 47.072 0 015.64-.358z"/>
      <path fill="#fff" d="M1.364 80.208c9.527 0 14.625-12.645 20.023-26.033 5.729-14.21 11.652-28.902 24.273-28.902 12.636 0 18.273 17.737 24.16 36.68 5.2 4.953 10.248 9.53 20.144 9.53 10.05 0 15.105-5.608 20.457-11.544 1.953-2.166 3.976-4.398 6.274-6.389l.045-.06a34.743 34.743 0 013.696-4.348v.002c.17-.168.37-.303.583-.414 3.496-4.329 7.724-7.125 13.227-7.125a2.29 2.29 0 110 4.58c-9.525 0-14.622 12.646-20.02 26.034-5.727 14.209-11.65 28.902-24.27 28.902-12.634 0-18.27-17.732-24.158-36.671-5.201-4.957-10.25-9.538-20.13-9.538-10.054 0-15.105 5.598-20.452 11.526-1.961 2.173-3.993 4.413-6.3 6.408l-.044.058a34.895 34.895 0 01-3.696 4.348l-.002-.001a2.352 2.352 0 01-.58.411C11.1 81.993 6.87 84.79 1.367 84.79a2.29 2.29 0 11-.002-4.582zM45.66 29.854c-7.482 0-12.23 7.81-16.54 17.643 4.124-5.247 9.203-9.036 16.548-9.036 5.54 0 9.788 2.374 13.305 6.026-3.555-8.497-7.722-14.633-13.313-14.633zm44.304 46.21c-6.382 0-11.047-1.619-14.9-3.963 3.864 6.48 8.313 11.251 14.9 11.251 7.91 0 12.73-6.08 17.137-13.58-4.253 3.553-9.543 6.291-17.137 6.291zm-.009 20.477c7.475 0 12.221-7.796 16.527-17.617-4.115 5.234-9.186 9.01-16.518 9.01-5.547 0-9.8-2.372-13.32-6.021C80.2 90.406 84.367 96.54 89.956 96.54zM45.668 50.33c6.369 0 11.028 1.618 14.878 3.96-3.862-6.477-8.306-11.249-14.878-11.249-7.913 0-12.741 6.082-17.155 13.588 4.254-3.556 9.547-6.299 17.155-6.299z"/>
    </g>
  </g>
  <defs>
    <linearGradient id="paint0_linear_9_9" x1="136.537" x2="-55.53" y1="63.219" y2="63.219" gradientUnits="userSpaceOnUse">
      <stop stop-color="#4F93DD"/>
      <stop offset=".004" stop-color="#4F92DC"/>
      <stop offset=".008" stop-color="#4E92DC"/>
      <stop offset=".012" stop-color="#4E91DB"/>
      <stop offset=".016" stop-color="#4E91DA"/>
      <stop offset=".02" stop-color="#4D90D9"/>
      <stop offset=".023" stop-color="#4D8FD9"/>
      <stop offset=".027" stop-color="#4D8FD8"/>
      <stop offset=".031" stop-color="#4C8ED7"/>
      <stop offset=".035" stop-color="#4C8ED6"/>
      <stop offset=".039" stop-color="#4C8DD6"/>
      <stop offset=".043" stop-color="#4B8DD5"/>
      <stop offset=".047" stop-color="#4B8CD4"/>
      <stop offset=".051" stop-color="#4B8BD3"/>
      <stop offset=".055" stop-color="#4A8BD3"/>
      <stop offset=".059" stop-color="#4A8AD2"/>
      <stop offset=".063" stop-color="#4A8AD1"/>
      <stop offset=".066" stop-color="#4A89D0"/>
      <stop offset=".07" stop-color="#4989D0"/>
      <stop offset=".074" stop-color="#4988CF"/>
      <stop offset=".078" stop-color="#4987CE"/>
      <stop offset=".082" stop-color="#4887CD"/>
      <stop offset=".086" stop-color="#4886CD"/>
      <stop offset=".09" stop-color="#4886CC"/>
      <stop offset=".094" stop-color="#4785CB"/>
      <stop offset=".098" stop-color="#4785CA"/>
      <stop offset=".102" stop-color="#4784CA"/>
      <stop offset=".105" stop-color="#4683C9"/>
      <stop offset=".109" stop-color="#4683C8"/>
      <stop offset=".113" stop-color="#4682C7"/>
      <stop offset=".117" stop-color="#4582C7"/>
      <stop offset=".121" stop-color="#4581C6"/>
      <stop offset=".125" stop-color="#4581C5"/>
      <stop offset=".129" stop-color="#4480C4"/>
      <stop offset=".133" stop-color="#447FC4"/>
      <stop offset=".137" stop-color="#447FC3"/>
      <stop offset=".141" stop-color="#437EC2"/>
      <stop offset=".145" stop-color="#437EC1"/>
      <stop offset=".148" stop-color="#437DC1"/>
      <stop offset=".152" stop-color="#427DC0"/>
      <stop offset=".156" stop-color="#427CBF"/>
      <stop offset=".16" stop-color="#427BBE"/>
      <stop offset=".164" stop-color="#417BBE"/>
      <stop offset=".168" stop-color="#417ABD"/>
      <stop offset=".172" stop-color="#417ABC"/>
      <stop offset=".176" stop-color="#4079BB"/>
      <stop offset=".18" stop-color="#4079BB"/>
      <stop offset=".184" stop-color="#4078BA"/>
      <stop offset=".188" stop-color="#3F77B9"/>
      <stop offset=".191" stop-color="#3F77B8"/>
      <stop offset=".195" stop-color="#3F76B8"/>
      <stop offset=".199" stop-color="#3E76B7"/>
      <stop offset=".203" stop-color="#3E75B6"/>
      <stop offset=".207" stop-color="#3E75B5"/>
      <stop offset=".211" stop-color="#3D74B5"/>
      <stop offset=".215" stop-color="#3D73B4"/>
      <stop offset=".219" stop-color="#3D73B3"/>
      <stop offset=".223" stop-color="#3C72B2"/>
      <stop offset=".227" stop-color="#3C72B2"/>
      <stop offset=".23" stop-color="#3C71B1"/>
      <stop offset=".234" stop-color="#3B71B0"/>
      <stop offset=".238" stop-color="#3B70AF"/>
      <stop offset=".242" stop-color="#3B6FAE"/>
      <stop offset=".246" stop-color="#3A6FAE"/>
      <stop offset=".25" stop-color="#3A6EAD"/>
      <stop offset=".254" stop-color="#3A6EAC"/>
      <stop offset=".258" stop-color="#3A6DAB"/>
      <stop offset=".262" stop-color="#396DAB"/>
      <stop offset=".266" stop-color="#396CAA"/>
      <stop offset=".27" stop-color="#396BA9"/>
      <stop offset=".273" stop-color="#386BA8"/>
      <stop offset=".277" stop-color="#386AA8"/>
      <stop offset=".281" stop-color="#386AA7"/>
      <stop offset=".285" stop-color="#3769A6"/>
      <stop offset=".289" stop-color="#3769A5"/>
      <stop offset=".293" stop-color="#3768A5"/>
      <stop offset=".297" stop-color="#3667A4"/>
      <stop offset=".301" stop-color="#3667A3"/>
      <stop offset=".305" stop-color="#3666A2"/>
      <stop offset=".309" stop-color="#3566A2"/>
      <stop offset=".313" stop-color="#3565A1"/>
      <stop offset=".316" stop-color="#3565A0"/>
      <stop offset=".32" stop-color="#34649F"/>
      <stop offset=".324" stop-color="#34639F"/>
      <stop offset=".328" stop-color="#34639E"/>
      <stop offset=".332" stop-color="#33629D"/>
      <stop offset=".336" stop-color="#33629C"/>
      <stop offset=".34" stop-color="#33619C"/>
      <stop offset=".344" stop-color="#32619B"/>
      <stop offset=".348" stop-color="#32609A"/>
      <stop offset=".352" stop-color="#325F99"/>
      <stop offset=".355" stop-color="#315F99"/>
      <stop offset=".359" stop-color="#315E98"/>
      <stop offset=".363" stop-color="#315E97"/>
      <stop offset=".367" stop-color="#305D96"/>
      <stop offset=".371" stop-color="#305D96"/>
      <stop offset=".375" stop-color="#305C95"/>
      <stop offset=".379" stop-color="#2F5B94"/>
      <stop offset=".383" stop-color="#2F5B93"/>
      <stop offset=".387" stop-color="#2F5A93"/>
      <stop offset=".391" stop-color="#2E5A92"/>
      <stop offset=".395" stop-color="#2E5991"/>
      <stop offset=".398" stop-color="#2E5990"/>
      <stop offset=".402" stop-color="#2D5890"/>
      <stop offset=".406" stop-color="#2D578F"/>
      <stop offset=".41" stop-color="#2D578E"/>
      <stop offset=".414" stop-color="#2C568D"/>
      <stop offset=".418" stop-color="#2C568D"/>
      <stop offset=".422" stop-color="#2C558C"/>
      <stop offset=".426" stop-color="#2B558B"/>
      <stop offset=".43" stop-color="#2B548A"/>
      <stop offset=".434" stop-color="#2B538A"/>
      <stop offset=".438" stop-color="#2B5389"/>
      <stop offset=".441" stop-color="#2A5288"/>
      <stop offset=".445" stop-color="#2A5287"/>
      <stop offset=".449" stop-color="#2A5187"/>
      <stop offset=".453" stop-color="#295186"/>
      <stop offset=".457" stop-color="#295085"/>
      <stop offset=".461" stop-color="#295084"/>
      <stop offset=".465" stop-color="#284F84"/>
      <stop offset=".469" stop-color="#284E83"/>
      <stop offset=".473" stop-color="#284E82"/>
      <stop offset=".477" stop-color="#274D81"/>
      <stop offset=".48" stop-color="#274D81"/>
      <stop offset=".484" stop-color="#274C80"/>
      <stop offset=".488" stop-color="#264C7F"/>
      <stop offset=".492" stop-color="#264B7E"/>
      <stop offset=".496" stop-color="#264A7E"/>
      <stop offset=".5" stop-color="#254A7D"/>
      <stop offset=".504" stop-color="#25497C"/>
      <stop offset=".508" stop-color="#25497B"/>
      <stop offset=".512" stop-color="#24487B"/>
      <stop offset=".516" stop-color="#24487A"/>
      <stop offset=".52" stop-color="#244779"/>
      <stop offset=".523" stop-color="#234678"/>
      <stop offset=".527" stop-color="#234678"/>
      <stop offset=".531" stop-color="#234577"/>
      <stop offset=".535" stop-color="#224576"/>
      <stop offset=".539" stop-color="#224475"/>
      <stop offset=".543" stop-color="#224475"/>
      <stop offset=".547" stop-color="#214374"/>
      <stop offset=".551" stop-color="#214273"/>
      <stop offset=".555" stop-color="#214272"/>
      <stop offset=".559" stop-color="#204172"/>
      <stop offset=".563" stop-color="#204171"/>
      <stop offset=".566" stop-color="#204070"/>
      <stop offset=".57" stop-color="#1F406F"/>
      <stop offset=".574" stop-color="#1F3F6F"/>
      <stop offset=".578" stop-color="#1F3E6E"/>
      <stop offset=".582" stop-color="#1E3E6D"/>
      <stop offset=".586" stop-color="#1E3D6C"/>
      <stop offset=".59" stop-color="#1E3D6C"/>
      <stop offset=".594" stop-color="#1D3C6B"/>
      <stop offset=".598" stop-color="#1D3C6A"/>
      <stop offset=".602" stop-color="#1D3B69"/>
      <stop offset=".605" stop-color="#1C3A69"/>
      <stop offset=".609" stop-color="#1C3A68"/>
      <stop offset=".613" stop-color="#1C3967"/>
      <stop offset=".617" stop-color="#1B3966"/>
      <stop offset=".621" stop-color="#1B3866"/>
      <stop offset=".625" stop-color="#1B3865"/>
      <stop offset=".629" stop-color="#1B3764"/>
      <stop offset=".633" stop-color="#1A3663"/>
      <stop offset=".641" stop-color="#1A3663"/>
      <stop offset=".656" stop-color="#1A3663"/>
      <stop offset=".688" stop-color="#1A3663"/>
      <stop offset=".75" stop-color="#1A3663"/>
      <stop offset="1" stop-color="#1B3663"/>
    </linearGradient>
  </defs>
</svg>
