<svg xmlns="http://www.w3.org/2000/svg" fill="none" viewBox="0 0 137 132"><mask id="a" width="137" height="132" x="0" y="0" maskUnits="userSpaceOnUse" style="mask-type:alpha"><ellipse cx="68.645" cy="66.2" fill="#C4C4C4" rx="67.668" ry="65.214"/></mask><g mask="url(#a)"><ellipse cx="68.645" cy="66.2" fill="#000" rx="67.668" ry="65.214"/><path fill="url(#b)" d="M136.537 131.951V-5.512H-.927V131.95h137.464z"/><path fill="#4F93DD" d="m128.36 61.3.445.281c-.064.103-6.667 10.52-19.552 20.26-11.894 8.992-31.713 19.254-58.696 16.996-14.933-1.241-23.648-7.33-32.072-13.214C4.11 75.579-9.472 66.09-52.1 82.127l-.186-.493C-9.404 65.5 4.29 75.063 18.786 85.191c8.37 5.846 17.024 11.893 31.817 13.121 26.775 2.229 46.513-7.957 58.334-16.893 12.807-9.683 19.358-20.013 19.423-20.118z"/><path fill="#4F93DD" d="m128.126 58.448.449.28c-.177.283-18.04 28.348-50.308 36.325-8.251 2.037-17.038 2.202-27.66.52-12.415-1.967-20.352-7.302-28.032-12.462-3.734-2.509-7.263-4.88-11.273-6.885-11.909-5.956-27.857-9.616-63.604 3.832l-.185-.493c35.934-13.515 52.013-9.82 64.023-3.811 4.04 2.02 7.584 4.4 11.332 6.92 7.632 5.13 15.52 10.43 27.82 12.379 10.55 1.67 19.269 1.51 27.45-.512 32.06-7.924 49.813-35.81 49.988-36.093z"/><path fill="#4F93DD" d="m127.896 55.596.449.28c-.187.299-19.039 29.978-50.586 37.61-9.774 2.366-18.803.834-27.103-1.176-10.201-2.47-17.27-7.24-24.11-11.851-4.791-3.235-9.32-6.287-14.792-8.544-16.088-6.63-35.302-4.814-64.254 6.076l-.186-.492c29.08-10.94 48.411-12.757 64.64-6.07 5.521 2.275 10.069 5.345 14.888 8.593 6.799 4.587 13.827 9.33 23.936 11.776 8.237 1.993 17.188 3.514 26.857 1.175 31.34-7.582 50.075-37.08 50.261-37.377z"/><path fill="#4F93DD" d="m127.666 52.743.449.28c-.198.314-20.04 31.599-50.862 38.893-9.74 2.307-17.789.06-26.553-2.874-8.27-2.77-14.424-7.092-20.373-11.272-5.72-4.013-11.119-7.808-18.123-10.167-15.805-5.333-35.219-2.847-64.9 8.32l-.186-.493c29.804-11.21 49.322-13.697 65.255-8.327 7.073 2.385 12.506 6.199 18.255 10.235 5.92 4.157 12.042 8.455 20.24 11.202 8.687 2.91 16.662 5.133 26.26 2.861 30.616-7.243 50.342-38.344 50.538-38.658z"/><path fill="#4F93DD" d="m127.434 49.89.449.28c-.208.331-21.05 33.204-51.14 40.178-10.212 2.364-17.876-1.007-25.996-4.574-6.612-2.905-11.846-6.847-16.91-10.659-6.48-4.877-12.605-9.485-21.181-11.825-19.075-5.204-42.782 2.003-65.55 10.566l-.186-.493c22.85-8.596 46.646-15.825 65.875-10.58 8.673 2.365 14.835 7.002 21.358 11.911 5.04 3.793 10.25 7.716 16.809 10.598 8.036 3.531 15.634 6.868 25.663 4.544 29.881-6.925 50.605-39.615 50.809-39.946z"/><path fill="#4F93DD" d="m127.205 47.037.448.28c-.219.348-22.06 34.802-51.418 41.464-10.08 2.284-16.965-1.553-24.932-5.999l-.506-.282c-5.207-2.901-9.56-6.498-13.77-9.974-7.067-5.836-13.742-11.347-23.92-13.551-18.837-4.08-42.063 3.733-66.197 12.812l-.186-.493c24.21-9.106 47.513-16.94 66.495-12.833 10.304 2.231 17.026 7.783 24.143 13.659 4.191 3.461 8.527 7.041 13.69 9.919l.508.282c7.875 4.393 14.676 8.181 24.559 5.944 29.148-6.612 50.87-40.882 51.086-41.228z"/><path fill="#4F93DD" d="m126.975 44.185.449.28c-.228.362-23.07 36.39-51.695 42.748-10.156 2.257-16.438-2.115-23.713-7.173l-1.175-.814c-4.037-2.791-7.576-6.057-10.996-9.213-7.456-6.881-14.5-13.381-26.293-15.353-18.795-3.135-41.884 5.609-62.26 13.328-1.536.584-3.067 1.16-4.583 1.732l-.185-.493c1.515-.57 3.042-1.148 4.581-1.732 20.437-7.743 43.597-16.524 62.533-13.353 11.947 1.997 19.048 8.55 26.564 15.483 3.408 3.145 6.931 6.397 10.94 9.167l1.173.815c7.178 4.99 13.39 9.294 23.298 7.092 28.412-6.312 51.136-42.152 51.362-42.514z"/><path fill="#4F93DD" d="m126.745 41.334.445.28c-.236.38-24.082 37.966-51.97 44.032-10.342 2.256-16.144-2.707-22.863-8.444-.483-.414-.972-.83-1.467-1.25-3.084-2.608-5.897-5.547-8.614-8.39-7.653-8.002-14.882-15.559-28.277-17.215-18.04-2.229-39.017 6.083-57.518 13.419-3.491 1.386-6.79 2.694-9.967 3.89l-.186-.494c3.17-1.193 6.468-2.5 9.96-3.883 18.558-7.361 39.59-15.703 57.776-13.452 13.581 1.679 21.215 9.657 28.594 17.375 2.709 2.832 5.508 5.758 8.574 8.352.495.42.986.837 1.47 1.251 6.61 5.647 12.326 10.518 22.407 8.33 27.674-6.025 51.4-43.424 51.636-43.801z"/><path fill="#4F93DD" d="m126.515 38.48.445.28c-.247.395-25.098 39.537-52.245 45.316-10.623 2.27-16-3.333-22.23-9.807-.505-.527-1.02-1.06-1.542-1.595-2.32-2.38-4.5-4.991-6.607-7.518-7.33-8.779-14.905-17.857-29.89-19.128-17.966-1.527-38.884 7.34-55.686 14.462-4.474 1.896-8.698 3.687-12.443 5.096l-.185-.493c3.733-1.405 7.954-3.194 12.423-5.088C-24.59 52.86-3.617 43.97 14.492 45.504c15.202 1.289 22.85 10.452 30.248 19.315 2.102 2.518 4.276 5.122 6.582 7.486.523.537 1.038 1.072 1.543 1.6 6.122 6.362 11.425 11.85 21.74 9.657 26.928-5.733 51.663-44.689 51.91-45.083z"/><path fill="#4F93DD" d="m126.284 35.629.444.28c-.257.41-26.116 41.099-52.523 46.602-10.944 2.278-15.95-3.997-21.738-11.272-.483-.609-.974-1.224-1.474-1.843-1.71-2.12-3.358-4.404-4.952-6.614-7.176-9.953-14.6-20.243-31.15-21.069-18.327-.904-39.778 8.879-55.457 16.03-5.143 2.346-9.59 4.373-13.317 5.776l-.185-.493c3.712-1.397 8.148-3.42 13.285-5.762 15.727-7.174 37.286-16.996 55.699-16.078 16.808.839 24.303 11.236 31.555 21.288 1.59 2.204 3.232 4.482 4.936 6.59.5.622.99 1.238 1.473 1.846 5.911 7.431 10.57 13.307 21.217 11.085 26.19-5.46 51.929-45.958 52.187-46.366z"/><path fill="#4F93DD" d="m126.053 32.774.445.28c-.268.425-27.132 42.658-52.8 47.887-11.363 2.313-15.98-4.71-21.336-12.843-.43-.653-.867-1.317-1.312-1.983-1.23-1.841-2.439-3.799-3.607-5.693-6.885-11.158-14.005-22.695-32.107-23.03a42.38 42.38 0 0 0-.922-.008c-18.723 0-39.828 10.37-55.304 17.975-5.26 2.585-9.801 4.817-13.189 6.092l-.186-.494c3.363-1.264 7.894-3.49 13.141-6.07C-25.599 47.26-4.431 36.86 14.414 36.86c.31 0 .62.002.928.009 18.394.339 25.591 12 32.548 23.28 1.166 1.888 2.372 3.843 3.594 5.676.447.668.886 1.332 1.316 1.987 5.469 8.3 9.778 14.862 20.79 12.616 25.451-5.185 52.196-47.23 52.463-47.653z"/><path fill="#4F93DD" d="m125.824 29.921.444.282c-.278.44-28.152 44.21-53.077 49.17-11.798 2.352-16.054-5.475-20.99-14.535-.36-.66-.725-1.33-1.096-2.003a243.17 243.17 0 0 1-2.534-4.764c-6.417-12.292-13.052-24.998-32.35-24.998-.148 0-.297 0-.447.002-19.845.2-42.628 12.245-57.702 20.213-5.303 2.805-9.49 5.017-12.35 6.094l-.185-.494c2.83-1.064 7.004-3.27 12.289-6.063 15.12-7.993 37.97-20.075 57.944-20.277l.455-.002c19.615 0 26.32 12.85 32.812 25.28a249.026 249.026 0 0 0 2.528 4.754c.373.674.738 1.344 1.098 2.007 5.032 9.244 9.004 16.548 20.424 14.27 24.706-4.92 52.458-48.496 52.737-48.936z"/><path fill="#4F93DD" d="m125.592 27.069.444.282c-.286.455-29.17 45.752-53.353 50.455C60.4 80.199 56.513 71.503 52.01 61.44c-.278-.624-.56-1.252-.845-1.886-.567-1.253-1.123-2.535-1.688-3.826-5.793-13.278-11.78-26.997-31.637-26.997-.531 0-1.071.01-1.621.029-21 .756-45.255 14.533-59.745 22.765-4.867 2.764-8.712 4.949-10.95 5.792l-.185-.493c2.2-.828 6.027-3.002 10.874-5.754 14.534-8.255 38.858-22.072 59.984-22.835a45.42 45.42 0 0 1 1.592-.029c20.256-.002 26.574 14.49 32.17 27.314.564 1.289 1.12 2.568 1.688 3.821.287.634.569 1.264.846 1.888 4.589 10.265 8.196 18.368 20.088 16.065 23.962-4.663 52.724-49.77 53.011-50.225z"/><path fill="#4F93DD" d="M19.31 23.832c20.85-.002 26.426 15.57 31.372 29.374.347.971.693 1.936 1.04 2.89l.593 1.63c3.966 10.917 7.406 20.344 19.76 17.996 23.215-4.407 52.988-51.036 53.287-51.506l.445.282c-.299.472-30.192 47.293-53.63 51.74-12.797 2.421-16.31-7.19-20.355-18.333l-.59-1.627c-.35-.954-.696-1.92-1.044-2.893-5.09-14.202-10.882-30.313-33.522-28.944-22.44 1.342-48.343 17.148-62.26 25.639-4.349 2.654-7.49 4.57-9.075 5.168l-.188-.495c1.537-.578 4.661-2.484 8.987-5.124 13.954-8.516 39.932-24.366 62.5-25.717.919-.055 1.815-.08 2.68-.08z"/><path fill="#4F93DD" d="M20.775 19.44c21.408 0 26.203 16.658 30.457 31.449l.919 3.177c3.491 12.06 6.502 22.471 19.423 20.085 22.469-4.153 53.248-52.303 53.558-52.788l.445.282c-.31.487-31.216 48.83-53.91 53.026-13.402 2.474-16.466-8.154-20.025-20.458l-.918-3.177c-4.436-15.414-9.45-32.878-33.624-30.914-24.263 1.983-51.944 20.167-65.245 28.907-3.478 2.283-5.776 3.794-6.725 4.152l-.185-.493c.896-.337 3.295-1.915 6.622-4.098C-35.095 39.827-7.338 21.592 17.06 19.6c1.29-.11 2.527-.16 3.715-.16z"/><path fill="#4F93DD" d="M22.149 15.032c21.989-.002 25.958 17.763 29.492 33.552l.369 1.652c2.98 13.294 5.573 24.78 19.056 22.345 21.724-3.906 53.516-53.57 53.834-54.07l.445.282c-.318.503-32.236 50.36-54.184 54.308-14.014 2.516-16.626-9.192-19.664-22.75l-.37-1.651C47.402 32.068 43.16 13.222 17.54 15.8c-26.766 2.752-58.379 25.294-68.765 32.701-2.396 1.707-3.469 2.468-3.844 2.609l-.185-.493c.327-.122 1.751-1.138 3.723-2.545 10.414-7.427 42.113-30.028 69.018-32.796a47.23 47.23 0 0 1 4.66-.244z"/><path fill="#4F93DD" d="M23.557 10.603c22.457 0 25.585 18.863 28.368 35.65 1.642 9.905 3.194 19.26 8.663 23.134 2.567 1.816 5.833 2.351 9.972 1.625 20.976-3.666 53.78-54.843 54.108-55.359l.445.283c-.329.518-33.257 51.888-54.463 55.594-4.284.75-7.68.19-10.368-1.713-5.65-4.003-7.218-13.463-8.88-23.48C48.44 28.473 45.1 8.215 17.98 11.483c-32.915 3.963-72.773 37.178-73.171 37.515l-.337-.403c.398-.337 40.373-33.653 73.447-37.633a47.051 47.051 0 0 1 5.64-.358z"/><path fill="#fff" d="M1.364 80.208c9.527 0 14.625-12.645 20.023-26.033 5.729-14.209 11.652-28.902 24.273-28.902 12.636 0 18.273 17.737 24.16 36.68 5.2 4.953 10.248 9.53 20.144 9.53 10.05 0 15.105-5.607 20.457-11.544 1.953-2.165 3.976-4.398 6.274-6.389l.045-.06a34.729 34.729 0 0 1 3.696-4.347v.001c.17-.168.37-.302.583-.413 3.496-4.33 7.724-7.126 13.227-7.126a2.29 2.29 0 1 1 0 4.58c-9.525 0-14.622 12.646-20.02 26.034-5.727 14.21-11.65 28.902-24.27 28.902-12.634 0-18.27-17.731-24.158-36.671-5.201-4.957-10.25-9.538-20.13-9.538-10.054 0-15.105 5.599-20.452 11.526-1.961 2.173-3.993 4.413-6.3 6.408l-.044.059a34.887 34.887 0 0 1-3.696 4.347l-.002-.001a2.352 2.352 0 0 1-.58.412C11.1 81.993 6.87 84.79 1.367 84.79a2.29 2.29 0 1 1-.002-4.582zM45.66 29.854c-7.482 0-12.23 7.81-16.54 17.643 4.124-5.247 9.203-9.036 16.548-9.036 5.54 0 9.788 2.374 13.305 6.026-3.555-8.496-7.722-14.633-13.313-14.633zm44.304 46.21c-6.382 0-11.047-1.619-14.9-3.962 3.864 6.479 8.313 11.25 14.9 11.25 7.91 0 12.73-6.08 17.137-13.58-4.253 3.553-9.543 6.292-17.137 6.292zm-.009 20.477c7.475 0 12.221-7.796 16.527-17.617-4.115 5.234-9.186 9.01-16.518 9.01-5.547 0-9.8-2.372-13.32-6.02C80.2 90.405 84.367 96.54 89.956 96.54zM45.668 50.33c6.369 0 11.028 1.618 14.878 3.961-3.862-6.478-8.306-11.25-14.878-11.25-7.913 0-12.741 6.083-17.155 13.588 4.254-3.556 9.547-6.299 17.155-6.299z"/></g><defs><linearGradient id="b" x1="136.537" x2="-55.53" y1="63.219" y2="63.219" gradientUnits="userSpaceOnUse"><stop stop-color="#4F93DD"/><stop offset=".004" stop-color="#4F92DC"/><stop offset=".008" stop-color="#4E92DC"/><stop offset=".012" stop-color="#4E91DB"/><stop offset=".016" stop-color="#4E91DA"/><stop offset=".02" stop-color="#4D90D9"/><stop offset=".023" stop-color="#4D8FD9"/><stop offset=".027" stop-color="#4D8FD8"/><stop offset=".031" stop-color="#4C8ED7"/><stop offset=".035" stop-color="#4C8ED6"/><stop offset=".039" stop-color="#4C8DD6"/><stop offset=".043" stop-color="#4B8DD5"/><stop offset=".047" stop-color="#4B8CD4"/><stop offset=".051" stop-color="#4B8BD3"/><stop offset=".055" stop-color="#4A8BD3"/><stop offset=".059" stop-color="#4A8AD2"/><stop offset=".063" stop-color="#4A8AD1"/><stop offset=".066" stop-color="#4A89D0"/><stop offset=".07" stop-color="#4989D0"/><stop offset=".074" stop-color="#4988CF"/><stop offset=".078" stop-color="#4987CE"/><stop offset=".082" stop-color="#4887CD"/><stop offset=".086" stop-color="#4886CD"/><stop offset=".09" stop-color="#4886CC"/><stop offset=".094" stop-color="#4785CB"/><stop offset=".098" stop-color="#4785CA"/><stop offset=".102" stop-color="#4784CA"/><stop offset=".105" stop-color="#4683C9"/><stop offset=".109" stop-color="#4683C8"/><stop offset=".113" stop-color="#4682C7"/><stop offset=".117" stop-color="#4582C7"/><stop offset=".121" stop-color="#4581C6"/><stop offset=".125" stop-color="#4581C5"/><stop offset=".129" stop-color="#4480C4"/><stop offset=".133" stop-color="#447FC4"/><stop offset=".137" stop-color="#447FC3"/><stop offset=".141" stop-color="#437EC2"/><stop offset=".145" stop-color="#437EC1"/><stop offset=".148" stop-color="#437DC1"/><stop offset=".152" stop-color="#427DC0"/><stop offset=".156" stop-color="#427CBF"/><stop offset=".16" stop-color="#427BBE"/><stop offset=".164" stop-color="#417BBE"/><stop offset=".168" stop-color="#417ABD"/><stop offset=".172" stop-color="#417ABC"/><stop offset=".176" stop-color="#4079BB"/><stop offset=".18" stop-color="#4079BB"/><stop offset=".184" stop-color="#4078BA"/><stop offset=".188" stop-color="#3F77B9"/><stop offset=".191" stop-color="#3F77B8"/><stop offset=".195" stop-color="#3F76B8"/><stop offset=".199" stop-color="#3E76B7"/><stop offset=".203" stop-color="#3E75B6"/><stop offset=".207" stop-color="#3E75B5"/><stop offset=".211" stop-color="#3D74B5"/><stop offset=".215" stop-color="#3D73B4"/><stop offset=".219" stop-color="#3D73B3"/><stop offset=".223" stop-color="#3C72B2"/><stop offset=".227" stop-color="#3C72B2"/><stop offset=".23" stop-color="#3C71B1"/><stop offset=".234" stop-color="#3B71B0"/><stop offset=".238" stop-color="#3B70AF"/><stop offset=".242" stop-color="#3B6FAE"/><stop offset=".246" stop-color="#3A6FAE"/><stop offset=".25" stop-color="#3A6EAD"/><stop offset=".254" stop-color="#3A6EAC"/><stop offset=".258" stop-color="#3A6DAB"/><stop offset=".262" stop-color="#396DAB"/><stop offset=".266" stop-color="#396CAA"/><stop offset=".27" stop-color="#396BA9"/><stop offset=".273" stop-color="#386BA8"/><stop offset=".277" stop-color="#386AA8"/><stop offset=".281" stop-color="#386AA7"/><stop offset=".285" stop-color="#3769A6"/><stop offset=".289" stop-color="#3769A5"/><stop offset=".293" stop-color="#3768A5"/><stop offset=".297" stop-color="#3667A4"/><stop offset=".301" stop-color="#3667A3"/><stop offset=".305" stop-color="#3666A2"/><stop offset=".309" stop-color="#3566A2"/><stop offset=".313" stop-color="#3565A1"/><stop offset=".316" stop-color="#3565A0"/><stop offset=".32" stop-color="#34649F"/><stop offset=".324" stop-color="#34639F"/><stop offset=".328" stop-color="#34639E"/><stop offset=".332" stop-color="#33629D"/><stop offset=".336" stop-color="#33629C"/><stop offset=".34" stop-color="#33619C"/><stop offset=".344" stop-color="#32619B"/><stop offset=".348" stop-color="#32609A"/><stop offset=".352" stop-color="#325F99"/><stop offset=".355" stop-color="#315F99"/><stop offset=".359" stop-color="#315E98"/><stop offset=".363" stop-color="#315E97"/><stop offset=".367" stop-color="#305D96"/><stop offset=".371" stop-color="#305D96"/><stop offset=".375" stop-color="#305C95"/><stop offset=".379" stop-color="#2F5B94"/><stop offset=".383" stop-color="#2F5B93"/><stop offset=".387" stop-color="#2F5A93"/><stop offset=".391" stop-color="#2E5A92"/><stop offset=".395" stop-color="#2E5991"/><stop offset=".398" stop-color="#2E5990"/><stop offset=".402" stop-color="#2D5890"/><stop offset=".406" stop-color="#2D578F"/><stop offset=".41" stop-color="#2D578E"/><stop offset=".414" stop-color="#2C568D"/><stop offset=".418" stop-color="#2C568D"/><stop offset=".422" stop-color="#2C558C"/><stop offset=".426" stop-color="#2B558B"/><stop offset=".43" stop-color="#2B548A"/><stop offset=".434" stop-color="#2B538A"/><stop offset=".438" stop-color="#2B5389"/><stop offset=".441" stop-color="#2A5288"/><stop offset=".445" stop-color="#2A5287"/><stop offset=".449" stop-color="#2A5187"/><stop offset=".453" stop-color="#295186"/><stop offset=".457" stop-color="#295085"/><stop offset=".461" stop-color="#295084"/><stop offset=".465" stop-color="#284F84"/><stop offset=".469" stop-color="#284E83"/><stop offset=".473" stop-color="#284E82"/><stop offset=".477" stop-color="#274D81"/><stop offset=".48" stop-color="#274D81"/><stop offset=".484" stop-color="#274C80"/><stop offset=".488" stop-color="#264C7F"/><stop offset=".492" stop-color="#264B7E"/><stop offset=".496" stop-color="#264A7E"/><stop offset=".5" stop-color="#254A7D"/><stop offset=".504" stop-color="#25497C"/><stop offset=".508" stop-color="#25497B"/><stop offset=".512" stop-color="#24487B"/><stop offset=".516" stop-color="#24487A"/><stop offset=".52" stop-color="#244779"/><stop offset=".523" stop-color="#234678"/><stop offset=".527" stop-color="#234678"/><stop offset=".531" stop-color="#234577"/><stop offset=".535" stop-color="#224576"/><stop offset=".539" stop-color="#224475"/><stop offset=".543" stop-color="#224475"/><stop offset=".547" stop-color="#214374"/><stop offset=".551" stop-color="#214273"/><stop offset=".555" stop-color="#214272"/><stop offset=".559" stop-color="#204172"/><stop offset=".563" stop-color="#204171"/><stop offset=".566" stop-color="#204070"/><stop offset=".57" stop-color="#1F406F"/><stop offset=".574" stop-color="#1F3F6F"/><stop offset=".578" stop-color="#1F3E6E"/><stop offset=".582" stop-color="#1E3E6D"/><stop offset=".586" stop-color="#1E3D6C"/><stop offset=".59" stop-color="#1E3D6C"/><stop offset=".594" stop-color="#1D3C6B"/><stop offset=".598" stop-color="#1D3C6A"/><stop offset=".602" stop-color="#1D3B69"/><stop offset=".605" stop-color="#1C3A69"/><stop offset=".609" stop-color="#1C3A68"/><stop offset=".613" stop-color="#1C3967"/><stop offset=".617" stop-color="#1B3966"/><stop offset=".621" stop-color="#1B3866"/><stop offset=".625" stop-color="#1B3865"/><stop offset=".629" stop-color="#1B3764"/><stop offset=".633" stop-color="#1A3663"/><stop offset=".641" stop-color="#1A3663"/><stop offset=".656" stop-color="#1A3663"/><stop offset=".688" stop-color="#1A3663"/><stop offset=".75" stop-color="#1A3663"/><stop offset="1" stop-color="#1B3663"/></linearGradient></defs></svg>