<svg xmlns="http://www.w3.org/2000/svg" fill="none" viewBox="0 0 514 132">
  <path fill="#000" d="M168.575 118.726l-.732-2.726h-3.903l-.732 2.726h-2.336l3.664-11.776h2.779l3.647 11.776h-2.387zm-4.191-4.432h3l-1.501-5.623-1.499 5.623zM174.558 105.859v12.867h-2.182v-12.628l2.182-.239zm5.402 3.851l-3 3.972 3.29 5.044h-2.506l-3.102-4.925 3.017-4.091h2.301zM186.812 118.3a3.529 3.529 0 01-1.066.512 4.288 4.288 0 01-1.201.171c-.887-.012-1.561-.265-2.021-.759-.459-.495-.689-1.225-.689-2.19v-4.756h-1.415v-1.568h1.415v-1.994l2.18-.256v2.25h2.097l-.222 1.568h-1.875v4.705c0 .443.077.761.23.954.154.193.395.289.725.289.33 0 .687-.107 1.073-.323l.769 1.397zM190.391 109.71v9.016h-2.182v-9.016h2.182zm-1.108-4.566c.408 0 .74.128.996.383.256.256.385.571.385.945 0 .375-.129.689-.385.939-.256.249-.588.374-.996.374-.399 0-.726-.125-.981-.374a1.26 1.26 0 01-.384-.939c0-.374.128-.689.384-.945.255-.255.582-.383.981-.383zM196.866 109.454c1.329 0 2.366.424 3.109 1.272.745.846 1.118 2.008 1.118 3.485 0 .942-.171 1.775-.512 2.497-.341.721-.829 1.28-1.465 1.679-.637.397-1.392.596-2.267.596-1.33 0-2.37-.423-3.12-1.27s-1.125-2.015-1.125-3.502c0-.944.17-1.773.511-2.489a3.874 3.874 0 011.474-1.67c.642-.398 1.401-.598 2.277-.598zm0 1.655c-1.307 0-1.96 1.034-1.96 3.102 0 1.068.162 1.855.486 2.36.323.505.809.757 1.457.757.647 0 1.133-.255 1.457-.766.323-.511.485-1.295.485-2.351 0-1.057-.162-1.839-.485-2.343-.324-.506-.804-.759-1.44-.759zM208.114 109.454c.807 0 1.434.242 1.882.725.449.483.674 1.157.674 2.021v6.527h-2.18v-6.188c0-.533-.095-.907-.283-1.123-.188-.216-.463-.324-.825-.324-.376 0-.715.116-1.016.349-.301.233-.593.57-.876 1.013v6.273h-2.182v-9.017h1.892l.17 1.177c.739-.955 1.653-1.433 2.744-1.433zM216.226 109.454c1.215 0 2.283.358 3.204 1.074l-.851 1.279c-.774-.488-1.529-.732-2.268-.732-.432 0-.768.082-1.007.246a.764.764 0 00-.357.657.82.82 0 00.154.51c.102.137.287.265.554.385.266.119.661.252 1.184.399.977.262 1.702.609 2.172 1.041.472.432.708 1.034.708 1.807 0 .897-.364 1.598-1.091 2.104-.726.505-1.629.759-2.709.759a5.718 5.718 0 01-2.021-.342 4.927 4.927 0 01-1.575-.937l1.091-1.228c.783.591 1.6.886 2.453.886.488 0 .877-.095 1.167-.288a.915.915 0 00.437-.803c0-.26-.055-.467-.164-.62-.107-.154-.3-.291-.578-.41a12.437 12.437 0 00-1.304-.434c-.921-.251-1.597-.6-2.03-1.048-.432-.448-.647-1.008-.647-1.679 0-.501.145-.949.435-1.347.289-.397.698-.709 1.227-.937.529-.228 1.134-.342 1.816-.342zM226.332 109.454c1.044 0 1.862.419 2.453 1.254.592.835.888 2.003.888 3.503 0 .931-.145 1.758-.435 2.48-.289.721-.702 1.283-1.237 1.686-.534.404-1.164.606-1.891.606-.489 0-.935-.103-1.338-.308a3.106 3.106 0 01-1.047-.869l-.137.92h-1.926v-12.628l2.182-.239v4.874a2.995 2.995 0 012.488-1.279zm-.818 7.891c.59 0 1.05-.252 1.379-.757.33-.505.495-1.298.495-2.377 0-1.137-.153-1.941-.461-2.412-.306-.471-.737-.707-1.294-.707-.693 0-1.289.409-1.789 1.225v3.989c.192.33.433.586.723.768.29.181.605.271.947.271zM239.2 118.726h-1.894l-.117-1.261c-.331.511-.72.892-1.169 1.142-.449.25-.981.376-1.594.376-.807 0-1.43-.248-1.867-.742-.436-.494-.654-1.179-.654-2.053v-6.478h2.181v6.205c0 .511.088.874.264 1.091.176.215.456.322.843.322.693 0 1.301-.425 1.825-1.277v-6.341h2.182v9.016zm-5.54-13.379c.33 0 .608.114.834.341.228.228.342.506.342.835 0 .33-.114.609-.342.837a1.134 1.134 0 01-.834.339c-.341 0-.627-.113-.86-.339a1.126 1.126 0 01-.349-.837c0-.329.116-.607.349-.835.233-.227.519-.341.86-.341zm3.768 0c.34 0 .624.114.852.341.227.228.341.506.341.835a1.162 1.162 0 01-1.193 1.176c-.331 0-.612-.113-.845-.339a1.126 1.126 0 01-.349-.837c0-.329.116-.607.349-.835.233-.227.514-.341.845-.341zM246.441 109.471c.33 0 .631.04.903.12l-.374 2.114a3.259 3.259 0 00-.8-.103c-.535 0-.957.191-1.264.571-.306.381-.55.964-.73 1.748v4.805h-2.182v-9.016h1.891l.205 1.773c.215-.648.527-1.145.936-1.492.409-.346.881-.52 1.415-.52zM252.56 109.454c1.329 0 2.365.424 3.109 1.272.745.846 1.118 2.008 1.118 3.485 0 .942-.171 1.775-.513 2.497-.34.721-.828 1.28-1.464 1.679-.637.397-1.392.596-2.268.596-1.329 0-2.369-.423-3.119-1.27s-1.125-2.015-1.125-3.502c0-.944.17-1.773.511-2.489a3.868 3.868 0 011.474-1.67c.642-.398 1.401-.598 2.277-.598zm0 1.655c-1.307 0-1.96 1.034-1.96 3.102 0 1.068.161 1.855.485 2.36.324.505.81.757 1.457.757.648 0 1.134-.255 1.458-.766.323-.511.485-1.295.485-2.351 0-1.057-.162-1.839-.485-2.343-.324-.506-.804-.759-1.44-.759zM272.993 109.454c.727 0 1.307.248 1.738.742.433.495.649 1.163.649 2.004v6.527h-2.182v-6.188c0-.964-.329-1.447-.988-1.447a1.35 1.35 0 00-.913.332c-.256.221-.519.565-.791 1.03v6.273h-2.182v-6.188c0-.964-.33-1.447-.989-1.447a1.37 1.37 0 00-.929.332c-.256.221-.52.565-.791 1.03v6.273h-2.182v-9.017h1.891l.171 1.177c.682-.955 1.551-1.433 2.607-1.433.522 0 .974.134 1.355.401.38.267.656.639.827 1.117.363-.489.763-.864 1.201-1.125.437-.262.94-.393 1.508-.393zM285.299 118.727h-1.894l-.117-1.262c-.33.511-.72.892-1.169 1.142-.449.25-.981.376-1.594.376-.807 0-1.429-.248-1.867-.742-.436-.494-.654-1.179-.654-2.053v-6.478h2.182v6.205c0 .511.087.874.263 1.091.176.215.457.322.843.322.693 0 1.301-.425 1.825-1.277v-6.341h2.182v9.017zM290.223 118.983c-.693 0-1.236-.202-1.627-.606-.393-.403-.589-.974-.589-1.713v-10.566l2.182-.239v10.737c0 .42.17.63.511.63.17 0 .341-.028.512-.084l.459 1.533a3.48 3.48 0 01-1.448.308zM298.455 118.3a3.517 3.517 0 01-1.066.512 4.283 4.283 0 01-1.201.171c-.887-.012-1.561-.265-2.021-.759-.459-.495-.689-1.225-.689-2.19v-4.756h-1.415v-1.568h1.415v-1.994l2.18-.256v2.25h2.097l-.222 1.568h-1.875v4.705c0 .443.077.761.23.954.154.193.396.289.725.289.33 0 .688-.107 1.074-.323l.768 1.397zM302.034 109.71v9.016h-2.182v-9.016h2.182zm-1.108-4.566c.408 0 .74.128.996.383.256.256.385.571.385.945 0 .375-.129.689-.385.939-.256.249-.588.374-.996.374-.399 0-.726-.125-.981-.374a1.26 1.26 0 01-.383-.939c0-.374.127-.689.383-.945.255-.255.582-.383.981-.383zM309.497 109.454c1.136 0 1.976.415 2.522 1.245.546.83.82 1.995.82 3.495 0 .931-.14 1.758-.418 2.48-.278.721-.688 1.286-1.227 1.696-.541.408-1.18.613-1.919.613-.953 0-1.709-.33-2.265-.989v4.21l-2.182.237V109.71h1.909l.119 1.108a3.556 3.556 0 011.209-1.022 3.155 3.155 0 011.432-.342zm-.834 7.857c1.26 0 1.891-1.033 1.891-3.1 0-1.103-.142-1.898-.427-2.387-.283-.488-.709-.732-1.277-.732-.364 0-.705.111-1.024.332a2.88 2.88 0 00-.816.893v4.057c.42.625.971.937 1.653.937zM318.837 109.454c1.329 0 2.365.424 3.109 1.272.745.846 1.118 2.008 1.118 3.485 0 .942-.171 1.775-.513 2.497-.34.721-.828 1.28-1.464 1.679-.637.397-1.392.596-2.268.596-1.329 0-2.369-.423-3.119-1.27s-1.125-2.015-1.125-3.502c0-.944.17-1.773.511-2.489a3.868 3.868 0 011.474-1.67c.642-.398 1.401-.598 2.277-.598zm0 1.655c-1.307 0-1.96 1.034-1.96 3.102 0 1.068.161 1.855.485 2.36.324.505.81.757 1.457.757.648 0 1.134-.255 1.458-.766.323-.511.485-1.295.485-2.351 0-1.057-.162-1.839-.485-2.343-.324-.506-.804-.759-1.44-.759zM327.409 118.983c-.693 0-1.236-.202-1.627-.606-.393-.403-.589-.974-.589-1.713v-10.566l2.182-.239v10.737c0 .42.17.63.511.63.17 0 .341-.028.512-.084l.459 1.533a3.48 3.48 0 01-1.448.308zM337.14 116.34c0 .353.054.612.161.776.109.164.282.292.52.383l-.459 1.449c-.511-.045-.929-.17-1.252-.375-.324-.205-.571-.517-.742-.937a2.913 2.913 0 01-1.152 1.015 3.51 3.51 0 01-1.542.332c-.897 0-1.607-.256-2.131-.767-.523-.512-.784-1.182-.784-2.011 0-.978.355-1.725 1.065-2.241.71-.517 1.725-.776 3.043-.776h1.125v-.512c0-.579-.134-.985-.4-1.218-.267-.233-.696-.349-1.287-.349-.659 0-1.454.159-2.386.476l-.511-1.482c1.124-.432 2.215-.649 3.271-.649 2.307 0 3.461 1.034 3.461 3.102v3.784zm-3.886 1.056c.739 0 1.318-.369 1.738-1.108v-1.823h-.903c-1.409 0-2.114.523-2.114 1.569 0 .432.109.767.325 1.006.216.238.534.356.954.356zM344.399 109.471c.33 0 .631.04.903.12l-.373 2.114a3.273 3.273 0 00-.801-.103c-.535 0-.956.191-1.264.571-.306.381-.549.964-.73 1.748v4.806h-2.182v-9.017h1.892l.205 1.773c.214-.648.526-1.145.935-1.492a2.13 2.13 0 011.415-.52zM354.233 114.006c0 .114-.017.409-.051.886h-5.658c.068.876.295 1.5.681 1.875.387.374.898.561 1.535.561.397 0 .771-.065 1.123-.195.353-.13.729-.332 1.127-.606l.903 1.245c-1.001.807-2.114 1.211-3.341 1.211-1.375 0-2.435-.421-3.18-1.262-.744-.841-1.115-1.989-1.115-3.444 0-.919.158-1.745.476-2.478.319-.733.779-1.307 1.381-1.722.603-.415 1.319-.623 2.148-.623 1.261 0 2.238.402 2.931 1.203.693.801 1.04 1.917 1.04 3.349zm-2.165-.632c0-1.578-.585-2.368-1.755-2.368-.534 0-.951.197-1.252.588-.301.393-.48 1.02-.537 1.883h3.544v-.103zM365.618 106.694c.772 0 1.457.116 2.052.349a5.95 5.95 0 011.697 1.032l-1.211 1.26c-.42-.329-.815-.567-1.184-.715-.369-.148-.798-.222-1.286-.222-.91 0-1.654.363-2.233 1.09-.58.728-.869 1.842-.869 3.342 0 1.568.23 2.699.69 3.392.461.692 1.162 1.038 2.105 1.038.715 0 1.34-.153 1.874-.459v-3.068h-1.772l-.239-1.67h4.227v5.76c-1.272.774-2.625 1.16-4.056 1.16-1.681 0-2.969-.523-3.861-1.568-.892-1.045-1.338-2.574-1.338-4.585 0-1.284.242-2.389.725-3.315.483-.926 1.133-1.627 1.95-2.104.818-.478 1.728-.717 2.729-.717zM379.234 114.006c0 .114-.017.409-.052.886h-5.657c.068.876.295 1.5.681 1.875.387.374.898.561 1.535.561.397 0 .771-.065 1.123-.195.353-.13.729-.332 1.127-.606l.903 1.245c-1.001.807-2.114 1.211-3.341 1.211-1.375 0-2.435-.421-3.18-1.262-.744-.841-1.116-1.989-1.116-3.444 0-.919.159-1.745.477-2.478.318-.733.778-1.307 1.381-1.722.603-.415 1.319-.623 2.148-.623 1.26 0 2.238.402 2.931 1.203.693.801 1.04 1.917 1.04 3.349zm-2.165-.632c0-1.578-.585-2.368-1.755-2.368-.534 0-.952.197-1.252.588-.302.393-.48 1.02-.537 1.883h3.544v-.103zM384.211 109.454c1.215 0 2.283.358 3.204 1.074l-.852 1.279c-.773-.488-1.529-.732-2.267-.732-.433 0-.768.082-1.008.246a.763.763 0 00-.356.657c0 .204.051.374.153.51.103.137.287.265.554.385.267.119.662.252 1.184.399.978.262 1.702.609 2.173 1.041.471.432.707 1.034.707 1.807 0 .897-.363 1.598-1.09 2.104-.727.505-1.63.759-2.71.759a5.712 5.712 0 01-2.02-.342 4.906 4.906 0 01-1.575-.937l1.091-1.228c.782.591 1.6.886 2.453.886.488 0 .877-.096 1.167-.288a.914.914 0 00.436-.803c0-.26-.054-.467-.163-.62-.108-.154-.301-.291-.579-.41a12.402 12.402 0 00-1.303-.434c-.921-.251-1.598-.6-2.03-1.048-.432-.448-.647-1.008-.647-1.679 0-.501.144-.949.434-1.347.29-.397.699-.709 1.228-.937.528-.228 1.133-.342 1.816-.342zM397.043 114.006c0 .114-.017.409-.052.886h-5.657c.068.876.295 1.5.681 1.875.387.374.898.561 1.535.561.397 0 .771-.065 1.123-.195.353-.13.729-.332 1.127-.605l.903 1.244c-1.001.807-2.114 1.211-3.341 1.211-1.375 0-2.435-.421-3.18-1.262-.744-.841-1.116-1.989-1.116-3.444 0-.919.159-1.745.477-2.478.318-.733.779-1.307 1.381-1.722.603-.415 1.319-.623 2.148-.623 1.26 0 2.238.402 2.931 1.203.693.801 1.04 1.917 1.04 3.349zm-2.165-.632c0-1.578-.585-2.368-1.755-2.368-.534 0-.952.197-1.252.589-.302.392-.48 1.019-.537 1.882h3.544v-.103zM401.304 118.983c-.693 0-1.236-.202-1.628-.606-.392-.403-.588-.974-.588-1.713v-10.566l2.182-.239v10.737c0 .42.17.63.511.63.17 0 .341-.028.512-.084l.459 1.533a3.48 3.48 0 01-1.448.308zM406.502 118.983c-.693 0-1.236-.202-1.628-.606-.392-.403-.588-.974-.588-1.713v-10.566l2.182-.239v10.737c0 .42.17.63.51.63.171 0 .342-.028.513-.084l.459 1.533a3.483 3.483 0 01-1.448.308zM412.415 109.454c1.216 0 2.284.358 3.205 1.074l-.852 1.279c-.773-.488-1.529-.732-2.267-.732-.433 0-.769.082-1.008.246a.763.763 0 00-.356.657c0 .204.051.374.153.51.103.137.287.265.554.385a9.22 9.22 0 001.184.399c.978.262 1.702.609 2.173 1.041.471.432.707 1.034.707 1.807 0 .897-.364 1.598-1.091 2.104-.726.505-1.629.759-2.709.759a5.718 5.718 0 01-2.021-.342 4.912 4.912 0 01-1.574-.937l1.091-1.228c.782.591 1.6.886 2.453.886.488 0 .877-.095 1.167-.288a.916.916 0 00.436-.803c0-.26-.055-.467-.163-.62-.108-.154-.301-.291-.579-.41a12.402 12.402 0 00-1.303-.434c-.921-.251-1.598-.6-2.03-1.048-.432-.448-.647-1.008-.647-1.679 0-.501.144-.949.434-1.347.289-.397.699-.709 1.228-.937.528-.228 1.133-.342 1.815-.342zM421.481 109.454a4.68 4.68 0 011.594.256c.472.171.918.438 1.338.801l-.972 1.313a3.408 3.408 0 00-.886-.493 2.733 2.733 0 00-.937-.154c-1.352 0-2.028 1.028-2.028 3.083 0 1.047.175 1.8.527 2.26.353.46.853.691 1.501.691.317 0 .61-.052.877-.154.268-.103.583-.268.946-.495l.972 1.381a4.495 4.495 0 01-2.914 1.04c-.865 0-1.615-.191-2.251-.571a3.756 3.756 0 01-1.466-1.628c-.341-.705-.511-1.534-.511-2.49 0-.953.17-1.796.511-2.529.341-.733.83-1.302 1.466-1.705.636-.404 1.381-.606 2.233-.606zM430.974 109.454c.796 0 1.42.245 1.875.735.454.488.681 1.158.681 2.011v6.526h-2.18v-6.187c0-.533-.094-.907-.283-1.123-.187-.216-.462-.324-.825-.324-.364 0-.7.116-1.007.349-.307.233-.601.565-.885.996v6.289h-2.182v-12.611l2.182-.222v4.891c.726-.886 1.601-1.33 2.624-1.33zM442.904 116.34c0 .353.053.612.161.776.109.164.282.292.52.383l-.459 1.449c-.512-.045-.929-.17-1.253-.375-.324-.205-.571-.517-.741-.937a2.92 2.92 0 01-1.152 1.015 3.51 3.51 0 01-1.543.332c-.897 0-1.607-.256-2.13-.767-.523-.512-.784-1.182-.784-2.011 0-.978.355-1.725 1.065-2.241.71-.517 1.725-.776 3.043-.776h1.125v-.512c0-.579-.134-.985-.4-1.218-.267-.233-.696-.349-1.287-.349-.659 0-1.455.159-2.387.476l-.51-1.482c1.124-.432 2.215-.649 3.271-.649 2.307 0 3.461 1.034 3.461 3.102v3.784zm-3.886 1.056c.739 0 1.318-.369 1.738-1.108v-1.823h-.903c-1.409 0-2.114.523-2.114 1.569 0 .432.108.767.325 1.006.216.238.534.356.954.356zM449.362 107.512c-.431 0-.741.1-.929.299-.188.199-.281.514-.281.945v.954h2.165l-.239 1.568h-1.926v7.448h-2.182v-7.448h-1.465v-1.568h1.465v-.988c0-.852.276-1.543.827-2.07.551-.528 1.333-.793 2.343-.793.796 0 1.574.176 2.336.527l-.63 1.467a3.48 3.48 0 00-1.484-.341z"/>
  <path fill="#000" d="M456.964 118.3a3.506 3.506 0 01-1.066.512 4.283 4.283 0 01-1.201.171c-.887-.012-1.56-.265-2.021-.759-.459-.495-.688-1.225-.688-2.19v-4.756h-1.416v-1.568h1.416v-1.994l2.18-.256v2.25h2.096l-.222 1.568h-1.874v4.705c0 .443.076.761.229.954.154.193.396.289.725.289.33 0 .688-.107 1.074-.323l.768 1.397zM461.207 109.454c1.215 0 2.283.358 3.205 1.074l-.852 1.279c-.773-.488-1.529-.732-2.268-.732-.432 0-.768.082-1.007.246a.764.764 0 00-.357.657c0 .204.052.374.154.51.102.137.287.265.554.385a9.22 9.22 0 001.184.399c.977.262 1.702.609 2.172 1.041.472.432.708 1.034.708 1.807 0 .897-.364 1.598-1.091 2.104-.726.505-1.629.759-2.709.759a5.718 5.718 0 01-2.021-.342 4.927 4.927 0 01-1.575-.937l1.091-1.228c.783.591 1.601.886 2.453.886.489 0 .878-.095 1.167-.288a.915.915 0 00.437-.803c0-.26-.055-.467-.163-.62-.108-.154-.301-.291-.579-.41a12.437 12.437 0 00-1.304-.434c-.921-.251-1.597-.6-2.03-1.048-.431-.448-.647-1.008-.647-1.679 0-.501.145-.949.435-1.347.289-.397.698-.709 1.227-.937.529-.228 1.134-.342 1.816-.342zM468.825 105.859v12.867h-2.181v-12.628l2.181-.239zm5.402 3.851l-3 3.972 3.29 5.044h-2.506l-3.102-4.925 3.017-4.091h2.301zM483.124 118.726h-1.893l-.118-1.261c-.33.511-.72.892-1.169 1.142-.449.25-.98.376-1.593.376-.808 0-1.43-.248-1.867-.742-.437-.494-.655-1.179-.655-2.053v-6.478h2.182v6.205c0 .511.088.874.264 1.091.175.215.456.322.842.322.693 0 1.302-.425 1.825-1.277v-6.341h2.182v9.016zM488.049 118.983c-.694 0-1.236-.202-1.628-.606-.392-.403-.588-.974-.588-1.713v-10.566l2.182-.239v10.737c0 .42.17.63.51.63.171 0 .342-.028.512-.084l.46 1.533a3.483 3.483 0 01-1.448.308zM496.281 118.3a3.523 3.523 0 01-1.067.512 4.278 4.278 0 01-1.201.171c-.887-.012-1.56-.265-2.02-.759-.459-.495-.689-1.225-.689-2.19v-4.756h-1.415v-1.568h1.415v-1.994l2.18-.256v2.25h2.096l-.221 1.568h-1.875v4.705c0 .443.076.761.23.954.154.193.395.289.724.289.33 0 .688-.107 1.074-.323l.769 1.397zM504.887 118.726h-1.893l-.118-1.261c-.33.511-.72.892-1.169 1.142-.449.25-.98.376-1.593.376-.808 0-1.43-.248-1.867-.742-.437-.494-.655-1.179-.655-2.053v-6.478h2.182v6.205c0 .511.088.874.264 1.091.175.215.456.322.842.322.693 0 1.302-.425 1.825-1.277v-6.341h2.182v9.016zM512.128 109.471c.331 0 .631.04.904.12l-.374 2.114a3.26 3.26 0 00-.801-.103c-.535 0-.956.191-1.263.571-.307.381-.55.964-.731 1.748v4.806h-2.182v-9.017h1.892l.205 1.773c.215-.648.526-1.145.935-1.492a2.13 2.13 0 011.415-.52zM176.978 17.357c2.16 0 4.139.36 5.939 1.08 1.8.72 3.376 1.67 4.728 2.85l-4.318 4.492c-1.066-.778-2.03-1.34-2.894-1.685-.864-.345-1.843-.518-2.937-.518-2.101 0-3.713.8-4.836 2.397-1.122 1.597-1.683 4.023-1.683 7.276 0 2.447.173 4.37.518 5.766.345 1.396.885 2.382 1.619 2.958.734.575 1.706.863 2.916.863a6.772 6.772 0 003.066-.734v-5.484h-3.025l-.819-6.003h12.393v15.07c-1.584 1.095-3.398 1.944-5.441 2.549-2.045.604-4.017.907-5.916.907-4.923 0-8.566-1.346-10.927-4.038-2.36-2.691-3.54-6.657-3.54-11.898 0-3.31.647-6.16 1.943-8.55 1.296-2.388 3.095-4.202 5.397-5.44 2.304-1.239 4.909-1.858 7.817-1.858zM205.827 24.483c.748 0 1.525.13 2.332.39l-1.34 8.247c-.777-.23-1.483-.345-2.115-.345-1.267 0-2.21.417-2.829 1.252-.618.834-1.115 2.087-1.489 3.756v10.494h-8.551v-23.06h7.471l.691 4.319c.489-1.527 1.266-2.75 2.332-3.672 1.064-.92 2.231-1.38 3.498-1.38zM232.126 36.444c0 .72-.058 1.628-.173 2.72h-13.992c.23 1.556.712 2.6 1.446 3.133.734.533 1.793.799 3.176.799.805 0 1.626-.166 2.46-.497.835-.331 1.756-.843 2.765-1.533l3.455 4.663c-2.793 2.275-5.961 3.412-9.502 3.412-4.088 0-7.183-1.13-9.285-3.389-2.102-2.26-3.152-5.247-3.152-8.96 0-2.304.439-4.399 1.317-6.285.877-1.886 2.18-3.383 3.908-4.49 1.728-1.11 3.815-1.665 6.262-1.665 2.273 0 4.26.476 5.959 1.427 1.699.95 3.016 2.332 3.952 4.146.936 1.813 1.404 3.987 1.404 6.519zm-8.422-2.417c-.028-1.354-.237-2.404-.626-3.152-.389-.748-1.087-1.123-2.095-1.123-.95 0-1.663.332-2.138.994-.474.662-.784 1.856-.928 3.582h5.787v-.301zM250.393 24.352c1.929 0 3.448.605 4.556 1.814 1.108 1.21 1.662 2.908 1.662 5.096v17.015h-8.551V32.818c0-.864-.108-1.454-.325-1.77-.215-.317-.538-.476-.969-.476-.95 0-1.915.762-2.894 2.288v15.417h-8.551v-23.06h7.472l.603 2.374c1.065-1.122 2.152-1.942 3.26-2.46 1.109-.52 2.355-.779 3.737-.779zM278.721 25.218v5.915l-9.456 10.84h9.76l-.734 6.304h-19.002v-5.96l9.587-10.882h-8.724v-6.217h18.569zM303.856 36.444c0 .72-.058 1.628-.173 2.72H289.69c.23 1.556.712 2.6 1.446 3.133.735.533 1.793.799 3.176.799.805 0 1.626-.166 2.461-.497.835-.331 1.756-.843 2.764-1.533l3.455 4.663c-2.793 2.275-5.96 3.412-9.501 3.412-4.089 0-7.184-1.13-9.286-3.389-2.101-2.26-3.151-5.247-3.151-8.96 0-2.304.438-4.399 1.316-6.285.878-1.886 2.181-3.383 3.909-4.49 1.727-1.11 3.814-1.665 6.261-1.665 2.274 0 4.26.476 5.959 1.427 1.699.95 3.016 2.332 3.953 4.146.935 1.813 1.404 3.987 1.404 6.519zm-8.423-2.417c-.028-1.354-.236-2.404-.626-3.152-.388-.748-1.086-1.123-2.094-1.123-.95 0-1.663.332-2.139.994-.474.662-.783 1.856-.927 3.582h5.786v-.301zM322.123 24.352c1.929 0 3.447.605 4.555 1.814 1.108 1.21 1.662 2.908 1.662 5.096v17.015h-8.551V32.818c0-.864-.108-1.454-.324-1.77-.216-.317-.539-.476-.97-.476-.95 0-1.914.762-2.893 2.288v15.417h-8.551v-23.06h7.471l.604 2.374c1.064-1.122 2.151-1.942 3.259-2.46 1.109-.52 2.355-.779 3.738-.779zM352.222 24.352c1.699 0 3.332.267 4.901.801 1.569.533 2.887 1.26 3.952 2.18l-3.023 4.62a11.993 11.993 0 00-2.679-1.23 9.22 9.22 0 00-2.806-.453c-1.295 0-1.942.345-1.942 1.036 0 .288.085.526.258.713.173.186.583.417 1.231.691.647.273 1.691.626 3.13 1.057 2.304.72 4.009 1.634 5.117 2.743 1.109 1.108 1.664 2.67 1.664 4.685 0 1.555-.468 2.936-1.404 4.145-.936 1.21-2.232 2.146-3.887 2.808-1.655.662-3.533.993-5.635.993-2.015 0-3.908-.324-5.679-.972-1.771-.647-3.261-1.546-4.47-2.698l4.06-4.493a11.39 11.39 0 002.829 1.664c1.022.418 2.037.627 3.044.627.777 0 1.375-.122 1.792-.367.418-.245.627-.598.627-1.058 0-.404-.094-.713-.281-.928-.188-.216-.569-.433-1.144-.65-.576-.215-1.584-.539-3.025-.97-4.461-1.325-6.691-3.815-6.691-7.472 0-1.41.395-2.677 1.185-3.8.792-1.124 1.944-2.016 3.455-2.678 1.512-.662 3.319-.994 5.421-.994zM373.685 25.218v23.06h-8.551v-23.06h8.551zm-4.275-12.74c1.382 0 2.526.439 3.433 1.318.907.878 1.36 1.964 1.36 3.26 0 1.295-.453 2.381-1.36 3.259-.907.878-2.051 1.317-3.433 1.317-1.382 0-2.527-.44-3.434-1.317-.907-.878-1.36-1.964-1.36-3.26 0-1.295.453-2.381 1.36-3.26.907-.878 2.052-1.318 3.434-1.318zM393.248 24.352c1.928 0 3.447.605 4.555 1.814 1.108 1.21 1.662 2.908 1.662 5.096v17.015h-8.551V32.818c0-.864-.108-1.454-.324-1.77-.216-.317-.539-.476-.97-.476-.95 0-1.914.762-2.893 2.288v15.417h-8.551v-23.06h7.471l.604 2.374c1.064-1.122 2.151-1.942 3.259-2.46 1.109-.52 2.355-.779 3.738-.779zM426.066 16.148v32.13h-7.6l-.302-2.376c-1.641 2.16-3.814 3.239-6.521 3.239-2.908 0-5.096-1.108-6.565-3.324-1.467-2.217-2.201-5.284-2.201-9.199 0-2.36.403-4.47 1.209-6.327.805-1.857 1.935-3.31 3.389-4.362 1.454-1.051 3.131-1.577 5.031-1.577 1.987 0 3.657.605 5.011 1.814v-10.88l8.549.862zm-11.53 26.86c1.209 0 2.203-.676 2.981-2.03v-9.24c-.404-.432-.807-.755-1.21-.97a2.781 2.781 0 00-1.338-.325c-1.008 0-1.815.496-2.419 1.49-.605.992-.907 2.583-.907 4.77 0 2.535.251 4.218.755 5.053.505.835 1.217 1.253 2.138 1.253zM173.351 80.718h-1.641v10.71h-8.895V61.371h11.012c4.347 0 7.586.77 9.716 2.311 2.13 1.54 3.195 3.952 3.195 7.234 0 1.871-.417 3.426-1.252 4.664-.835 1.237-2.188 2.403-4.058 3.497l7.34 12.351h-9.845l-5.572-10.71zm-1.641-5.96h2.333c1.209 0 2.116-.315 2.721-.948.604-.634.907-1.598.907-2.894 0-2.303-1.354-3.454-4.06-3.454h-1.901v7.296zM212.304 79.595c0 .72-.057 1.628-.172 2.72h-13.993c.23 1.556.712 2.6 1.446 3.133.735.533 1.793.799 3.176.799.805 0 1.626-.166 2.461-.497.835-.331 1.756-.843 2.764-1.533l3.455 4.663c-2.793 2.275-5.96 3.412-9.502 3.412-4.088 0-7.183-1.13-9.285-3.389-2.101-2.26-3.151-5.247-3.151-8.961 0-2.303.438-4.398 1.316-6.284.878-1.886 2.181-3.383 3.909-4.49 1.727-1.11 3.814-1.665 6.261-1.665 2.274 0 4.26.476 5.959 1.427 1.699.95 3.016 2.332 3.952 4.146.936 1.814 1.404 3.987 1.404 6.519zm-8.422-2.417c-.028-1.354-.236-2.404-.626-3.152-.388-.748-1.087-1.123-2.094-1.123-.951 0-1.663.331-2.139.994-.474.662-.783 1.856-.928 3.582h5.787v-.301zM222.539 92.292c-2.333 0-4.125-.655-5.377-1.964-1.253-1.31-1.879-3.16-1.879-5.55V59.3l8.551-.863v25.997c0 .777.346 1.165 1.036 1.165.316 0 .619-.058.907-.173l1.512 6.09c-1.353.518-2.937.777-4.75.777zM249.271 83.957c0 .807.1 1.405.301 1.793.201.388.561.684 1.08.886l-1.729 5.483c-1.554-.115-2.821-.41-3.8-.884-.978-.475-1.783-1.246-2.417-2.311-1.498 2.245-3.815 3.368-6.954 3.368-2.274 0-4.109-.684-5.506-2.051-1.396-1.367-2.094-3.131-2.094-5.29 0-2.562.949-4.52 2.85-5.872 1.901-1.353 4.665-2.03 8.293-2.03h1.641v-.562c0-1.152-.231-1.93-.693-2.332-.46-.403-1.338-.605-2.633-.605-.691 0-1.576.108-2.656.324-1.079.216-2.18.51-3.304.885l-1.857-5.442a24.214 24.214 0 014.599-1.337c1.655-.318 3.16-.477 4.514-.477 3.627 0 6.261.698 7.902 2.095 1.642 1.396 2.463 3.534 2.463 6.413v7.946zm-10.883 2.332c.517 0 .999-.13 1.446-.388.446-.258.813-.59 1.102-.994v-3.411h-.907c-1.21 0-2.102.216-2.679.649-.576.431-.863 1.093-.863 1.984 0 .663.172 1.189.518 1.577.346.388.807.582 1.383.582zM270.129 90.305c-.893.634-1.981 1.123-3.262 1.469-1.281.345-2.498.518-3.648.518-2.851-.03-4.961-.829-6.328-2.397-1.367-1.568-2.051-3.893-2.051-6.974v-8.766h-2.764v-5.787h2.764V63.53l8.551-.992v5.83h5.182l-.863 5.787h-4.319v8.68c0 1.007.158 1.72.475 2.137.317.417.763.626 1.339.626.72 0 1.439-.201 2.159-.603l2.765 5.31zM280.709 68.368v23.06h-8.551v-23.06h8.551zm-4.275-12.74c1.381 0 2.525.44 3.432 1.319.907.878 1.361 1.964 1.361 3.26 0 1.295-.454 2.381-1.361 3.259-.907.878-2.051 1.316-3.432 1.316-1.382 0-2.527-.438-3.434-1.316-.907-.878-1.36-1.964-1.36-3.26 0-1.295.453-2.381 1.36-3.26.907-.878 2.052-1.318 3.434-1.318zM306.749 68.368l-6.866 23.06h-10.105l-7.039-23.06h9.283l2.894 16.885 3.196-16.885h8.637zM340.865 79.595c0 .72-.058 1.628-.173 2.72h-13.993c.23 1.556.712 2.6 1.446 3.133.735.533 1.794.799 3.176.799.806 0 1.626-.166 2.461-.497.835-.331 1.756-.843 2.764-1.533l3.455 4.663c-2.792 2.275-5.96 3.412-9.501 3.412-4.089 0-7.184-1.13-9.286-3.389-2.101-2.26-3.151-5.247-3.151-8.961 0-2.303.439-4.398 1.317-6.284.877-1.886 2.18-3.383 3.908-4.49 1.728-1.11 3.815-1.665 6.261-1.665 2.274 0 4.261.476 5.96 1.427 1.698.95 3.015 2.332 3.952 4.146.936 1.814 1.404 3.987 1.404 6.519zm-8.422-2.417c-.028-1.354-.237-2.404-.627-3.152-.388-.748-1.086-1.123-2.094-1.123-.95 0-1.663.331-2.138.994-.475.662-.784 1.856-.928 3.582h5.787v-.301zM347.428 83.395c1.238 0 2.289.44 3.153 1.319.864.878 1.296 1.921 1.296 3.13 0 1.21-.432 2.253-1.296 3.13-.864.878-1.915 1.318-3.153 1.318-1.237 0-2.288-.44-3.152-1.317-.864-.878-1.296-1.921-1.296-3.13 0-1.21.432-2.253 1.296-3.131.864-.88 1.915-1.319 3.152-1.319zM379.558 61.371l-7.6 30.057h-11.489l-8.075-30.057h9.371l4.578 23.882 4.102-23.882h9.113zM384.523 83.395c1.238 0 2.289.44 3.153 1.319.864.878 1.296 1.921 1.296 3.13 0 1.21-.432 2.253-1.296 3.13-.864.878-1.915 1.318-3.153 1.318-1.237 0-2.288-.44-3.151-1.317-.865-.878-1.296-1.921-1.296-3.13 0-1.21.431-2.253 1.296-3.131.863-.88 1.914-1.319 3.151-1.319z"/>
  <g>
    <mask id="a" width="137" height="132" x="0" y="0" maskUnits="userSpaceOnUse" style="mask-type:alpha">
      <ellipse cx="68.645" cy="66.2" fill="#C4C4C4" rx="67.668" ry="65.214"/>
    </mask>
    <g mask="url(#a)">
      <path fill="url(#paint0_linear_6_300)" d="M136.537 131.951V-5.513H-.927v137.464h137.464z"/>
      <path fill="#4F93DD" d="M128.36 61.3l.445.28c-.064.104-6.667 10.52-19.552 20.26-11.894 8.993-31.713 19.255-58.696 16.997-14.933-1.241-23.648-7.33-32.072-13.214C4.11 75.579-9.472 66.09-52.1 82.127l-.186-.493C-9.404 65.5 4.29 75.063 18.786 85.19c8.37 5.847 17.024 11.894 31.817 13.122 26.775 2.229 46.513-7.957 58.334-16.893 12.807-9.683 19.358-20.013 19.423-20.118z"/>
      <path fill="#4F93DD" d="M128.126 58.448l.449.28c-.177.282-18.04 28.348-50.308 36.325-8.251 2.037-17.038 2.201-27.66.52-12.415-1.967-20.352-7.302-28.032-12.462-3.734-2.51-7.263-4.88-11.273-6.885-11.909-5.956-27.857-9.616-63.604 3.832l-.185-.493c35.934-13.516 52.013-9.82 64.023-3.811 4.04 2.02 7.584 4.4 11.332 6.92 7.632 5.13 15.52 10.43 27.82 12.379 10.55 1.67 19.269 1.51 27.45-.512 32.06-7.924 49.813-35.81 49.988-36.093z"/>
      <path fill="#4F93DD" d="M127.896 55.595l.449.28c-.187.3-19.039 29.98-50.586 37.61-9.774 2.367-18.803.834-27.103-1.175-10.201-2.47-17.27-7.24-24.11-11.851-4.791-3.235-9.32-6.288-14.792-8.544-16.088-6.63-35.302-4.814-64.254 6.076l-.186-.493c29.08-10.939 48.411-12.757 64.64-6.07 5.521 2.276 10.069 5.346 14.888 8.594 6.799 4.587 13.827 9.33 23.936 11.775 8.237 1.993 17.188 3.515 26.857 1.176 31.34-7.582 50.075-37.08 50.261-37.378z"/>
      <path fill="#4F93DD" d="M127.666 52.743l.449.28c-.198.314-20.04 31.599-50.862 38.892-9.74 2.308-17.789.062-26.553-2.873-8.27-2.77-14.424-7.092-20.373-11.272-5.72-4.014-11.119-7.808-18.123-10.168-15.805-5.332-35.219-2.846-64.9 8.32l-.186-.493c29.804-11.208 49.322-13.696 65.255-8.326 7.073 2.385 12.506 6.199 18.255 10.235 5.92 4.157 12.042 8.455 20.24 11.202 8.687 2.91 16.662 5.133 26.26 2.861 30.616-7.243 50.342-38.345 50.538-38.658z"/>
      <path fill="#4F93DD" d="M127.434 49.89l.449.28c-.208.331-21.05 33.204-51.14 40.178-10.212 2.364-17.876-1.007-25.996-4.574-6.612-2.905-11.846-6.847-16.91-10.659-6.48-4.877-12.605-9.485-21.181-11.826-19.075-5.203-42.782 2.004-65.55 10.567l-.186-.493c22.85-8.597 46.646-15.825 65.875-10.581 8.673 2.366 14.835 7.003 21.358 11.912 5.04 3.792 10.25 7.715 16.809 10.597 8.036 3.532 15.634 6.869 25.663 4.545 29.881-6.925 50.605-39.615 50.809-39.946z"/>
      <path fill="#4F93DD" d="M127.205 47.037l.448.28c-.219.348-22.06 34.802-51.418 41.464-10.08 2.283-16.965-1.553-24.932-5.999l-.506-.282c-5.207-2.901-9.56-6.498-13.77-9.974-7.067-5.836-13.742-11.347-23.92-13.552-18.837-4.078-42.063 3.734-66.197 12.813l-.186-.493c24.21-9.106 47.513-16.94 66.495-12.833 10.304 2.23 17.026 7.782 24.143 13.658 4.191 3.462 8.527 7.042 13.69 9.92l.508.282c7.875 4.392 14.676 8.181 24.559 5.944 29.148-6.612 50.87-40.882 51.086-41.228z"/>
      <path fill="#4F93DD" d="M126.975 44.184l.449.28c-.228.363-23.07 36.39-51.695 42.749-10.156 2.256-16.438-2.115-23.713-7.174l-1.175-.813c-4.037-2.792-7.576-6.057-10.996-9.213-7.456-6.882-14.5-13.381-26.293-15.353-18.795-3.135-41.884 5.608-62.26 13.328-1.536.584-3.067 1.16-4.583 1.732l-.185-.493c1.515-.571 3.042-1.148 4.581-1.732C-28.458 59.752-5.298 50.97 13.638 54.14c11.947 1.998 19.048 8.55 26.564 15.484 3.408 3.145 6.931 6.396 10.94 9.167l1.173.815c7.178 4.99 13.39 9.294 23.298 7.092 28.412-6.312 51.136-42.152 51.362-42.515z"/>
      <path fill="#4F93DD" d="M126.745 41.334l.445.28c-.236.379-24.082 37.966-51.97 44.031-10.342 2.257-16.144-2.707-22.863-8.444-.483-.413-.972-.83-1.467-1.249-3.084-2.608-5.897-5.548-8.614-8.39-7.653-8.002-14.882-15.559-28.277-17.215-18.04-2.229-39.017 6.083-57.518 13.419-3.491 1.386-6.79 2.694-9.967 3.89l-.186-.494c3.17-1.193 6.468-2.5 9.96-3.883 18.558-7.362 39.59-15.703 57.776-13.453 13.581 1.68 21.215 9.658 28.594 17.376 2.709 2.832 5.508 5.758 8.574 8.352.495.419.986.836 1.47 1.251 6.61 5.647 12.326 10.518 22.407 8.33 27.674-6.025 51.4-43.424 51.636-43.801z"/>
      <path fill="#4F93DD" d="M126.515 38.48l.445.28c-.247.395-25.098 39.537-52.245 45.316-10.623 2.269-16-3.333-22.23-9.807-.505-.527-1.02-1.06-1.542-1.596-2.32-2.378-4.5-4.99-6.607-7.517-7.33-8.779-14.905-17.858-29.89-19.128C-3.52 44.5-24.438 53.368-41.24 60.49c-4.474 1.897-8.698 3.687-12.443 5.097l-.185-.493c3.733-1.405 7.954-3.194 12.423-5.088C-24.59 52.86-3.617 43.97 14.492 45.503c15.202 1.29 22.85 10.452 30.248 19.316 2.102 2.518 4.276 5.122 6.582 7.486.523.537 1.038 1.072 1.543 1.599 6.122 6.362 11.425 11.85 21.74 9.658 26.928-5.733 51.663-44.69 51.91-45.083z"/>
      <path fill="#4F93DD" d="M126.284 35.629l.444.28c-.257.41-26.116 41.098-52.523 46.602-10.944 2.277-15.95-3.997-21.738-11.272-.483-.609-.974-1.224-1.474-1.844-1.71-2.12-3.358-4.403-4.952-6.613-7.176-9.953-14.6-20.243-31.15-21.069-18.327-.904-39.778 8.879-55.457 16.03-5.143 2.346-9.59 4.373-13.317 5.776l-.185-.493c3.712-1.397 8.148-3.42 13.285-5.762 15.727-7.174 37.286-16.996 55.699-16.078 16.808.839 24.303 11.236 31.555 21.288 1.59 2.204 3.232 4.482 4.936 6.59.5.622.99 1.237 1.473 1.846 5.911 7.431 10.57 13.307 21.217 11.085 26.19-5.46 51.929-45.958 52.187-46.367z"/>
      <path fill="#4F93DD" d="M126.053 32.773l.445.28c-.268.426-27.132 42.659-52.8 47.888-11.363 2.313-15.98-4.711-21.336-12.843-.43-.653-.867-1.318-1.312-1.983-1.23-1.841-2.439-3.799-3.607-5.693-6.885-11.158-14.005-22.695-32.107-23.03a42.38 42.38 0 00-.922-.009c-18.723 0-39.828 10.37-55.304 17.976-5.26 2.585-9.801 4.816-13.189 6.091l-.186-.493c3.363-1.264 7.894-3.49 13.141-6.07C-25.599 47.258-4.431 36.86 14.414 36.86c.31 0 .62.002.928.008 18.394.34 25.591 12 32.548 23.281 1.166 1.888 2.372 3.843 3.594 5.676.447.668.886 1.332 1.316 1.987 5.469 8.299 9.778 14.862 20.79 12.616 25.451-5.185 52.196-47.23 52.463-47.654z"/>
      <path fill="#4F93DD" d="M125.824 29.921l.444.282c-.278.44-28.152 44.209-53.077 49.17-11.798 2.352-16.054-5.475-20.99-14.535-.36-.66-.725-1.33-1.096-2.003a243.17 243.17 0 01-2.534-4.764c-6.417-12.292-13.052-24.998-32.35-24.998-.148 0-.297 0-.447.002-19.845.2-42.628 12.245-57.702 20.213-5.303 2.804-9.49 5.017-12.35 6.093l-.185-.493c2.83-1.064 7.004-3.27 12.289-6.063 15.12-7.994 37.97-20.075 57.944-20.277l.455-.002c19.615 0 26.32 12.85 32.812 25.28.824 1.576 1.676 3.207 2.528 4.753.373.675.738 1.345 1.098 2.008 5.032 9.243 9.004 16.547 20.424 14.27 24.706-4.92 52.458-48.496 52.737-48.936z"/>
      <path fill="#4F93DD" d="M125.592 27.068l.444.283c-.286.454-29.17 45.752-53.353 50.455C60.4 80.199 56.513 71.502 52.01 61.44c-.278-.624-.56-1.252-.845-1.886-.567-1.254-1.123-2.535-1.688-3.826C43.684 42.45 37.697 28.73 17.84 28.73c-.531 0-1.071.01-1.621.03-21 .756-45.255 14.533-59.745 22.765-4.867 2.764-8.712 4.949-10.95 5.792l-.185-.494c2.2-.827 6.027-3.002 10.874-5.753 14.534-8.255 38.858-22.072 59.984-22.835a45.42 45.42 0 011.592-.03c20.256-.001 26.574 14.49 32.17 27.314.564 1.29 1.12 2.569 1.688 3.822.287.634.569 1.264.846 1.888 4.589 10.265 8.196 18.368 20.088 16.065 23.962-4.663 52.724-49.77 53.011-50.226z"/>
      <path fill="#4F93DD" d="M19.31 23.832c20.85-.002 26.426 15.57 31.372 29.374.347.971.693 1.936 1.04 2.89l.593 1.63c3.966 10.917 7.406 20.343 19.76 17.996 23.215-4.407 52.988-51.037 53.287-51.507l.445.283c-.299.472-30.192 47.293-53.63 51.74-12.797 2.421-16.31-7.19-20.355-18.334l-.59-1.626c-.35-.954-.696-1.92-1.044-2.893-5.09-14.202-10.882-30.313-33.522-28.944-22.44 1.342-48.343 17.148-62.26 25.638-4.349 2.655-7.49 4.57-9.075 5.169l-.188-.495c1.537-.578 4.661-2.485 8.987-5.124 13.954-8.516 39.932-24.366 62.5-25.717.919-.055 1.815-.08 2.68-.08z"/>
      <path fill="#4F93DD" d="M20.775 19.44c21.408 0 26.203 16.658 30.457 31.449l.919 3.177c3.491 12.06 6.502 22.471 19.423 20.084 22.469-4.152 53.248-52.303 53.558-52.787l.445.282c-.31.487-31.216 48.829-53.91 53.026-13.402 2.473-16.466-8.154-20.025-20.458l-.918-3.177c-4.436-15.414-9.45-32.878-33.624-30.914-24.263 1.983-51.944 20.167-65.245 28.906-3.478 2.284-5.776 3.794-6.725 4.153l-.185-.493c.896-.338 3.295-1.915 6.622-4.098C-35.095 39.827-7.338 21.592 17.06 19.6c1.29-.11 2.527-.16 3.715-.16z"/>
      <path fill="#4F93DD" d="M22.149 15.032c21.989-.003 25.958 17.763 29.492 33.551l.369 1.652c2.98 13.295 5.573 24.781 19.056 22.346 21.724-3.906 53.516-53.57 53.834-54.07l.445.281c-.318.504-32.236 50.361-54.184 54.31-14.014 2.515-16.626-9.193-19.664-22.75l-.37-1.652C47.402 32.068 43.16 13.222 17.54 15.8c-26.766 2.752-58.379 25.294-68.765 32.701-2.396 1.707-3.469 2.468-3.844 2.609l-.185-.493c.327-.123 1.751-1.138 3.723-2.545 10.414-7.427 42.113-30.028 69.018-32.796a47.23 47.23 0 014.66-.244z"/>
      <path fill="#4F93DD" d="M23.557 10.603c22.457 0 25.585 18.863 28.368 35.65 1.642 9.905 3.194 19.26 8.663 23.134 2.567 1.816 5.833 2.351 9.972 1.624 20.976-3.666 53.78-54.842 54.108-55.358l.445.282c-.329.519-33.257 51.888-54.463 55.594-4.284.75-7.68.19-10.368-1.712-5.65-4.003-7.218-13.463-8.88-23.48C48.44 28.471 45.1 8.214 17.98 11.481c-32.915 3.963-72.773 37.178-73.171 37.515l-.337-.402c.398-.337 40.373-33.653 73.447-37.633a47.051 47.051 0 015.64-.358z"/>
      <path fill="#fff" d="M1.364 80.208c9.527 0 14.625-12.645 20.023-26.033 5.729-14.21 11.652-28.902 24.273-28.902 12.636 0 18.273 17.737 24.16 36.68 5.2 4.953 10.248 9.53 20.144 9.53 10.05 0 15.105-5.608 20.457-11.544 1.953-2.166 3.976-4.398 6.274-6.389l.045-.06a34.729 34.729 0 013.696-4.347v.001c.17-.168.37-.303.583-.414 3.496-4.329 7.724-7.125 13.227-7.125a2.29 2.29 0 110 4.58c-9.525 0-14.622 12.646-20.02 26.034-5.727 14.209-11.65 28.902-24.27 28.902-12.634 0-18.27-17.731-24.158-36.671-5.201-4.957-10.25-9.538-20.13-9.538-10.054 0-15.105 5.598-20.452 11.526-1.961 2.173-3.993 4.413-6.3 6.408l-.044.058a34.887 34.887 0 01-3.696 4.348l-.002-.001a2.352 2.352 0 01-.58.411C11.1 81.993 6.87 84.79 1.367 84.79a2.29 2.29 0 11-.002-4.582zM45.66 29.854c-7.482 0-12.23 7.81-16.54 17.643 4.124-5.247 9.203-9.036 16.548-9.036 5.54 0 9.788 2.374 13.305 6.026-3.555-8.497-7.722-14.633-13.313-14.633zm44.304 46.21c-6.382 0-11.047-1.619-14.9-3.963 3.864 6.48 8.313 11.252 14.9 11.252 7.91 0 12.73-6.08 17.137-13.581-4.253 3.553-9.543 6.291-17.137 6.291zm-.009 20.477c7.475 0 12.221-7.796 16.527-17.617-4.115 5.234-9.186 9.01-16.518 9.01-5.547 0-9.8-2.372-13.32-6.021C80.2 90.406 84.367 96.54 89.956 96.54zM45.668 50.33c6.369 0 11.028 1.618 14.878 3.96-3.862-6.477-8.306-11.249-14.878-11.249-7.913 0-12.741 6.082-17.155 13.588 4.254-3.556 9.547-6.299 17.155-6.299z"/>
    </g>
  </g>
  <defs>
    <linearGradient id="paint0_linear_6_300" x1="136.537" x2="-55.53" y1="63.219" y2="63.219" gradientUnits="userSpaceOnUse">
      <stop stop-color="#4F93DD"/>
      <stop offset=".004" stop-color="#4F92DC"/>
      <stop offset=".008" stop-color="#4E92DC"/>
      <stop offset=".012" stop-color="#4E91DB"/>
      <stop offset=".016" stop-color="#4E91DA"/>
      <stop offset=".02" stop-color="#4D90D9"/>
      <stop offset=".023" stop-color="#4D8FD9"/>
      <stop offset=".027" stop-color="#4D8FD8"/>
      <stop offset=".031" stop-color="#4C8ED7"/>
      <stop offset=".035" stop-color="#4C8ED6"/>
      <stop offset=".039" stop-color="#4C8DD6"/>
      <stop offset=".043" stop-color="#4B8DD5"/>
      <stop offset=".047" stop-color="#4B8CD4"/>
      <stop offset=".051" stop-color="#4B8BD3"/>
      <stop offset=".055" stop-color="#4A8BD3"/>
      <stop offset=".059" stop-color="#4A8AD2"/>
      <stop offset=".063" stop-color="#4A8AD1"/>
      <stop offset=".066" stop-color="#4A89D0"/>
      <stop offset=".07" stop-color="#4989D0"/>
      <stop offset=".074" stop-color="#4988CF"/>
      <stop offset=".078" stop-color="#4987CE"/>
      <stop offset=".082" stop-color="#4887CD"/>
      <stop offset=".086" stop-color="#4886CD"/>
      <stop offset=".09" stop-color="#4886CC"/>
      <stop offset=".094" stop-color="#4785CB"/>
      <stop offset=".098" stop-color="#4785CA"/>
      <stop offset=".102" stop-color="#4784CA"/>
      <stop offset=".105" stop-color="#4683C9"/>
      <stop offset=".109" stop-color="#4683C8"/>
      <stop offset=".113" stop-color="#4682C7"/>
      <stop offset=".117" stop-color="#4582C7"/>
      <stop offset=".121" stop-color="#4581C6"/>
      <stop offset=".125" stop-color="#4581C5"/>
      <stop offset=".129" stop-color="#4480C4"/>
      <stop offset=".133" stop-color="#447FC4"/>
      <stop offset=".137" stop-color="#447FC3"/>
      <stop offset=".141" stop-color="#437EC2"/>
      <stop offset=".145" stop-color="#437EC1"/>
      <stop offset=".148" stop-color="#437DC1"/>
      <stop offset=".152" stop-color="#427DC0"/>
      <stop offset=".156" stop-color="#427CBF"/>
      <stop offset=".16" stop-color="#427BBE"/>
      <stop offset=".164" stop-color="#417BBE"/>
      <stop offset=".168" stop-color="#417ABD"/>
      <stop offset=".172" stop-color="#417ABC"/>
      <stop offset=".176" stop-color="#4079BB"/>
      <stop offset=".18" stop-color="#4079BB"/>
      <stop offset=".184" stop-color="#4078BA"/>
      <stop offset=".188" stop-color="#3F77B9"/>
      <stop offset=".191" stop-color="#3F77B8"/>
      <stop offset=".195" stop-color="#3F76B8"/>
      <stop offset=".199" stop-color="#3E76B7"/>
      <stop offset=".203" stop-color="#3E75B6"/>
      <stop offset=".207" stop-color="#3E75B5"/>
      <stop offset=".211" stop-color="#3D74B5"/>
      <stop offset=".215" stop-color="#3D73B4"/>
      <stop offset=".219" stop-color="#3D73B3"/>
      <stop offset=".223" stop-color="#3C72B2"/>
      <stop offset=".227" stop-color="#3C72B2"/>
      <stop offset=".23" stop-color="#3C71B1"/>
      <stop offset=".234" stop-color="#3B71B0"/>
      <stop offset=".238" stop-color="#3B70AF"/>
      <stop offset=".242" stop-color="#3B6FAE"/>
      <stop offset=".246" stop-color="#3A6FAE"/>
      <stop offset=".25" stop-color="#3A6EAD"/>
      <stop offset=".254" stop-color="#3A6EAC"/>
      <stop offset=".258" stop-color="#3A6DAB"/>
      <stop offset=".262" stop-color="#396DAB"/>
      <stop offset=".266" stop-color="#396CAA"/>
      <stop offset=".27" stop-color="#396BA9"/>
      <stop offset=".273" stop-color="#386BA8"/>
      <stop offset=".277" stop-color="#386AA8"/>
      <stop offset=".281" stop-color="#386AA7"/>
      <stop offset=".285" stop-color="#3769A6"/>
      <stop offset=".289" stop-color="#3769A5"/>
      <stop offset=".293" stop-color="#3768A5"/>
      <stop offset=".297" stop-color="#3667A4"/>
      <stop offset=".301" stop-color="#3667A3"/>
      <stop offset=".305" stop-color="#3666A2"/>
      <stop offset=".309" stop-color="#3566A2"/>
      <stop offset=".313" stop-color="#3565A1"/>
      <stop offset=".316" stop-color="#3565A0"/>
      <stop offset=".32" stop-color="#34649F"/>
      <stop offset=".324" stop-color="#34639F"/>
      <stop offset=".328" stop-color="#34639E"/>
      <stop offset=".332" stop-color="#33629D"/>
      <stop offset=".336" stop-color="#33629C"/>
      <stop offset=".34" stop-color="#33619C"/>
      <stop offset=".344" stop-color="#32619B"/>
      <stop offset=".348" stop-color="#32609A"/>
      <stop offset=".352" stop-color="#325F99"/>
      <stop offset=".355" stop-color="#315F99"/>
      <stop offset=".359" stop-color="#315E98"/>
      <stop offset=".363" stop-color="#315E97"/>
      <stop offset=".367" stop-color="#305D96"/>
      <stop offset=".371" stop-color="#305D96"/>
      <stop offset=".375" stop-color="#305C95"/>
      <stop offset=".379" stop-color="#2F5B94"/>
      <stop offset=".383" stop-color="#2F5B93"/>
      <stop offset=".387" stop-color="#2F5A93"/>
      <stop offset=".391" stop-color="#2E5A92"/>
      <stop offset=".395" stop-color="#2E5991"/>
      <stop offset=".398" stop-color="#2E5990"/>
      <stop offset=".402" stop-color="#2D5890"/>
      <stop offset=".406" stop-color="#2D578F"/>
      <stop offset=".41" stop-color="#2D578E"/>
      <stop offset=".414" stop-color="#2C568D"/>
      <stop offset=".418" stop-color="#2C568D"/>
      <stop offset=".422" stop-color="#2C558C"/>
      <stop offset=".426" stop-color="#2B558B"/>
      <stop offset=".43" stop-color="#2B548A"/>
      <stop offset=".434" stop-color="#2B538A"/>
      <stop offset=".438" stop-color="#2B5389"/>
      <stop offset=".441" stop-color="#2A5288"/>
      <stop offset=".445" stop-color="#2A5287"/>
      <stop offset=".449" stop-color="#2A5187"/>
      <stop offset=".453" stop-color="#295186"/>
      <stop offset=".457" stop-color="#295085"/>
      <stop offset=".461" stop-color="#295084"/>
      <stop offset=".465" stop-color="#284F84"/>
      <stop offset=".469" stop-color="#284E83"/>
      <stop offset=".473" stop-color="#284E82"/>
      <stop offset=".477" stop-color="#274D81"/>
      <stop offset=".48" stop-color="#274D81"/>
      <stop offset=".484" stop-color="#274C80"/>
      <stop offset=".488" stop-color="#264C7F"/>
      <stop offset=".492" stop-color="#264B7E"/>
      <stop offset=".496" stop-color="#264A7E"/>
      <stop offset=".5" stop-color="#254A7D"/>
      <stop offset=".504" stop-color="#25497C"/>
      <stop offset=".508" stop-color="#25497B"/>
      <stop offset=".512" stop-color="#24487B"/>
      <stop offset=".516" stop-color="#24487A"/>
      <stop offset=".52" stop-color="#244779"/>
      <stop offset=".523" stop-color="#234678"/>
      <stop offset=".527" stop-color="#234678"/>
      <stop offset=".531" stop-color="#234577"/>
      <stop offset=".535" stop-color="#224576"/>
      <stop offset=".539" stop-color="#224475"/>
      <stop offset=".543" stop-color="#224475"/>
      <stop offset=".547" stop-color="#214374"/>
      <stop offset=".551" stop-color="#214273"/>
      <stop offset=".555" stop-color="#214272"/>
      <stop offset=".559" stop-color="#204172"/>
      <stop offset=".563" stop-color="#204171"/>
      <stop offset=".566" stop-color="#204070"/>
      <stop offset=".57" stop-color="#1F406F"/>
      <stop offset=".574" stop-color="#1F3F6F"/>
      <stop offset=".578" stop-color="#1F3E6E"/>
      <stop offset=".582" stop-color="#1E3E6D"/>
      <stop offset=".586" stop-color="#1E3D6C"/>
      <stop offset=".59" stop-color="#1E3D6C"/>
      <stop offset=".594" stop-color="#1D3C6B"/>
      <stop offset=".598" stop-color="#1D3C6A"/>
      <stop offset=".602" stop-color="#1D3B69"/>
      <stop offset=".605" stop-color="#1C3A69"/>
      <stop offset=".609" stop-color="#1C3A68"/>
      <stop offset=".613" stop-color="#1C3967"/>
      <stop offset=".617" stop-color="#1B3966"/>
      <stop offset=".621" stop-color="#1B3866"/>
      <stop offset=".625" stop-color="#1B3865"/>
      <stop offset=".629" stop-color="#1B3764"/>
      <stop offset=".633" stop-color="#1A3663"/>
      <stop offset=".641" stop-color="#1A3663"/>
      <stop offset=".656" stop-color="#1A3663"/>
      <stop offset=".688" stop-color="#1A3663"/>
      <stop offset=".75" stop-color="#1A3663"/>
      <stop offset="1" stop-color="#1B3663"/>
    </linearGradient>
  </defs>
</svg>
