<svg xmlns="http://www.w3.org/2000/svg" width="2000" height="858" fill="none" viewBox="0 0 2000 858">
  <path fill="#262626" d="M733.504 587.902l-1.991-7.339h-10.511l-1.991 7.339h-6.282l9.859-31.72h7.464l9.827 31.72h-6.375zm-11.289-11.942h8.085l-4.042-15.145-4.043 15.145zM749.592 553.259v34.644h-5.877v-34.022l5.877-.622zm14.554 10.356l-8.085 10.698 8.863 13.59h-6.749l-8.365-13.248 8.117-11.009h6.219v-.031zM782.592 586.752c-.87.622-1.803 1.058-2.861 1.369a11.45 11.45 0 01-3.234.466c-2.394-.031-4.198-.715-5.442-2.052-1.244-1.338-1.866-3.297-1.866-5.909v-12.813h-3.794v-4.229h3.794v-5.38l5.878-.684v6.064h5.628l-.591 4.229h-5.037v12.657c0 1.182.217 2.053.622 2.582.404.528 1.057.777 1.959.777.87 0 1.835-.28 2.892-.871l2.052 3.794zM792.238 563.614v24.288h-5.878v-24.288h5.878zm-2.986-12.283c1.089 0 1.991.342 2.675 1.026.684.684 1.026 1.524 1.026 2.55 0 .995-.342 1.835-1.026 2.519-.684.684-1.586.995-2.675.995-1.057 0-1.959-.342-2.643-.995-.684-.684-1.026-1.524-1.026-2.519 0-.995.342-1.866 1.026-2.55.684-.684 1.586-1.026 2.643-1.026zM809.69 562.931c3.577 0 6.376 1.15 8.366 3.42 1.99 2.271 3.017 5.412 3.017 9.392 0 2.55-.467 4.789-1.369 6.717-.902 1.929-2.239 3.452-3.949 4.51-1.711 1.057-3.732 1.617-6.096 1.617-3.576 0-6.375-1.151-8.396-3.421-2.022-2.27-3.017-5.411-3.017-9.423 0-2.55.467-4.758 1.368-6.686.933-1.928 2.24-3.421 3.981-4.509 1.679-1.089 3.732-1.617 6.095-1.617zm0 4.447c-3.514 0-5.286 2.799-5.286 8.365 0 2.861.435 5.007 1.306 6.344.871 1.369 2.177 2.053 3.918 2.053 1.742 0 3.048-.684 3.919-2.053.871-1.368 1.306-3.483 1.306-6.344s-.435-4.944-1.306-6.313c-.871-1.368-2.146-2.052-3.857-2.052zM839.964 562.931c2.177 0 3.857.653 5.069 1.959 1.213 1.306 1.804 3.11 1.804 5.442v17.571h-5.878v-16.669c0-1.431-.248-2.457-.746-3.048-.497-.591-1.244-.87-2.208-.87-.995 0-1.928.31-2.737.932-.808.622-1.586 1.524-2.363 2.737v16.918h-5.878v-24.288h5.101l.466 3.172c1.99-2.581 4.447-3.856 7.37-3.856zM861.831 562.931c3.265 0 6.157.964 8.645 2.892l-2.301 3.452c-2.084-1.306-4.105-1.991-6.095-1.991-1.151 0-2.053.218-2.706.654-.653.435-.964 1.026-.964 1.772 0 .56.124.995.404 1.368.28.374.778.716 1.493 1.027.715.311 1.773.684 3.203 1.088 2.644.715 4.572 1.648 5.847 2.799 1.275 1.151 1.897 2.799 1.897 4.851 0 2.426-.995 4.323-2.955 5.66-1.959 1.369-4.384 2.053-7.308 2.053-1.99 0-3.794-.311-5.442-.902-1.648-.622-3.048-1.462-4.26-2.519l2.954-3.296c2.115 1.586 4.323 2.394 6.593 2.394 1.306 0 2.363-.249 3.141-.777.777-.529 1.181-1.244 1.181-2.146 0-.715-.155-1.275-.435-1.679-.28-.405-.808-.778-1.555-1.089-.746-.311-1.928-.715-3.514-1.182-2.488-.684-4.292-1.617-5.473-2.83-1.151-1.212-1.742-2.705-1.742-4.509 0-1.337.404-2.55 1.182-3.607.777-1.058 1.897-1.928 3.296-2.519 1.431-.653 3.048-.964 4.914-.964zM889.041 562.93c2.83 0 5.007 1.12 6.624 3.39 1.586 2.239 2.394 5.38 2.394 9.423 0 2.519-.404 4.727-1.182 6.686-.777 1.928-1.897 3.452-3.327 4.54-1.431 1.089-3.141 1.618-5.1 1.618a8.188 8.188 0 01-3.608-.809c-1.088-.56-2.021-1.337-2.83-2.332l-.373 2.488h-5.193v-34.053l5.877-.653v13.123c.809-1.088 1.773-1.959 2.924-2.55a8.601 8.601 0 013.794-.871zm-2.208 21.241c1.586 0 2.83-.685 3.732-2.053.901-1.368 1.337-3.483 1.337-6.406 0-3.048-.405-5.225-1.244-6.5-.84-1.275-1.991-1.897-3.483-1.897-1.866 0-3.483 1.089-4.82 3.297v10.76c.528.902 1.181 1.586 1.959 2.052a4.436 4.436 0 002.519.747zM923.677 587.903h-5.069l-.311-3.389c-.87 1.368-1.928 2.394-3.141 3.078-1.212.684-2.643.995-4.291.995-2.177 0-3.857-.653-5.007-1.99-1.182-1.337-1.773-3.172-1.773-5.535v-17.447h5.878v16.7c0 1.369.249 2.364.715 2.955.467.59 1.244.87 2.27.87 1.866 0 3.514-1.15 4.914-3.452v-17.073h5.878v24.288h-.063zm-14.896-36.043c.871 0 1.648.311 2.239.933.622.622.933 1.368.933 2.239 0 .871-.311 1.648-.933 2.239a3.053 3.053 0 01-2.239.933 3.264 3.264 0 01-2.332-.933 3.053 3.053 0 01-.933-2.239c0-.902.311-1.648.933-2.239.622-.622 1.399-.933 2.332-.933zm10.138 0c.902 0 1.68.311 2.302.933.622.622.933 1.368.933 2.239 0 .871-.311 1.648-.933 2.239-.622.622-1.369.933-2.302.933-.902 0-1.648-.311-2.27-.933a3.053 3.053 0 01-.933-2.239c0-.902.311-1.648.933-2.239.622-.622 1.368-.933 2.27-.933zM943.199 562.962c.902 0 1.711.093 2.426.311l-.995 5.691a8.832 8.832 0 00-2.146-.28c-1.431 0-2.581.529-3.39 1.555-.839 1.026-1.492 2.581-1.99 4.696v12.968h-5.878v-24.288h5.1l.56 4.758c.591-1.741 1.431-3.079 2.519-4.012a5.673 5.673 0 013.794-1.399zM959.687 562.931c3.576 0 6.375 1.15 8.365 3.42 1.991 2.271 3.017 5.412 3.017 9.392 0 2.55-.466 4.789-1.368 6.717-.902 1.929-2.239 3.452-3.95 4.51-1.71 1.057-3.732 1.617-6.095 1.617-3.577 0-6.376-1.151-8.397-3.421-2.021-2.27-3.017-5.411-3.017-9.423 0-2.55.467-4.758 1.369-6.686.933-1.928 2.239-3.421 3.98-4.509 1.68-1.089 3.732-1.617 6.096-1.617zm0 4.447c-3.514 0-5.287 2.799-5.287 8.365 0 2.861.435 5.007 1.306 6.344.871 1.369 2.177 2.053 3.919 2.053 1.741 0 3.047-.684 3.918-2.053.871-1.368 1.306-3.483 1.306-6.344s-.435-4.944-1.306-6.313c-.871-1.368-2.146-2.052-3.856-2.052zM998.786 557.706c-1.15 0-1.99.28-2.488.808-.497.529-.746 1.4-.746 2.55v2.581h5.848l-.65 4.23h-5.198v20.027h-5.878v-20.058h-3.949v-4.23h3.949v-2.674c0-2.301.747-4.167 2.208-5.567 1.493-1.43 3.577-2.145 6.313-2.145 2.145 0 4.225.466 6.285 1.43l-1.71 3.95c-1.31-.591-2.65-.902-3.984-.902zM1024.76 587.904h-5.1l-.31-3.39c-.87 1.368-1.93 2.395-3.14 3.079-1.22.684-2.65.995-4.3.995-2.17 0-3.85-.653-5-1.99-1.18-1.338-1.78-3.172-1.78-5.536v-17.446h5.88v16.7c0 1.368.25 2.363.72 2.954.46.591 1.24.871 2.27.871 1.86 0 3.51-1.151 4.91-3.452v-17.073h5.88v24.288h-.03zm-14.93-36.044c.87 0 1.65.311 2.24.933.62.622.93 1.369.93 2.239 0 .871-.31 1.649-.93 2.24-.62.621-1.37.932-2.24.932-.9 0-1.68-.311-2.33-.932a3.06 3.06 0 01-.93-2.24c0-.901.31-1.648.93-2.239a3.258 3.258 0 012.33-.933zm10.14 0c.9 0 1.68.311 2.3.933.62.622.93 1.369.93 2.239 0 .871-.31 1.649-.93 2.24-.62.621-1.37.932-2.3.932-.9 0-1.65-.311-2.27-.932a3.06 3.06 0 01-.93-2.24c0-.901.31-1.648.93-2.239a3.12 3.12 0 012.27-.933zM1044.25 562.962c.9 0 1.71.093 2.42.311l-.99 5.691a8.845 8.845 0 00-2.15-.28c-1.43 0-2.58.529-3.39 1.555-.84 1.026-1.49 2.581-1.99 4.696v12.968h-5.87v-24.288h5.1l.56 4.758c.59-1.741 1.43-3.079 2.51-4.012a5.69 5.69 0 013.8-1.399zM1082.69 575.184c0 .311-.04 1.088-.13 2.394h-15.24c.19 2.364.78 4.043 1.84 5.038 1.02.995 2.42 1.524 4.13 1.524 1.06 0 2.09-.187 3.02-.529.96-.342 1.96-.902 3.05-1.617l2.42 3.359c-2.7 2.177-5.69 3.265-8.98 3.265-3.7 0-6.57-1.119-8.56-3.39-1.99-2.27-3.01-5.349-3.01-9.267 0-2.488.43-4.696 1.27-6.686.87-1.959 2.09-3.514 3.7-4.634 1.62-1.119 3.55-1.679 5.79-1.679 3.39 0 6.03 1.088 7.9 3.234 1.86 2.115 2.8 5.131 2.8 8.988zm-5.85-1.711c0-4.26-1.59-6.375-4.73-6.375-1.43 0-2.55.529-3.39 1.586-.81 1.057-1.3 2.737-1.43 5.069h9.55v-.28zM1094.28 563.614v24.288h-5.88v-24.288h5.88zm-2.99-12.283c1.09 0 1.99.342 2.68 1.026.68.684 1.02 1.524 1.02 2.55 0 .995-.34 1.835-1.02 2.519-.69.684-1.59.995-2.68.995-1.06 0-1.96-.342-2.64-.995-.69-.684-1.03-1.524-1.03-2.519 0-.995.34-1.866 1.03-2.55.71-.684 1.58-1.026 2.64-1.026zM1114.75 562.931c2.17 0 3.85.653 5.07 1.959 1.21 1.306 1.8 3.11 1.8 5.442v17.571h-5.88v-16.669c0-1.431-.25-2.457-.74-3.048-.5-.591-1.25-.87-2.21-.87-1 0-1.93.31-2.74.932-.81.622-1.59 1.524-2.36 2.737v16.918h-5.88v-24.288h5.1l.47 3.172c1.99-2.581 4.44-3.856 7.37-3.856zM1148.87 575.184c0 .311-.03 1.088-.13 2.394h-15.24c.19 2.364.78 4.043 1.84 5.038 1.03.995 2.42 1.524 4.13 1.524 1.06 0 2.09-.187 3.02-.529.97-.342 1.96-.902 3.05-1.617l2.42 3.359c-2.7 2.177-5.69 3.265-8.98 3.265-3.7 0-6.56-1.119-8.55-3.39-2-2.27-3.02-5.349-3.02-9.267 0-2.488.43-4.696 1.27-6.686.87-1.959 2.09-3.514 3.7-4.634 1.62-1.119 3.55-1.679 5.79-1.679 3.39 0 6.03 1.088 7.9 3.234 1.86 2.115 2.8 5.131 2.8 8.988zm-5.85-1.711c0-4.26-1.59-6.375-4.73-6.375-1.43 0-2.55.529-3.39 1.586-.81 1.057-1.3 2.737-1.43 5.069h9.55v-.28zM1192.27 562.931c1.95 0 3.51.653 4.66 1.99 1.15 1.337 1.74 3.141 1.74 5.38v17.602h-5.88v-16.669c0-2.612-.9-3.918-2.67-3.918-.96 0-1.77.31-2.46.901-.68.591-1.4 1.524-2.14 2.768v16.918h-5.88v-16.669c0-2.612-.9-3.918-2.68-3.918-.99 0-1.8.31-2.51.901-.69.591-1.4 1.524-2.15 2.768v16.918h-5.88v-24.288h5.1l.47 3.172c1.83-2.581 4.17-3.856 7.03-3.856 1.4 0 2.61.373 3.64 1.088 1.02.715 1.77 1.71 2.24 3.017.99-1.307 2.05-2.333 3.23-3.048 1.24-.715 2.61-1.057 4.14-1.057zM1225.41 587.902h-5.1l-.31-3.389c-.87 1.368-1.93 2.394-3.14 3.079-1.21.684-2.64.995-4.29.995-2.18 0-3.86-.653-5.01-1.991-1.18-1.337-1.77-3.172-1.77-5.535v-17.446h5.88v16.7c0 1.368.25 2.363.71 2.954.47.591 1.25.871 2.27.871 1.87 0 3.52-1.151 4.92-3.452v-17.073h5.87v24.287h-.03zM1238.68 588.587c-1.86 0-3.32-.529-4.38-1.617-1.06-1.089-1.59-2.613-1.59-4.603v-28.455l5.88-.653v28.922c0 1.119.47 1.71 1.37 1.71.47 0 .93-.062 1.37-.249l1.24 4.136a9.661 9.661 0 01-3.89.809zM1260.85 586.752a9.476 9.476 0 01-2.87 1.369c-1.05.311-2.14.466-3.23.466-2.39-.031-4.2-.715-5.44-2.052-1.25-1.338-1.87-3.297-1.87-5.909v-12.813h-3.79v-4.229h3.79v-5.38l5.88-.684v6.064h5.63l-.59 4.229h-5.04v12.657c0 1.182.22 2.053.62 2.582.41.528 1.06.777 1.96.777.87 0 1.84-.28 2.89-.871l2.06 3.794zM1270.49 563.614v24.288h-5.88v-24.288h5.88zm-2.98-12.283c1.08 0 1.99.342 2.67 1.026.68.684 1.03 1.524 1.03 2.55 0 .995-.35 1.835-1.03 2.519-.68.684-1.59.995-2.67.995-1.06 0-1.96-.342-2.65-.995-.68-.684-1.02-1.524-1.02-2.519 0-.995.34-1.866 1.02-2.55.69-.684 1.56-1.026 2.65-1.026zM1290.59 562.931c3.04 0 5.31 1.119 6.81 3.358 1.46 2.239 2.2 5.38 2.2 9.392 0 2.519-.37 4.727-1.12 6.686-.74 1.928-1.83 3.452-3.29 4.572-1.46 1.088-3.17 1.648-5.16 1.648-2.58 0-4.61-.902-6.1-2.675v11.351l-5.88.653v-34.301h5.13l.32 2.985c.96-1.213 2.02-2.146 3.26-2.767a8.548 8.548 0 013.83-.902zm-2.24 21.147c3.39 0 5.1-2.768 5.1-8.366 0-2.954-.38-5.1-1.15-6.437-.78-1.306-1.9-1.991-3.46-1.991-.96 0-1.89.311-2.76.902-.87.591-1.59 1.4-2.21 2.395v10.915c1.15 1.742 2.61 2.582 4.48 2.582zM1315.74 562.931c3.57 0 6.37 1.15 8.36 3.42 1.99 2.271 3.02 5.412 3.02 9.392 0 2.55-.47 4.789-1.37 6.717-.9 1.929-2.24 3.452-3.95 4.51-1.71 1.057-3.73 1.617-6.09 1.617-3.58 0-6.38-1.151-8.4-3.421-2.02-2.27-3.02-5.411-3.02-9.423 0-2.55.47-4.758 1.37-6.686.93-1.928 2.24-3.421 3.98-4.509 1.68-1.089 3.73-1.617 6.1-1.617zm0 4.447c-3.52 0-5.29 2.799-5.29 8.365 0 2.861.44 5.007 1.31 6.344.87 1.369 2.17 2.053 3.92 2.053 1.74 0 3.04-.684 3.91-2.053.87-1.368 1.31-3.483 1.31-6.344s-.44-4.944-1.31-6.313c-.87-1.368-2.14-2.052-3.85-2.052zM1338.83 588.587c-1.87 0-3.33-.529-4.39-1.617-1.05-1.089-1.58-2.613-1.58-4.603v-28.455l5.88-.653v28.922c0 1.119.46 1.71 1.36 1.71.47 0 .94-.062 1.37-.249l1.25 4.136a9.697 9.697 0 01-3.89.809zM1365.03 581.466c0 .964.16 1.648.44 2.083.28.436.74.778 1.4 1.027l-1.25 3.887c-1.37-.125-2.49-.467-3.36-.995-.87-.56-1.52-1.4-1.99-2.519-.84 1.213-1.86 2.146-3.11 2.736-1.24.591-2.61.902-4.16.902-2.43 0-4.33-.684-5.73-2.052-1.4-1.369-2.11-3.172-2.11-5.411 0-2.644.96-4.634 2.86-6.034 1.93-1.399 4.63-2.083 8.21-2.083h3.05v-1.369c0-1.554-.38-2.643-1.09-3.265-.72-.622-1.87-.933-3.45-.933-1.77 0-3.92.436-6.41 1.275l-1.37-4.012c3.02-1.15 5.97-1.741 8.8-1.741 6.22 0 9.33 2.799 9.33 8.365v10.139h-.06zm-10.48 2.861c1.99 0 3.55-.995 4.7-2.986v-4.913h-2.43c-3.79 0-5.69 1.399-5.69 4.229 0 1.151.28 2.053.87 2.706.56.622 1.43.964 2.55.964zM1384.57 562.962c.91 0 1.72.093 2.43.311l-.99 5.691a8.907 8.907 0 00-2.15-.28c-1.43 0-2.58.529-3.39 1.555-.84 1.026-1.49 2.581-1.99 4.696v12.968h-5.88v-24.288h5.1l.56 4.758c.59-1.741 1.43-3.079 2.52-4.012a5.665 5.665 0 013.79-1.399zM1411.08 575.184c0 .311-.04 1.088-.13 2.394h-15.24c.19 2.364.78 4.043 1.84 5.038 1.02.995 2.42 1.524 4.13 1.524 1.06 0 2.09-.187 3.02-.529.96-.342 1.96-.902 3.05-1.617l2.42 3.359c-2.7 2.177-5.69 3.265-8.98 3.265-3.7 0-6.57-1.119-8.56-3.39-1.99-2.27-3.01-5.349-3.01-9.267 0-2.488.43-4.696 1.27-6.686.87-1.959 2.09-3.514 3.7-4.634 1.62-1.119 3.55-1.679 5.79-1.679 3.39 0 6.03 1.088 7.9 3.234 1.86 2.115 2.8 5.131 2.8 8.988zm-5.85-1.711c0-4.26-1.59-6.375-4.73-6.375-1.43 0-2.55.529-3.39 1.586-.81 1.057-1.3 2.737-1.43 5.069h9.55v-.28zM1441.72 555.499c2.09 0 3.92.311 5.54.932 1.62.622 3.14 1.555 4.57 2.768l-3.26 3.39c-1.12-.902-2.21-1.524-3.21-1.928-.99-.404-2.14-.591-3.45-.591-2.46 0-4.45.995-6.03 2.954-1.56 1.96-2.33 4.945-2.33 8.988 0 4.229.62 7.277 1.86 9.143 1.25 1.866 3.14 2.799 5.66 2.799 1.93 0 3.61-.405 5.04-1.244v-8.273h-4.76l-.65-4.509h11.38v15.518c-3.42 2.084-7.06 3.11-10.91 3.11-4.55 0-8-1.399-10.39-4.229-2.4-2.83-3.61-6.935-3.61-12.346 0-3.452.65-6.438 1.96-8.926 1.31-2.487 3.05-4.384 5.26-5.659 2.2-1.244 4.63-1.897 7.33-1.897zM1478.4 575.184c0 .311-.03 1.088-.13 2.394h-15.23c.18 2.364.77 4.043 1.83 5.038 1.03.995 2.43 1.524 4.14 1.524 1.05 0 2.08-.187 3.01-.529.97-.342 1.96-.902 3.05-1.617l2.43 3.359c-2.71 2.177-5.7 3.265-8.99 3.265-3.7 0-6.56-1.119-8.55-3.39-1.99-2.27-3.02-5.349-3.02-9.267 0-2.488.44-4.696 1.27-6.686.88-1.959 2.09-3.514 3.71-4.634 1.61-1.119 3.54-1.679 5.78-1.679 3.39 0 6.03 1.088 7.9 3.234 1.86 2.115 2.8 5.131 2.8 8.988zm-5.85-1.711c0-4.26-1.58-6.375-4.73-6.375-1.43 0-2.55.529-3.39 1.586-.8 1.057-1.3 2.737-1.43 5.069h9.55v-.28zM1491.79 562.931c3.27 0 6.16.964 8.65 2.892l-2.3 3.452c-2.09-1.306-4.11-1.991-6.1-1.991-1.15 0-2.05.218-2.7.654-.66.435-.97 1.026-.97 1.772 0 .56.13.995.41 1.368.28.374.77.716 1.49 1.027.71.311 1.77.684 3.2 1.088 2.65.715 4.57 1.648 5.85 2.799 1.27 1.151 1.9 2.799 1.9 4.851 0 2.426-1 4.323-2.96 5.66-1.96 1.369-4.38 2.053-7.31 2.053-1.99 0-3.79-.311-5.44-.902-1.65-.622-3.05-1.462-4.26-2.519l2.96-3.296c2.11 1.586 4.32 2.394 6.59 2.394 1.3 0 2.36-.249 3.14-.777.78-.529 1.18-1.244 1.18-2.146 0-.715-.16-1.275-.43-1.679-.28-.405-.81-.778-1.56-1.089-.75-.311-1.93-.715-3.51-1.182-2.49-.684-4.3-1.617-5.48-2.83-1.15-1.212-1.74-2.705-1.74-4.509 0-1.337.41-2.55 1.18-3.607.78-1.058 1.9-1.928 3.3-2.519 1.43-.653 3.08-.964 4.91-.964zM1526.34 575.184c0 .311-.03 1.088-.12 2.394h-15.24c.19 2.364.78 4.043 1.83 5.038 1.03.995 2.43 1.524 4.14 1.524 1.06 0 2.08-.187 3.02-.529.96-.342 1.96-.902 3.04-1.617l2.43 3.359c-2.71 2.177-5.69 3.265-8.99 3.265-3.7 0-6.56-1.119-8.55-3.39-1.99-2.27-3.02-5.349-3.02-9.267 0-2.488.44-4.696 1.28-6.686.87-1.959 2.08-3.514 3.7-4.634 1.62-1.119 3.54-1.679 5.78-1.679 3.39 0 6.04 1.088 7.9 3.234 1.87 2.115 2.8 5.131 2.8 8.988zm-5.81-1.711c0-4.26-1.59-6.375-4.73-6.375-1.43 0-2.55.529-3.39 1.586-.81 1.057-1.31 2.737-1.43 5.069h9.55v-.28zM1537.84 588.587c-1.87 0-3.33-.529-4.38-1.617-1.06-1.089-1.59-2.613-1.59-4.603v-28.455l5.88-.653v28.922c0 1.119.46 1.71 1.36 1.71.47 0 .94-.062 1.37-.249l1.25 4.136a9.697 9.697 0 01-3.89.809zM1551.82 588.587c-1.86 0-3.33-.529-4.38-1.617-1.06-1.089-1.59-2.613-1.59-4.603v-28.455l5.88-.653v28.922c0 1.119.47 1.71 1.37 1.71.46 0 .93-.062 1.37-.249l1.24 4.136a9.661 9.661 0 01-3.89.809zM1567.76 562.931c3.27 0 6.16.964 8.65 2.892l-2.3 3.452c-2.09-1.306-4.11-1.991-6.1-1.991-1.15 0-2.05.218-2.7.654-.66.435-.97 1.026-.97 1.772 0 .56.13.995.41 1.368.28.374.77.716 1.49 1.027.71.311 1.77.684 3.2 1.088 2.65.715 4.57 1.648 5.85 2.799 1.27 1.151 1.9 2.799 1.9 4.851 0 2.426-1 4.323-2.96 5.66-1.96 1.369-4.38 2.053-7.31 2.053-1.99 0-3.79-.311-5.44-.902-1.65-.622-3.05-1.462-4.26-2.519l2.96-3.296c2.11 1.586 4.32 2.394 6.59 2.394 1.3 0 2.36-.249 3.14-.777.78-.529 1.18-1.244 1.18-2.146 0-.715-.15-1.275-.43-1.679-.28-.405-.81-.778-1.56-1.089-.75-.311-1.93-.715-3.51-1.182-2.49-.684-4.3-1.617-5.48-2.83-1.15-1.212-1.74-2.705-1.74-4.509 0-1.337.41-2.55 1.18-3.607.78-1.058 1.9-1.928 3.3-2.519 1.43-.653 3.05-.964 4.91-.964zM1592.17 562.931c1.59 0 3.02.217 4.29.684 1.28.466 2.46 1.182 3.61 2.146l-2.61 3.545c-.84-.622-1.62-1.057-2.39-1.337-.78-.28-1.62-.405-2.52-.405-3.64 0-5.48 2.768-5.48 8.304 0 2.83.47 4.851 1.43 6.095.97 1.244 2.3 1.866 4.05 1.866.87 0 1.64-.124 2.36-.404.71-.28 1.59-.716 2.55-1.338l2.61 3.732c-2.3 1.866-4.91 2.799-7.83 2.799-2.34 0-4.36-.497-6.07-1.524-1.71-1.026-3.02-2.488-3.95-4.385-.9-1.897-1.37-4.136-1.37-6.717 0-2.581.47-4.851 1.37-6.81.93-1.96 2.24-3.515 3.95-4.603 1.71-1.12 3.7-1.648 6-1.648zM1617.74 562.931c2.15 0 3.83.653 5.04 1.99 1.21 1.306 1.83 3.11 1.83 5.411v17.571h-5.87v-16.669c0-1.431-.25-2.457-.75-3.048-.5-.59-1.24-.87-2.21-.87-.99 0-1.9.311-2.7.933-.84.622-1.62 1.523-2.4 2.674v16.98h-5.91v-33.96l5.88-.59v13.185c1.96-2.425 4.32-3.607 7.09-3.607zM1649.87 581.466c0 .964.16 1.648.44 2.083.28.436.74.778 1.4 1.027l-1.25 3.887c-1.37-.125-2.49-.467-3.36-.995-.87-.56-1.52-1.4-1.99-2.519-.84 1.213-1.86 2.146-3.11 2.736-1.24.591-2.61.902-4.16.902-2.43 0-4.33-.684-5.73-2.052-1.4-1.369-2.11-3.172-2.11-5.411 0-2.644.96-4.634 2.86-6.034 1.93-1.399 4.63-2.083 8.21-2.083h3.05v-1.369c0-1.554-.38-2.643-1.09-3.265-.72-.622-1.87-.933-3.45-.933-1.78 0-3.92.436-6.41 1.275l-1.37-4.012c3.02-1.15 5.97-1.741 8.8-1.741 6.22 0 9.33 2.799 9.33 8.365v10.139h-.06zm-10.48 2.861c1.99 0 3.55-.995 4.7-2.986v-4.913h-2.43c-3.79 0-5.69 1.399-5.69 4.229 0 1.151.28 2.053.87 2.706.56.622 1.43.964 2.55.964zM1667.24 557.706c-1.15 0-1.99.28-2.49.808-.5.529-.75 1.4-.75 2.55v2.581h5.85l-.65 4.23h-5.2v20.027h-5.87v-20.058h-3.95v-4.23h3.95v-2.674c0-2.301.74-4.167 2.2-5.567 1.5-1.43 3.58-2.145 6.32-2.145 2.14 0 4.23.466 6.28 1.43l-1.71 3.95c-1.28-.591-2.61-.902-3.98-.902zM1687.74 586.752c-.87.622-1.81 1.058-2.86 1.369-1.06.311-2.15.466-3.24.466-2.39-.031-4.2-.715-5.44-2.052-1.25-1.338-1.87-3.297-1.87-5.909v-12.813h-3.79v-4.229h3.79v-5.38l5.88-.684v6.064h5.63l-.59 4.229h-5.04v12.657c0 1.182.22 2.053.62 2.582.41.528 1.06.777 1.96.777.87 0 1.84-.28 2.89-.871l2.06 3.794zM1699.15 562.931c3.27 0 6.16.964 8.65 2.892l-2.3 3.452c-2.09-1.306-4.11-1.991-6.1-1.991-1.15 0-2.05.218-2.7.654-.66.435-.97 1.026-.97 1.772 0 .56.13.995.41 1.368.28.374.77.716 1.49 1.027.71.311 1.77.684 3.2 1.088 2.65.715 4.57 1.648 5.85 2.799 1.27 1.151 1.9 2.799 1.9 4.851 0 2.426-1 4.323-2.96 5.66-1.96 1.369-4.38 2.053-7.31 2.053-1.99 0-3.79-.311-5.44-.902-1.65-.622-3.05-1.462-4.26-2.519l2.96-3.296c2.11 1.586 4.32 2.394 6.59 2.394 1.3 0 2.36-.249 3.14-.777.78-.529 1.18-1.244 1.18-2.146 0-.715-.15-1.275-.43-1.679-.28-.405-.81-.778-1.56-1.089-.75-.311-1.93-.715-3.51-1.182-2.49-.684-4.29-1.617-5.48-2.83-1.15-1.212-1.74-2.705-1.74-4.509 0-1.337.41-2.55 1.18-3.607.78-1.058 1.9-1.928 3.3-2.519 1.43-.653 3.08-.964 4.91-.964zM1719.68 553.259v34.644h-5.88v-34.022l5.88-.622zm14.55 10.356l-8.08 10.698 8.86 13.59h-6.75l-8.37-13.248 8.12-11.009h6.22v-.031zM1758.18 587.902h-5.1l-.31-3.389c-.87 1.368-1.93 2.394-3.14 3.079-1.21.684-2.64.995-4.29.995-2.18 0-3.86-.653-5.01-1.991-1.18-1.337-1.77-3.172-1.77-5.535v-17.446h5.88v16.7c0 1.368.24 2.363.71 2.954.47.591 1.25.871 2.27.871 1.87 0 3.52-1.151 4.91-3.452v-17.073h5.88v24.287h-.03zM1771.45 588.587c-1.86 0-3.33-.529-4.38-1.617-1.06-1.089-1.59-2.613-1.59-4.603v-28.455l5.88-.653v28.922c0 1.119.47 1.71 1.37 1.71.46 0 .93-.062 1.37-.249l1.24 4.136a9.661 9.661 0 01-3.89.809zM1793.61 586.752c-.87.622-1.8 1.058-2.86 1.369-1.06.311-2.14.466-3.23.466-2.4-.031-4.2-.715-5.44-2.052-1.25-1.338-1.87-3.297-1.87-5.909v-12.813h-3.83v-4.229h3.8v-5.38l5.88-.684v6.064h5.62l-.59 4.229h-5.03v12.657c0 1.182.21 2.053.62 2.582.4.528 1.06.777 1.96.777.87 0 1.83-.28 2.89-.871l2.08 3.794zM1816.79 587.902h-5.1l-.31-3.389c-.88 1.368-1.93 2.394-3.15 3.079-1.21.684-2.64.995-4.29.995-2.17 0-3.85-.653-5-1.991-1.19-1.337-1.78-3.172-1.78-5.535v-17.446h5.88v16.7c0 1.368.25 2.363.72 2.954.46.591 1.24.871 2.27.871 1.86 0 3.51-1.151 4.91-3.452v-17.073h5.88v24.287h-.03zM1836.28 562.962c.9 0 1.71.093 2.42.311l-.99 5.691a8.845 8.845 0 00-2.15-.28c-1.43 0-2.58.529-3.39 1.555-.84 1.026-1.49 2.581-1.99 4.696v12.968h-5.88v-24.288h5.1l.56 4.758c.59-1.741 1.43-3.079 2.52-4.012a5.69 5.69 0 013.8-1.399zM767.68 253.191c7.37 0 14.119 1.244 20.276 3.701 6.158 2.456 11.538 5.691 16.14 9.733l-14.74 15.332c-3.639-2.643-6.935-4.572-9.89-5.753-2.954-1.182-6.282-1.773-10.013-1.773-7.184 0-12.689 2.737-16.514 8.179-3.825 5.442-5.753 13.746-5.753 24.848 0 8.365.591 14.927 1.773 19.685 1.182 4.758 3.016 8.148 5.535 10.107 2.519 1.959 5.816 2.954 9.952 2.954 3.638 0 7.121-.839 10.48-2.519v-18.721h-10.325l-2.799-20.494h42.325v51.468c-5.411 3.732-11.599 6.624-18.596 8.708-6.966 2.052-13.715 3.11-20.214 3.11-16.825 0-29.264-4.603-37.319-13.777-8.054-9.205-12.097-22.733-12.097-40.615 0-11.288 2.208-21.022 6.624-29.201 4.416-8.148 10.574-14.368 18.441-18.566 7.899-4.291 16.794-6.406 26.714-6.406zM867.662 277.51c2.55 0 5.193.435 7.961 1.337l-4.572 28.144c-2.643-.777-5.069-1.182-7.214-1.182-4.323 0-7.557 1.431-9.672 4.292-2.115 2.861-3.794 7.121-5.1 12.843v35.826h-29.201v-78.741h25.5l2.364 14.74c1.679-5.224 4.322-9.391 7.961-12.532 3.669-3.141 7.65-4.727 11.973-4.727zM958.961 318.342c0 2.457-.187 5.567-.591 9.299h-47.798c.778 5.318 2.426 8.894 4.945 10.698 2.519 1.803 6.126 2.736 10.853 2.736 2.737 0 5.567-.559 8.397-1.71 2.861-1.12 6.002-2.861 9.453-5.225l11.787 15.923c-9.547 7.774-20.339 11.662-32.436 11.662-13.963 0-24.536-3.857-31.72-11.569-7.184-7.712-10.76-17.913-10.76-30.601 0-7.868 1.493-15.02 4.509-21.458 2.986-6.437 7.433-11.537 13.341-15.331 5.909-3.794 13.03-5.691 21.396-5.691 7.775 0 14.554 1.617 20.338 4.882 5.816 3.234 10.294 7.961 13.497 14.15 3.172 6.189 4.789 13.59 4.789 22.235zm-28.766-8.241c-.093-4.633-.808-8.21-2.146-10.76-1.337-2.55-3.7-3.825-7.152-3.825-3.235 0-5.691 1.12-7.308 3.39-1.618 2.27-2.675 6.344-3.172 12.222h19.747v-1.027h.031zM1022.79 277.075c6.6 0 11.79 2.052 15.55 6.188 3.8 4.136 5.66 9.921 5.66 17.415v58.092h-29.2v-52.805c0-2.954-.37-4.976-1.12-6.033-.74-1.088-1.83-1.617-3.29-1.617-3.24 0-6.53 2.612-9.89 7.806v52.649h-29.205v-78.741h25.501l2.052 8.117c3.642-3.825 7.342-6.624 11.132-8.397 3.86-1.804 8.12-2.674 12.81-2.674zM1121 280.029v20.214l-32.28 37.007h33.34l-2.52 21.52h-64.87v-20.338l32.75-37.163h-29.8v-21.24H1121zM1208.31 318.342c0 2.457-.19 5.567-.6 9.299h-47.76c.77 5.318 2.42 8.894 4.94 10.698 2.52 1.803 6.13 2.736 10.85 2.736 2.74 0 5.57-.559 8.4-1.71 2.86-1.12 6-2.861 9.46-5.225l11.78 15.923c-9.55 7.774-20.34 11.662-32.43 11.662-13.97 0-24.54-3.857-31.72-11.569-7.19-7.712-10.76-17.913-10.76-30.601 0-7.868 1.49-15.02 4.5-21.458 2.99-6.437 7.44-11.537 13.35-15.331 5.9-3.794 13.03-5.691 21.36-5.691 7.78 0 14.55 1.617 20.34 4.882 5.81 3.234 10.29 7.961 13.5 14.15 3.2 6.189 4.79 13.59 4.79 22.235zm-28.74-8.241c-.09-4.633-.81-8.21-2.15-10.76-1.33-2.55-3.7-3.825-7.15-3.825-3.23 0-5.69 1.12-7.31 3.39-1.61 2.27-2.67 6.344-3.17 12.222h19.75v-1.027h.03zM1272.17 277.075c6.59 0 11.79 2.052 15.55 6.188 3.79 4.136 5.66 9.921 5.66 17.415v58.092h-29.2v-52.805c0-2.954-.38-4.976-1.12-6.033-.75-1.088-1.84-1.617-3.3-1.617-3.23 0-6.53 2.612-9.89 7.806v52.649h-29.2v-78.741h25.5l2.05 8.117c3.64-3.825 7.34-6.624 11.14-8.397 3.82-1.804 8.08-2.674 12.81-2.674zM1377.9 277.075c5.82 0 11.39.902 16.74 2.736 5.34 1.804 9.85 4.292 13.49 7.433l-10.32 15.767a40.498 40.498 0 00-9.15-4.198c-3.23-1.027-6.43-1.555-9.57-1.555-4.42 0-6.63 1.181-6.63 3.545 0 .995.28 1.804.87 2.425.59.622 1.99 1.431 4.2 2.364 2.21.933 5.79 2.146 10.7 3.607 7.87 2.457 13.68 5.567 17.48 9.361 3.79 3.794 5.69 9.112 5.69 15.985 0 5.317-1.59 10.013-4.79 14.149-3.2 4.136-7.62 7.34-13.28 9.579-5.66 2.27-12.07 3.389-19.25 3.389-6.87 0-13.34-1.119-19.41-3.327-6.03-2.208-11.13-5.287-15.27-9.205l13.87-15.332a38.8 38.8 0 009.68 5.691c3.48 1.431 6.96 2.146 10.38 2.146 2.65 0 4.7-.404 6.13-1.244 1.43-.84 2.15-2.052 2.15-3.607 0-1.369-.32-2.426-.97-3.172-.65-.747-1.93-1.493-3.92-2.208-1.96-.747-5.41-1.835-10.32-3.328-15.24-4.509-22.86-13.03-22.86-25.501 0-4.82 1.34-9.143 4.04-12.968 2.71-3.825 6.63-6.872 11.79-9.143 5.19-2.27 11.35-3.389 18.53-3.389zM1452.67 280.029v78.741h-29.21v-78.741h29.21zm-14.59-43.507c4.73 0 8.62 1.493 11.72 4.51 3.11 2.985 4.64 6.717 4.64 11.133 0 4.416-1.56 8.148-4.64 11.133-3.1 2.986-6.99 4.509-11.72 4.509s-8.64-1.492-11.72-4.509c-3.11-2.985-4.64-6.717-4.64-11.133 0-4.416 1.56-8.148 4.64-11.133 3.08-3.017 6.99-4.51 11.72-4.51zM1520.95 277.075c6.59 0 11.78 2.052 15.54 6.188 3.8 4.136 5.66 9.921 5.66 17.415v58.092h-29.2v-52.805c0-2.954-.37-4.976-1.12-6.033-.74-1.088-1.83-1.617-3.29-1.617-3.24 0-6.53 2.612-9.89 7.806v52.649h-29.2v-78.741h25.5l2.05 8.117c3.64-3.825 7.34-6.624 11.13-8.397 3.83-1.804 8.09-2.674 12.82-2.674zM1634.48 249.054v109.715h-25.96l-1.03-8.116c-5.6 7.37-13.03 11.071-22.27 11.071-9.92 0-17.41-3.794-22.42-11.351-5-7.557-7.52-18.037-7.52-31.409 0-8.055 1.36-15.27 4.13-21.614 2.74-6.344 6.6-11.32 11.57-14.896 4.98-3.576 10.7-5.38 17.17-5.38 6.78 0 12.5 2.053 17.1 6.189V246.1l29.23 2.954zm-39.37 91.71c4.14 0 7.53-2.302 10.17-6.935v-31.534c-1.37-1.493-2.77-2.581-4.13-3.328-1.37-.746-2.9-1.119-4.58-1.119-3.45 0-6.18 1.71-8.27 5.1-2.05 3.39-3.11 8.832-3.11 16.295 0 8.646.87 14.399 2.58 17.26 1.78 2.83 4.2 4.261 7.34 4.261zM766.965 424.875c2.55 0 5.194.435 7.961 1.337l-4.571 28.175c-2.644-.778-5.069-1.182-7.215-1.182-4.323 0-7.557 1.431-9.672 4.292-2.114 2.861-3.794 7.121-5.1 12.812v35.826h-29.201v-78.773h25.501l2.363 14.741c1.679-5.224 4.323-9.392 7.961-12.533 3.639-3.141 7.619-4.695 11.973-4.695zM858.233 465.706c0 2.457-.186 5.567-.591 9.299h-47.767c.777 5.317 2.426 8.894 4.945 10.697 2.519 1.804 6.126 2.737 10.853 2.737 2.737 0 5.567-.56 8.397-1.71 2.861-1.12 6.002-2.861 9.454-5.225l11.786 15.923c-9.547 7.774-20.338 11.661-32.436 11.661-13.963 0-24.537-3.856-31.72-11.568-7.184-7.713-10.76-17.913-10.76-30.601 0-7.868 1.492-15.021 4.509-21.458 2.985-6.437 7.432-11.538 13.341-15.332 5.909-3.794 13.03-5.691 21.396-5.691 7.775 0 14.554 1.618 20.338 4.883 5.816 3.234 10.294 7.961 13.497 14.15 3.172 6.157 4.758 13.59 4.758 22.235zm-28.766-8.241c-.093-4.634-.808-8.21-2.146-10.76-1.337-2.55-3.7-3.825-7.152-3.825-3.235 0-5.691 1.119-7.309 3.39-1.617 2.27-2.674 6.344-3.172 12.221h19.748v-1.026h.031zM894.668 509.057c-7.961 0-14.088-2.239-18.348-6.717-4.292-4.478-6.406-10.791-6.406-18.939v-87.014l29.201-2.954v88.786c0 2.643 1.182 3.981 3.545 3.981a8.138 8.138 0 003.11-.591l5.162 20.805c-4.664 1.772-10.076 2.643-16.264 2.643zM987.423 480.602c0 2.768.342 4.789 1.026 6.126.684 1.338 1.928 2.333 3.701 3.017l-5.909 18.721c-5.318-.404-9.641-1.399-12.968-3.016-3.328-1.618-6.095-4.261-8.241-7.899-5.1 7.681-13.031 11.506-23.76 11.506-7.774 0-14.025-2.332-18.814-6.997-4.758-4.665-7.153-10.698-7.153-18.068 0-8.739 3.234-15.425 9.734-20.059 6.5-4.633 15.922-6.935 28.331-6.935h5.598v-1.928c0-3.949-.778-6.593-2.364-7.961-1.586-1.368-4.571-2.052-8.987-2.052-2.364 0-5.38.373-9.081 1.119a98.341 98.341 0 00-11.289 3.017l-6.344-18.597c4.82-1.959 10.045-3.483 15.705-4.572 5.66-1.088 10.791-1.617 15.425-1.617 12.377 0 21.395 2.395 26.993 7.153 5.598 4.758 8.397 12.066 8.397 21.893v27.149zm-37.163 7.961a9.797 9.797 0 004.945-1.306 11.966 11.966 0 003.763-3.39v-11.662h-3.11c-4.136 0-7.184.747-9.143 2.208-1.96 1.462-2.955 3.732-2.955 6.78 0 2.27.591 4.074 1.773 5.38 1.182 1.337 2.737 1.99 4.727 1.99zM1060.11 502.278c-3.05 2.177-6.75 3.825-11.13 5.007-4.39 1.182-8.53 1.772-12.48 1.772-9.73-.093-16.94-2.83-21.61-8.178-4.66-5.349-7-13.311-7-23.822v-29.916h-9.45v-19.779h9.45v-16.513l29.21-3.39v19.903h17.69l-2.95 19.747h-14.74v29.637c0 3.452.52 5.878 1.61 7.308 1.09 1.431 2.61 2.146 4.57 2.146 2.46 0 4.92-.684 7.37-2.052l9.46 18.13zM1097.73 427.362v78.741h-29.2v-78.741h29.2zm-14.62-43.507c4.73 0 8.62 1.493 11.73 4.51 3.11 2.985 4.63 6.717 4.63 11.133 0 4.416-1.55 8.148-4.63 11.133-3.11 2.986-7 4.509-11.73 4.509-4.72 0-8.64-1.492-11.72-4.509-3.11-2.985-4.63-6.717-4.63-11.133 0-4.416 1.55-8.148 4.63-11.133 3.11-2.986 7-4.51 11.72-4.51zM1188.12 427.362l-23.45 78.741h-34.52l-24.03-78.741h31.68l9.89 57.657 10.92-57.657h29.51zM1307.55 465.706c0 2.457-.18 5.567-.59 9.299h-47.76c.77 5.317 2.42 8.894 4.94 10.697 2.52 1.804 6.13 2.737 10.85 2.737 2.74 0 5.57-.56 8.4-1.71 2.86-1.12 6-2.861 9.45-5.225l11.79 15.923c-9.55 7.774-20.34 11.661-32.44 11.661-13.96 0-24.53-3.856-31.72-11.568-7.18-7.713-10.76-17.913-10.76-30.601 0-7.868 1.5-15.021 4.51-21.458 2.99-6.437 7.44-11.538 13.34-15.332 5.91-3.794 13.04-5.691 21.4-5.691 7.77 0 14.55 1.618 20.34 4.883 5.81 3.234 10.29 7.961 13.5 14.15 3.17 6.157 4.75 13.59 4.75 22.235zm-28.76-8.241c-.1-4.634-.81-8.21-2.15-10.76-1.34-2.55-3.7-3.825-7.15-3.825-3.24 0-5.69 1.119-7.31 3.39-1.62 2.27-2.67 6.344-3.17 12.221h19.75v-1.026h.03zM1331.46 478.675c4.23 0 7.8 1.493 10.76 4.509 2.95 2.986 4.41 6.562 4.41 10.698s-1.46 7.681-4.41 10.698c-2.96 2.985-6.53 4.509-10.76 4.509-4.23 0-7.81-1.493-10.76-4.509-2.96-2.986-4.42-6.562-4.42-10.698s1.46-7.681 4.42-10.698c2.92-2.985 6.53-4.509 10.76-4.509zM1442.64 403.478l-25.97 102.624h-39.21l-27.59-102.624h32l15.65 81.54 13.99-81.54h31.13zM1461.08 478.675c4.23 0 7.8 1.493 10.76 4.509 2.95 2.986 4.41 6.562 4.41 10.698s-1.46 7.681-4.41 10.698c-2.96 2.985-6.53 4.509-10.76 4.509-4.23 0-7.81-1.493-10.76-4.509-2.96-2.986-4.42-6.562-4.42-10.698s1.46-7.681 4.42-10.698c2.92-2.985 6.53-4.509 10.76-4.509z"/>
  <g>
    <path fill="url(#paint0_linear_1_53)" d="M395.445 642.772c129.14 0 233.829-104.938 233.829-234.386C629.274 278.938 524.585 174 395.445 174c-129.141 0-233.83 104.938-233.83 234.386 0 129.448 104.689 234.386 233.83 234.386z"/>
    <path fill="#4F93DD" d="M336.805 529.941c92.065 7.721 159.686-27.352 200.233-58.04 39.606-29.961 61.783-61.783 65.975-68.049.363-.513 16.338-23.225 23.844-33.917-.149-.834-.256-1.668-.427-2.502-6.951 9.858-24.743 35.115-25.257 35.949-4.897 7.314-26.817 38.045-65.183 67.065-40.333 30.474-107.655 65.29-198.992 57.677-50.47-4.171-80.004-24.85-108.554-44.782-19.567-13.665-38.729-27.095-63.814-34.858.107.684.257 1.347.363 2.032 24.466 7.72 43.263 20.872 62.468 34.281 28.678 20.102 58.404 40.867 109.344 45.144z"/>
    <path fill="#4F93DD" d="M241.361 476.243c26.198 17.643 53.293 35.799 95.658 42.536 36.227 5.731 66.231 5.175 94.353-1.775 100.769-24.936 160.37-107.292 170.186-121.813.685-1.048 16.382-23.588 23.696-34.131a35.92 35.92 0 00-.514-2.395c-6.736 9.709-23.909 34.388-24.529 35.329-9.238 13.665-68.519 96.384-169.288 121.277-27.93 6.887-57.677 7.464-93.669 1.733-41.958-6.673-68.883-24.744-94.93-42.28-12.789-8.618-24.893-16.745-38.665-23.631-11.998-6.009-25.15-11.334-40.868-14.713.043.62.149 1.262.214 1.882 15.29 3.336 28.122 8.554 39.82 14.414 13.75 6.929 25.791 15.012 38.536 23.567z"/>
    <path fill="#4F93DD" d="M254.877 467.174c23.332 15.761 47.434 32.036 82.249 40.44 28.336 6.844 59.132 12.104 92.472 4.021 101.859-24.636 164.904-116.68 171.961-127.394.321-.513 16.381-23.332 21.92-31.159-.214-.791-.363-1.561-.577-2.288a22994.852 22994.852 0 00-23.439 33.34c-9.281 13.879-71.385 101.817-170.293 125.726-32.977 7.977-63.515 2.758-91.637-4.021-34.495-8.34-58.447-24.529-81.672-40.183-16.445-11.057-31.928-21.557-50.769-29.32-13.666-5.646-28.015-9.495-43.37-11.591.043.62.107 1.198.107 1.818 15.034 2.032 29.127 5.838 42.579 11.377 18.691 7.784 34.131 18.221 50.469 29.234z"/>
    <path fill="#4F93DD" d="M267.773 458.043c20.294 14.242 41.274 29.02 69.503 38.451 29.897 10.03 57.356 17.686 90.589 9.816 96.748-22.904 161.782-115.119 172.111-130.58.727-1.091 15.911-22.327 21.492-30.154a48.494 48.494 0 01-.62-2.245c-4.534 6.372-21.663 30.26-22.433 31.458-10.436 15.654-75.042 106.992-170.914 129.682-32.762 7.784-59.965.149-89.605-9.752-27.973-9.388-48.845-24.059-69.033-38.259-19.632-13.772-38.152-26.775-62.253-34.922-14.136-4.748-29.127-7.721-45.295-8.811 0 .577 0 1.197.043 1.775 15.975 1.09 30.731 4.02 44.717 8.725 23.802 8.148 42.172 21.086 61.698 34.816z"/>
    <path fill="#4F93DD" d="M279.77 448.954c17.28 13.003 35.115 26.454 57.677 36.377 27.716 12.168 53.849 23.695 88.665 15.611 94.396-21.856 162.102-118.518 172.945-134.793.791-1.154 7.25-10.906 9.709-14.563.364-.578 5.945-9.453 9.816-15.548-.257-.727-.471-1.454-.727-2.245-3.807 6.052-10.18 16.167-10.543 16.745-2.395 3.593-8.811 13.259-9.495 14.2-9.923 14.97-77.609 112.509-172.112 134.429-34.238 7.935-60.114-3.443-87.574-15.504-22.39-9.859-40.14-23.225-57.356-36.163-22.241-16.745-43.263-32.57-72.86-40.654-14.821-4.063-30.475-5.902-46.664-6.052 0 .577-.043 1.198-.043 1.775 16.082.107 31.566 1.989 46.236 6.009 29.32 8.02 50.192 23.738 72.326 40.376z"/>
    <path fill="#4F93DD" d="M209.048 393.843c34.709 7.507 57.506 26.347 81.629 46.236 14.349 11.848 29.234 24.166 46.962 34.024l1.733.941c27.181 15.184 50.684 28.293 85.072 20.466 93.84-21.3 165.16-125.918 174.399-139.968.428-.685 11.121-17.323 17.28-26.882a89.643 89.643 0 00-.792-2.139c-6.052 9.389-17.899 27.866-18.691 29.021-11.484 17.279-81.415 117.471-172.624 138.193-33.704 7.614-56.929-5.26-83.768-20.295l-1.732-.941c-17.643-9.816-32.399-22.027-46.706-33.874-24.273-20.039-47.219-39.029-82.356-46.599-15.034-3.23-30.902-4.342-47.39-3.593-.043.577-.107 1.197-.15 1.775 16.403-.642 32.164.406 47.134 3.635z"/>
    <path fill="#4F93DD" d="M210.566 379.13c40.227 6.736 64.243 28.913 89.713 52.395 11.698 10.757 23.738 21.92 37.532 31.458l4.02 2.759c24.85 17.279 46.236 32.206 80.88 24.465 92.258-20.509 166.893-131.415 175.555-144.652.32-.514 9.388-14.414 15.333-23.546a27.15 27.15 0 00-.834-2.031c-6.052 9.238-16.125 24.678-16.745 25.726-11.377 17.216-84.28 122.903-173.672 142.728-33.811 7.506-55.004-7.207-79.49-24.209l-4.021-2.759c-13.665-9.452-25.684-20.551-37.318-31.308-25.62-23.695-49.892-46.022-90.653-52.865-15.141-2.566-31.052-2.823-47.433-1.454-.107.62-.15 1.197-.257 1.817 16.403-1.283 32.314-1.026 47.39 1.476z"/>
    <path fill="#4F93DD" d="M212.085 364.417c45.722 5.646 70.337 31.458 96.491 58.768 9.282 9.709 18.841 19.717 29.384 28.656 1.668 1.412 3.336 2.866 5.004 4.277 22.904 19.568 42.75 36.527 78.015 28.807 90.333-19.675 168.24-136.355 176.538-149.143.321-.514 8.725-14.136 12.938-21.087-.321-.684-.577-1.304-.877-1.988-3.956 6.479-13.152 21.407-13.408 21.77-7.1 11.014-85.179 128.998-175.661 148.737-34.388 7.464-53.913-9.174-76.454-28.443a441.895 441.895 0 01-5.004-4.277c-10.436-8.875-19.996-18.841-29.277-28.486-25.149-26.347-51.197-53.592-97.54-59.345-15.076-1.882-30.731-1.625-46.706.257-.107.62-.256 1.262-.363 1.818 16.125-1.882 31.843-2.203 46.92-.321z"/>
    <path fill="#4F93DD" d="M213.603 349.64c51.133 4.341 76.967 35.329 101.966 65.29 7.207 8.618 14.607 17.536 22.541 25.684 1.775 1.818 3.55 3.657 5.261 5.432 21.236 22.07 39.606 41.231 75.833 33.511 88.151-18.798 169.138-140.653 177.543-153.591.321-.513 7.613-11.89 11.013-17.28-.32-.62-.62-1.261-.876-1.924a9615.292 9615.292 0 00-11.42 17.942c-7.25 11.228-88.451 134.323-176.602 153.057-35.179 7.463-53.293-11.27-74.165-32.977a438.194 438.194 0 01-5.261-5.475c-7.87-8.083-15.291-16.958-22.434-25.577-25.256-30.26-51.346-61.526-103.164-65.91-14.606-1.262-29.747-.47-45.145 1.732-.149.62-.32 1.262-.47 1.882 15.462-2.203 30.71-3.037 45.38-1.796z"/>
    <path fill="#4F93DD" d="M215.1 334.926c56.458 2.823 81.778 37.938 106.244 71.92 5.431 7.57 11.056 15.333 16.916 22.604 1.732 2.139 3.4 4.234 5.004 6.309 19.717 24.85 36.847 46.235 74.165 38.451 85.542-17.857 169.395-143.925 178.377-157.868.364-.513 5.902-8.811 9.025-13.516l-.941-1.818c-2.973 4.427-9.132 13.559-9.346 13.986-7.506 11.634-91.787 139.541-177.479 157.441-36.312 7.571-52.245-12.468-72.39-37.831-1.668-2.096-3.336-4.17-5.004-6.309-5.795-7.207-11.42-14.97-16.852-22.497-24.743-34.346-50.299-69.824-107.655-72.647-13.772-.684-28.079.363-42.578 2.759-.214.62-.428 1.304-.621 1.924 14.756-2.438 29.213-3.592 43.135-2.908z"/>
    <path fill="#4F93DD" d="M216.618 320.149c61.741 1.155 86.056 40.547 109.537 78.592 3.957 6.48 8.084 13.152 12.319 19.418 1.518 2.288 3.036 4.534 4.49 6.779 18.264 27.759 34.025 51.711 72.797 43.841 83.874-17.109 171.534-150.084 179.532-162.552.257-.428 4.598-6.672 6.48-9.452-.321-.578-.62-1.155-.984-1.775a3459.843 3459.843 0 00-6.993 10.179c-7.677 11.848-95.08 144.823-178.484 161.825-37.575 7.677-52.288-14.714-70.915-43.049-1.454-2.246-2.972-4.491-4.491-6.78-4.17-6.266-8.297-12.938-12.254-19.354-23.738-38.515-48.267-78.335-111.055-79.49-1.048 0-2.096-.043-3.186-.043-11.698 0-23.631 1.198-35.693 3.23-.257.62-.513 1.304-.791 1.924 12.318-2.181 24.529-3.4 36.484-3.4 1.133.107 2.16.107 3.207.107z"/>
    <path fill="#4F93DD" d="M219.655 305.436c65.868 0 88.451 43.37 110.371 85.328 2.823 5.368 5.731 10.949 8.661 16.274 1.262 2.289 2.502 4.598 3.764 6.844 16.852 30.945 31.373 57.677 71.599 49.636 77.972-15.548 164.391-142.364 178.954-164.541.984-1.518 4.021-5.795 5.539-7.934-.321-.577-.684-1.155-.984-1.732-1.09 1.561-4.811 6.736-5.795 8.298-13.836 21.022-100.363 148.629-178.014 164.134-38.985 7.784-52.501-17.173-69.674-48.695-1.262-2.246-2.459-4.534-3.764-6.844-2.929-5.26-5.795-10.863-8.618-16.231-22.134-42.429-45.038-86.312-111.932-86.312h-1.561c-11.057.107-22.434 1.304-33.875 3.336-.321.684-.62 1.304-.941 1.989 11.805-2.139 23.439-3.401 34.858-3.55h1.412z"/>
    <path fill="#4F93DD" d="M225.173 290.615c67.728 0 88.194 46.813 107.933 92.172 1.924 4.384 3.806 8.768 5.731 13.045.984 2.181 1.925 4.341 2.866 6.416 15.333 34.345 28.592 64.028 70.508 55.901 78.742-15.333 173.309-158.851 182.547-173.158-.363-.578-.684-1.091-1.048-1.668-5.838 9.089-102.244 157.611-181.863 173.094-40.547 7.87-52.865-19.781-68.519-54.854-.941-2.138-1.925-4.277-2.866-6.415-1.924-4.277-3.806-8.661-5.731-13.045-19.097-43.777-40.654-93.263-109.751-93.263-1.775 0-3.593.043-5.432.107-8.982.321-18.113 1.347-27.352 2.93-.363.684-.791 1.347-1.155 2.032 9.645-1.733 19.205-2.823 28.593-3.187 1.903-.043 3.721-.107 5.539-.107z"/>
    <path fill="#4F93DD" d="M335.565 374.789c1.198 3.336 2.352 6.629 3.55 9.859l2.032 5.538c13.772 38.045 25.769 70.872 69.46 62.575 73.481-13.944 165.588-150.084 180.772-173.266-.363-.514-.727-1.091-1.091-1.626-13.772 21.022-106.564 159.173-180.045 173.159-42.172 7.977-53.849-24.165-67.428-61.419l-2.032-5.582c-1.198-3.229-2.352-6.565-3.55-9.858-16.852-47.134-35.906-100.299-107.035-100.256-2.972 0-6.009.107-9.131.257-6.266.363-12.639 1.09-19.055 2.096-.47.684-.941 1.347-1.411 2.031a202.755 202.755 0 0120.551-2.352c77.245-4.641 97.026 50.363 114.413 98.844z"/>
    <path fill="#4F93DD" d="M337.383 366.77l3.122 10.863c12.168 42.002 22.605 78.272 68.306 69.824 67.728-12.532 156.863-140.375 178.89-173.308-.363-.514-.727-1.048-1.091-1.562-21.193 31.844-110.627 160.628-178.056 173.095-26.347 4.855-40.611-5.838-50.363-24.058 9.495 16.124 23.845 24.999 48.952 20.508 63.044-11.334 150.191-133.745 176.816-173.202-.364-.513-.792-.983-1.155-1.518-26.091 38.772-113.344 161.675-175.982 172.945-25.107 4.534-39.136-5.068-48.374-22.134 3.186 5.112 6.993 9.453 11.591 12.682 9.174 6.48 20.765 8.405 35.393 5.838 58.917-10.286 144.352-128.484 174.613-172.945-.364-.471-.791-.984-1.155-1.454-29.897 43.99-115.289 162.466-173.779 172.688-14.136 2.503-25.256.685-34.025-5.538-18.691-13.195-23.951-45.145-29.533-78.956-9.495-57.207-20.145-121.449-96.342-121.705-.727.577-1.412 1.197-2.139 1.817 76.668-.834 87.254 63.195 96.706 120.187.941 5.732 1.882 11.42 2.93 17.023-.257-1.261-.578-2.459-.834-3.699l-1.262-5.646c-12.061-53.913-25.62-114.541-100.619-114.541-3.7 0-7.571.149-11.591.47-.62.684-1.262 1.305-1.925 1.989 85.436-7.506 99.785 56.201 112.36 112.509l1.262 5.646c2.138 9.453 4.17 18.627 6.522 27.181-1.454-4.704-2.865-9.559-4.277-14.499l-3.122-10.864c-14.499-50.47-30.902-107.356-103.913-107.356-4.063 0-8.254.15-12.681.578-2.866.214-5.732.513-8.619.877-.513.684-1.09 1.347-1.625 2.031 3.443-.47 6.95-.834 10.393-1.155 82.356-6.864 99.465 52.78 114.606 105.389z"/>
    <g>
      <path fill="#fff" d="M618.196 334.67c-33.767 1.304-70.764 55.581-77.18 62.724-18.263 20.252-35.479 39.392-69.781 39.392-33.768 0-50.983-15.611-68.733-32.57-20.103-64.713-39.307-125.256-82.399-125.256-43.049 0-63.258 50.15-82.826 98.695-18.413 45.722-35.8 88.878-68.306 88.878h-.47c.834 3.336 1.775 6.63 2.758 9.923.578 1.818 1.155 3.7 1.775 5.539 16.852-1.262 30.069-10.479 41.125-24.166a7.651 7.651 0 001.989-1.411c4.384-4.341 8.618-9.346 12.639-14.82l.149-.214c7.87-6.844 14.821-14.457 21.493-21.856 18.263-20.252 35.479-39.35 69.781-39.35 33.704 0 50.94 15.655 68.669 32.571 20.102 64.67 39.307 125.255 82.399 125.255 43.049 0 63.258-50.149 82.826-98.695 18.413-45.722 35.799-88.878 68.305-88.878h.514a228.859 228.859 0 00-2.759-9.966 169.337 169.337 0 01-1.968-5.795zm-298.093-40.034c19.055 0 33.297 20.979 45.402 50-11.998-12.468-26.519-20.552-45.402-20.552-25.042 0-42.386 12.938-56.458 30.838 14.713-33.618 30.902-60.286 56.458-60.286zm0 69.931c-25.941 0-43.99 9.345-58.554 21.492 15.077-25.62 31.523-46.385 58.554-46.385 22.433 0 37.574 16.275 50.769 38.409-13.13-7.977-29.063-13.516-50.769-13.516zm151.089 157.825c-19.054 0-33.297-20.936-45.402-49.935 11.998 12.468 26.519 20.552 45.445 20.552 25 0 42.322-12.896 56.372-30.796-14.713 33.554-30.902 60.179-56.415 60.179zm.043-45.038c-22.498 0-37.682-16.274-50.834-38.408 13.152 7.977 29.063 13.516 50.834 13.516 25.876 0 43.947-9.346 58.447-21.493-15.013 25.599-31.459 46.385-58.447 46.385z"/>
    </g>
  </g>
  <defs>
    <linearGradient id="paint0_linear_1_53" x1="629.273" x2="161.626" y1="408.392" y2="408.392" gradientUnits="userSpaceOnUse">
      <stop stop-color="#4F93DD"/>
      <stop offset=".004" stop-color="#4F92DC"/>
      <stop offset=".008" stop-color="#4E92DC"/>
      <stop offset=".012" stop-color="#4E91DB"/>
      <stop offset=".016" stop-color="#4E91DA"/>
      <stop offset=".02" stop-color="#4D90D9"/>
      <stop offset=".023" stop-color="#4D8FD9"/>
      <stop offset=".027" stop-color="#4D8FD8"/>
      <stop offset=".031" stop-color="#4C8ED7"/>
      <stop offset=".035" stop-color="#4C8ED6"/>
      <stop offset=".039" stop-color="#4C8DD6"/>
      <stop offset=".043" stop-color="#4B8DD5"/>
      <stop offset=".047" stop-color="#4B8CD4"/>
      <stop offset=".051" stop-color="#4B8BD3"/>
      <stop offset=".055" stop-color="#4A8BD3"/>
      <stop offset=".059" stop-color="#4A8AD2"/>
      <stop offset=".063" stop-color="#4A8AD1"/>
      <stop offset=".066" stop-color="#4A89D0"/>
      <stop offset=".07" stop-color="#4989D0"/>
      <stop offset=".074" stop-color="#4988CF"/>
      <stop offset=".078" stop-color="#4987CE"/>
      <stop offset=".082" stop-color="#4887CD"/>
      <stop offset=".086" stop-color="#4886CD"/>
      <stop offset=".09" stop-color="#4886CC"/>
      <stop offset=".094" stop-color="#4785CB"/>
      <stop offset=".098" stop-color="#4785CA"/>
      <stop offset=".102" stop-color="#4784CA"/>
      <stop offset=".105" stop-color="#4683C9"/>
      <stop offset=".109" stop-color="#4683C8"/>
      <stop offset=".113" stop-color="#4682C7"/>
      <stop offset=".117" stop-color="#4582C7"/>
      <stop offset=".121" stop-color="#4581C6"/>
      <stop offset=".125" stop-color="#4581C5"/>
      <stop offset=".129" stop-color="#4480C4"/>
      <stop offset=".133" stop-color="#447FC4"/>
      <stop offset=".137" stop-color="#447FC3"/>
      <stop offset=".141" stop-color="#437EC2"/>
      <stop offset=".144" stop-color="#437EC1"/>
      <stop offset=".148" stop-color="#437DC1"/>
      <stop offset=".152" stop-color="#427DC0"/>
      <stop offset=".156" stop-color="#427CBF"/>
      <stop offset=".16" stop-color="#427BBE"/>
      <stop offset=".164" stop-color="#417BBE"/>
      <stop offset=".168" stop-color="#417ABD"/>
      <stop offset=".172" stop-color="#417ABC"/>
      <stop offset=".176" stop-color="#4079BB"/>
      <stop offset=".18" stop-color="#4079BB"/>
      <stop offset=".184" stop-color="#4078BA"/>
      <stop offset=".188" stop-color="#3F77B9"/>
      <stop offset=".191" stop-color="#3F77B8"/>
      <stop offset=".195" stop-color="#3F76B8"/>
      <stop offset=".199" stop-color="#3E76B7"/>
      <stop offset=".203" stop-color="#3E75B6"/>
      <stop offset=".207" stop-color="#3E75B5"/>
      <stop offset=".211" stop-color="#3D74B5"/>
      <stop offset=".215" stop-color="#3D73B4"/>
      <stop offset=".219" stop-color="#3D73B3"/>
      <stop offset=".223" stop-color="#3C72B2"/>
      <stop offset=".227" stop-color="#3C72B2"/>
      <stop offset=".231" stop-color="#3C71B1"/>
      <stop offset=".234" stop-color="#3B71B0"/>
      <stop offset=".238" stop-color="#3B70AF"/>
      <stop offset=".242" stop-color="#3B6FAE"/>
      <stop offset=".246" stop-color="#3A6FAE"/>
      <stop offset=".25" stop-color="#3A6EAD"/>
      <stop offset=".254" stop-color="#3A6EAC"/>
      <stop offset=".258" stop-color="#3A6DAB"/>
      <stop offset=".262" stop-color="#396DAB"/>
      <stop offset=".266" stop-color="#396CAA"/>
      <stop offset=".27" stop-color="#396BA9"/>
      <stop offset=".273" stop-color="#386BA8"/>
      <stop offset=".277" stop-color="#386AA8"/>
      <stop offset=".281" stop-color="#386AA7"/>
      <stop offset=".285" stop-color="#3769A6"/>
      <stop offset=".289" stop-color="#3769A5"/>
      <stop offset=".293" stop-color="#3768A5"/>
      <stop offset=".297" stop-color="#3667A4"/>
      <stop offset=".301" stop-color="#3667A3"/>
      <stop offset=".305" stop-color="#3666A2"/>
      <stop offset=".309" stop-color="#3566A2"/>
      <stop offset=".313" stop-color="#3565A1"/>
      <stop offset=".316" stop-color="#3565A0"/>
      <stop offset=".32" stop-color="#34649F"/>
      <stop offset=".324" stop-color="#34639F"/>
      <stop offset=".328" stop-color="#34639E"/>
      <stop offset=".332" stop-color="#33629D"/>
      <stop offset=".336" stop-color="#33629C"/>
      <stop offset=".34" stop-color="#33619C"/>
      <stop offset=".344" stop-color="#32619B"/>
      <stop offset=".348" stop-color="#32609A"/>
      <stop offset=".352" stop-color="#325F99"/>
      <stop offset=".355" stop-color="#315F99"/>
      <stop offset=".359" stop-color="#315E98"/>
      <stop offset=".363" stop-color="#315E97"/>
      <stop offset=".367" stop-color="#305D96"/>
      <stop offset=".371" stop-color="#305D96"/>
      <stop offset=".375" stop-color="#305C95"/>
      <stop offset=".379" stop-color="#2F5B94"/>
      <stop offset=".383" stop-color="#2F5B93"/>
      <stop offset=".387" stop-color="#2F5A93"/>
      <stop offset=".391" stop-color="#2E5A92"/>
      <stop offset=".395" stop-color="#2E5991"/>
      <stop offset=".398" stop-color="#2E5990"/>
      <stop offset=".402" stop-color="#2D5890"/>
      <stop offset=".406" stop-color="#2D578F"/>
      <stop offset=".41" stop-color="#2D578E"/>
      <stop offset=".414" stop-color="#2C568D"/>
      <stop offset=".418" stop-color="#2C568D"/>
      <stop offset=".422" stop-color="#2C558C"/>
      <stop offset=".426" stop-color="#2B558B"/>
      <stop offset=".43" stop-color="#2B548A"/>
      <stop offset=".434" stop-color="#2B538A"/>
      <stop offset=".438" stop-color="#2B5389"/>
      <stop offset=".441" stop-color="#2A5288"/>
      <stop offset=".445" stop-color="#2A5287"/>
      <stop offset=".449" stop-color="#2A5187"/>
      <stop offset=".453" stop-color="#295186"/>
      <stop offset=".457" stop-color="#295085"/>
      <stop offset=".461" stop-color="#295084"/>
      <stop offset=".465" stop-color="#284F84"/>
      <stop offset=".469" stop-color="#284E83"/>
      <stop offset=".473" stop-color="#284E82"/>
      <stop offset=".477" stop-color="#274D81"/>
      <stop offset=".48" stop-color="#274D81"/>
      <stop offset=".484" stop-color="#274C80"/>
      <stop offset=".488" stop-color="#264C7F"/>
      <stop offset=".492" stop-color="#264B7E"/>
      <stop offset=".496" stop-color="#264A7E"/>
      <stop offset=".5" stop-color="#254A7D"/>
      <stop offset=".504" stop-color="#25497C"/>
      <stop offset=".508" stop-color="#25497B"/>
      <stop offset=".512" stop-color="#24487B"/>
      <stop offset=".516" stop-color="#24487A"/>
      <stop offset=".519" stop-color="#244779"/>
      <stop offset=".523" stop-color="#234678"/>
      <stop offset=".527" stop-color="#234678"/>
      <stop offset=".531" stop-color="#234577"/>
      <stop offset=".535" stop-color="#224576"/>
      <stop offset=".539" stop-color="#224475"/>
      <stop offset=".543" stop-color="#224475"/>
      <stop offset=".547" stop-color="#214374"/>
      <stop offset=".551" stop-color="#214273"/>
      <stop offset=".555" stop-color="#214272"/>
      <stop offset=".559" stop-color="#204172"/>
      <stop offset=".563" stop-color="#204171"/>
      <stop offset=".566" stop-color="#204070"/>
      <stop offset=".57" stop-color="#1F406F"/>
      <stop offset=".574" stop-color="#1F3F6F"/>
      <stop offset=".578" stop-color="#1F3E6E"/>
      <stop offset=".582" stop-color="#1E3E6D"/>
      <stop offset=".586" stop-color="#1E3D6C"/>
      <stop offset=".59" stop-color="#1E3D6C"/>
      <stop offset=".594" stop-color="#1D3C6B"/>
      <stop offset=".598" stop-color="#1D3C6A"/>
      <stop offset=".602" stop-color="#1D3B69"/>
      <stop offset=".606" stop-color="#1C3A69"/>
      <stop offset=".609" stop-color="#1C3A68"/>
      <stop offset=".613" stop-color="#1C3967"/>
      <stop offset=".617" stop-color="#1B3966"/>
      <stop offset=".621" stop-color="#1B3866"/>
      <stop offset=".625" stop-color="#1B3865"/>
      <stop offset=".629" stop-color="#1B3764"/>
      <stop offset=".633" stop-color="#1A3663"/>
      <stop offset=".641" stop-color="#1A3663"/>
      <stop offset=".656" stop-color="#1A3663"/>
      <stop offset=".688" stop-color="#1A3663"/>
      <stop offset=".75" stop-color="#1A3663"/>
      <stop offset="1" stop-color="#1B3663"/>
    </linearGradient>
  </defs>
</svg>
