<svg xmlns="http://www.w3.org/2000/svg" fill="none" viewBox="0 0 861 301">
  <path fill="#072848" d="M290.73 233.4c8.04.66 14.97 3.12 21.31 8.26 5.34 4.32 8.11 9.44 9.73 15.88 1.68 6.7 1.8 13.15-.96 19.42-1.88 4.27-3.85 8.69-6.74 12.28-4.15 5.15-9.58 8.4-16.59 9.43-7.09 1.04-13.3-.57-19.27-3.73-7.58-4.01-13.28-9.98-16.44-18.05-2.5-6.39-2.59-12.97-1.25-19.72 1.59-7.95 5.49-13.86 12.45-18.32 5.62-3.61 11.63-4.56 17.76-5.46M579.689 213 592 156.02h-15.647l-7.149 42.172h-2.661l-7.407-42.172h-15.647L556.138 213h23.551ZM533.7 156.02h-14.814V213H533.7v-56.98ZM495.375 213v-44.624h13.146V156H466.92v12.376h13.642V213h14.813Zm-57.307-45.126h2.819l4.984 23.99h-12.986l5.183-23.99ZM428.496 213l2.324-9.423h16.799l2.502 9.423h14.893l-13.642-56.98h-23.868L413.941 213h14.555Zm-21.187 0v-12.376h-20.632V156h-14.813v56.98l35.445.02Zm-47.141 0v-12.196h-24.623v-10.528h19.639v-12.035h-19.639v-10.106h24.623V156.02h-39.436V213h39.436Zm-81.335-45.045h7.903c2.443 0 4.23.642 5.362 1.928 1.132 1.286 1.708 3.235 1.708 5.807 0 1.567-.219 2.953-.676 4.159-.436 1.205-1.151 2.15-2.124 2.813-.973.683-2.264 1.004-3.872 1.004h-8.321v-15.752l.02.041Zm0 45.045v-17.259h8.817L293.309 213h15.231l-7.407-20.714c2.561-1.507 4.488-3.657 5.778-6.39 1.311-2.752 1.946-6.168 1.946-10.266 0-5.104-.814-9.082-2.462-11.915-1.628-2.833-4.091-4.822-7.367-5.987-3.276-1.145-7.387-1.728-12.311-1.728H264v56.98l14.833.02ZM828.31 93.218h7.132c2.279 0 4.101.335 5.488.986 1.387.67 2.437 1.657 3.15 2.979.714 1.322 1.209 2.9 1.486 4.754.278 1.855.416 3.926.416 6.234 0 2.309-.119 4.656-.336 6.688-.218 2.032-.694 3.808-1.407 5.287a7.961 7.961 0 0 1-3.19 3.472c-1.407.829-3.269 1.243-5.607 1.243h-7.132V93.218Zm8.222 43.815c4.596 0 8.46-.67 11.61-1.992 3.15-1.322 5.666-3.255 7.548-5.78 1.883-2.526 3.23-5.564 4.062-9.095.832-3.531 1.248-7.516 1.248-11.975 0-4.458-.436-8.305-1.327-11.698-.892-3.394-2.318-6.234-4.28-8.523-1.961-2.288-4.557-4.005-7.766-5.169-3.21-1.164-7.113-1.736-11.709-1.736H813.51v55.949h23.002l.02.019Zm-70.373 0v-32.728h1.407l15.849 32.728h16.603V81.085h-14.78v31.742h-1.327l-15.949-31.742h-16.603v55.948h14.8Zm-28.292-55.948h-14.78v55.948h14.78V81.085Zm-35.583 55.179c3.091-1.184 5.449-3.137 7.054-5.879 1.604-2.722 2.397-6.352 2.397-10.87 0-2.979-.337-5.405-.991-7.319-.673-1.894-1.723-3.452-3.189-4.676-1.467-1.203-3.428-2.229-5.845-3.057-2.437-.829-5.448-1.618-9.054-2.388-2.318-.552-4.101-1.025-5.35-1.44-1.248-.414-2.119-.927-2.615-1.578-.495-.631-.753-1.5-.753-2.604 0-1.48.555-2.565 1.665-3.216 1.109-.67 2.912-.986 5.389-.986 1.723 0 3.704.079 5.983.256 2.278.158 4.517.336 6.776.533 2.238.197 4.2.375 5.844.533l.575-11.58c-1.764-.336-3.864-.632-6.261-.908a358.415 358.415 0 0 0-7.39-.75c-2.516-.217-4.775-.335-6.776-.335-4.259 0-7.944.533-11.035 1.578-3.091 1.046-5.488 2.86-7.172 5.465C669.852 89.627 669 93.297 669 98.03c0 3.749.614 6.767 1.823 9.055 1.208 2.289 3.229 4.064 6.062 5.327 2.814 1.263 6.618 2.308 11.372 3.137 2.318.394 4.102.789 5.35 1.203 1.248.414 2.08.908 2.536 1.48.455.572.673 1.361.673 2.347 0 1.756-.535 3.078-1.624 3.926-1.07.848-2.893 1.282-5.429 1.282-1.763 0-3.843-.098-6.221-.295a205.341 205.341 0 0 1-7.093-.711 372.47 372.47 0 0 0-6.181-.67l-.753 11.323c1.664.336 3.705.711 6.142 1.125 2.437.414 4.993.75 7.687 1.026a75.17 75.17 0 0 0 7.687.414c4.418 0 8.183-.592 11.293-1.775m-93.715 1.042v-32.851h1.406l15.841 32.851h16.594V81.109h-14.772v31.86h-1.327l-15.92-31.86h-16.594v56.157h14.772Zm-26.435 0v-12.02h-24.553V114.87h19.583v-11.861h-19.583v-9.96h24.553V81.11h-39.325v56.157h39.325Zm-51.087 0v-12.198h-22.158v-1.485l22.158-29.702V81.109h-41.563v12.198h22.316v1.485l-22.316 30.197v12.277h41.563Zm-87.166 0v-32.851h1.406l15.841 32.851h16.593V81.109H462.99v31.86h-1.327l-15.92-31.86h-16.594v56.157h14.772Zm-26.435 0v-12.02h-24.554V114.87h19.584v-11.861h-19.584v-9.96h24.554V81.11H378.16v56.157h39.326Zm-81.107-44.375h7.881c2.436 0 4.218.633 5.347 1.9 1.128 1.268 1.703 3.189 1.703 5.723 0 1.545-.218 2.911-.674 4.099-.435 1.188-1.148 2.119-2.118 2.772-.971.674-2.258.99-3.862.99h-8.296V92.871l.019.02Zm0 44.375v-17.01h8.792l5.644 17.01h15.187l-7.386-20.416c2.535-1.485 4.475-3.603 5.763-6.296 1.306-2.713 1.94-6.079 1.94-10.119 0-5.03-.812-8.95-2.455-11.742-1.624-2.792-4.079-4.752-7.347-5.881-3.267-1.129-7.346-1.703-12.277-1.703h-22.652v56.157h14.791Zm-43.583.534c1.743-.138 3.584-.316 5.525-.534a145.54 145.54 0 0 0 5.643-.753c1.822-.277 3.426-.515 4.812-.752v-30.039h-18.831l.079 10.792h4.891v8.792c-.554.059-1.168.118-1.861.198a72.21 72.21 0 0 1-2.119.218c-.713.059-1.386.079-2 .079-2.871 0-5.089-.614-6.633-1.822-1.545-1.208-2.594-3.049-3.109-5.525-.535-2.455-.792-5.564-.792-9.326 0-2.99.119-5.525.376-7.624.257-2.099.752-3.802 1.485-5.108.752-1.307 1.861-2.258 3.327-2.872 1.465-.614 3.445-.91 5.94-.91 1.822 0 3.901.079 6.218.217 2.317.139 4.614.297 6.891.495 2.257.198 4.198.396 5.801.614l.08-11.287c-1.604-.435-3.545-.851-5.842-1.247-2.297-.396-4.712-.713-7.267-.99a66.602 66.602 0 0 0-7.208-.416c-4.534 0-8.376.555-11.524 1.663-3.148 1.11-5.703 2.812-7.663 5.149-1.96 2.317-3.366 5.326-4.238 9.01-.851 3.682-1.287 8.118-1.287 13.306 0 4.812.357 9.029 1.07 12.653.712 3.624 1.98 6.634 3.821 9.049 1.822 2.396 4.337 4.198 7.545 5.386 3.207 1.188 7.326 1.782 12.356 1.782 1.267 0 2.772-.079 4.514-.198Zm-79.156-19.19-.62-.62-.84.27c-.84.28-1.89 1.12-2.09 3.57-.29 3.53 1.33 10.04 4.07 11.46.42.22.86.33 1.29.33.64 0 1.28-.24 1.85-.71l.98-.81-.69-1.07c-.78-1.2-1.09-3.22-1.38-5.17-.41-2.7-.83-5.5-2.57-7.25Z"/>
  <path fill="#072848" d="m234.35 154.24.06-.99-.16.39-.24-1.51c-.21-1.32-.36-2.76-.5-4.16-.43-4.21-.88-8.56-3.09-11.25l-2.96-3.61.44 4.65c.13 1.37.13 2.96.13 4.5 0 4.75 0 10.13 4.14 11.45l1.82.58-2.9 7.26c-2.4 6-3.86 11.99-5.27 17.78-1.33 5.44-2.58 10.57-4.52 15.52-12.88 32.77-38.82 54.5-72.16 60.97 41.52-18.28 67.42-50.71 77.06-96.56l-2.72-.83c-1.88 4.6-3.51 9.51-5.09 14.25-.78 2.33-1.56 4.67-2.37 6.99 1.27-4.96 1.69-9.73.35-13.87l-1.1-3.41 1.06-.15c1.19-.17 2.12-1.22 2.7-3.02.46-1.46.92-4.55-.51-6.1l.33-2.06c.02-.13 1.54-13.02-2.15-15.54l-1.61-1.1-.56 1.88c-.86 2.89-1.25 12.96 2.01 15.64l.5.41c-.45-.06-.92 0-1.4.17l-.93.35v7.82l-1.08 5.27c-11.54 56.61-43.25 82.71-99.85 82.09l-.17 2.85c22.36 2.49 39.7-3.03 53.24-8.82-26.92 18.86-58.82 21.3-87.26 6.14-5.13-2.73-18.13-10.21-27.94-20.53-21.19-22.26-32.68-57.11-29.26-88.77 2.87-26.6 15.88-48.99 36.65-63.05 15.2-10.3 39.22-15.85 64.22-14.85 26.58 1.06 50.15 9.46 64.67 23.03 3.9 3.65 6.08 7.84 8.39 12.28 2.7 5.18 5.48 10.54 11.22 15.82l2.06 1.89.33-2.78c.32-2.64-1.26-5.65-3.17-8.86 4.58 5.38 8.69 11.9 12.44 19.71l4.59 9.55-1.89-10.42c-7.3-40.19-39.79-58.38-67.28-69.73-35.99-14.87-76.07-11.88-107.19 8C18.8 77.76 1.59 107.53.15 141.22c-1.38 32.38 7.13 62.23 23.96 84.06 17.81 23.1 43.87 36.64 75.35 39.15 5.57.45 11.01.67 16.32.67 34.28 0 62.92-9.23 83.51-27.06 20.57-17.81 32.51-44.04 34.55-75.86l.5-7.77h.04l-.03-.17Z"/>
  <path fill="#072848" d="M223.41 140.9c.15 1.46.07 3.33-.02 5.13-.15 3.41-.3 6.63.87 8.65l2.06 3.53.72-4.85c.94-6.01 1.66-12.54-1.66-13.93l-2.22-.93.25 2.4Z"/>
  <path fill="#D9AD06" d="M143.85 0c11.72.96 21.82 4.55 31.06 12.04 7.78 6.3 11.83 13.76 14.19 23.15 2.45 9.76 2.63 19.17-1.4 28.31-2.74 6.22-5.61 12.67-9.82 17.9-6.05 7.51-13.97 12.25-24.19 13.75-10.33 1.51-19.39-.83-28.09-5.43-11.04-5.84-19.36-14.55-23.96-26.31-3.64-9.32-3.78-18.9-1.82-28.74 2.31-11.59 8-20.2 18.15-26.71 8.19-5.26 16.96-6.65 25.88-7.96Z"/>
  <path fill="#FF6400" d="M70.49 88c8.04.66 14.97 3.12 21.31 8.26 5.34 4.32 8.11 9.44 9.73 15.88 1.68 6.7 1.8 13.15-.96 19.42-1.88 4.27-3.85 8.69-6.74 12.28-4.15 5.15-9.58 8.4-16.59 9.43-7.09 1.04-13.3-.57-19.27-3.73-7.58-4.01-13.28-9.98-16.44-18.05-2.5-6.39-2.59-12.97-1.25-19.72 1.59-7.95 5.49-13.86 12.45-18.32 5.62-3.61 11.63-4.56 17.76-5.46"/>
  <path fill="#072848" d="M739.953 201.679h-2a2.823 2.823 0 0 0-2.812 2.812v4.416a2.823 2.823 0 0 0 2.812 2.812h2a2.824 2.824 0 0 0 2.812-2.812v-4.416a2.824 2.824 0 0 0-2.812-2.812Zm-28.97 7.921 13.168-51.622a2.81 2.81 0 0 0-2.732-3.505h-1.723a2.814 2.814 0 0 0-2.733 2.138l-11.544 46.355a2.835 2.835 0 0 1-2.732 2.139 2.813 2.813 0 0 1-2.733-2.139l-11.485-46.335a2.836 2.836 0 0 0-2.732-2.139h-1.802c-1.842 0-3.188 1.743-2.713 3.505l13.326 51.623a2.796 2.796 0 0 0 2.713 2.099h10.99a2.8 2.8 0 0 0 2.732-2.119Zm-43.286-7.921h-2a2.823 2.823 0 0 0-2.811 2.812v4.416a2.823 2.823 0 0 0 2.811 2.812h2a2.823 2.823 0 0 0 2.812-2.812v-4.416a2.823 2.823 0 0 0-2.812-2.812Zm-43.483-23.484c1.801-2.04 4.376-3.069 7.762-3.069 3.386 0 6 .99 7.544 2.95 1.208 1.525 1.941 3.94 2.198 7.227.139 1.624-1.188 3.01-2.812 3.01h-14.435c-1.644 0-2.97-1.406-2.812-3.049.317-3.129 1.168-5.505 2.555-7.069Zm12.534 34.137c2.02-.138 4-.316 5.94-.534.852-.099 1.644-.198 2.376-.297a2.816 2.816 0 0 0 2.436-2.871v-.06a2.81 2.81 0 0 0-2.99-2.732c-.554.039-1.168.079-1.802.118-1.861.119-3.723.198-5.604.297-1.881.08-3.604.119-5.148.119-3.921 0-6.634-1.069-8.139-3.188-1.089-1.544-1.801-3.643-2.118-6.237-.198-1.644 1.148-3.089 2.812-3.089h21.504a2.817 2.817 0 0 0 2.812-2.634l.158-2.396v-.257c-.02-6.693-1.445-11.564-4.277-14.614-2.851-3.069-7.089-4.613-12.732-4.613-3.644 0-6.792.732-9.426 2.198-2.633 1.465-4.653 3.801-6.099 7.009-1.445 3.208-2.158 7.406-2.158 12.614 0 4.693.535 8.633 1.624 11.782 1.089 3.148 2.831 5.524 5.267 7.128 2.435 1.604 5.742 2.396 9.96 2.396 1.723 0 3.584-.079 5.604-.198"/>
</svg>
