<svg xmlns="http://www.w3.org/2000/svg" xmlns:xlink="http://www.w3.org/1999/xlink" viewBox="0 0 278 115">
  <defs>
    <path id="group-3-copy-a" d="M0 0H45V91H0z"/>
    <path id="group-3-copy-c" d="M0 0H45V91H0z"/>
  </defs>
  <g fill="none" fill-rule="evenodd" transform="translate(-7 -2)">
    <g fill-rule="nonzero" transform="translate(103.902 2.735)">
      <path fill="#000" d="M10.004,27.634 C12.956,27.634 15.7303333,27.1693333 18.327,26.24 L18.327,26.24 L18.327,13.038 L10.414,13.038 L10.414,16.81 L14.227,16.81 L14.227,23.165 C12.751,23.5203333 11.3433333,23.698 10.004,23.698 C8.118,23.698 6.7035,22.8985 5.7605,21.2995 C4.8175,19.7005 4.346,17.1653333 4.346,13.694 C4.346,10.2226667 4.79016667,7.708 5.6785,6.15 C6.56683333,4.592 8.09066667,3.813 10.25,3.813 C12.874,3.813 15.1426667,4.141 17.056,4.797 L17.056,4.797 L17.794,1.148 C15.5526667,0.382666667 13.038,7.10542736e-15 10.25,7.10542736e-15 C6.724,7.10542736e-15 4.13416667,1.107 2.4805,3.321 C0.826833333,5.535 5.68434189e-14,9.061 5.68434189e-14,13.899 C5.68434189e-14,18.737 0.7995,22.2356667 2.3985,24.395 C3.9975,26.5543333 6.53266667,27.634 10.004,27.634 Z M37.366923,27.265 L37.366923,23.575 L31.257923,23.575 L31.257923,13.53 C33.0072563,12.546 35.3852563,11.9173333 38.391923,11.644 L38.391923,11.644 L39.498923,11.644 L39.498923,7.544 L38.391923,7.544 C35.7132563,7.84466667 33.3352563,8.58266667 31.257923,9.758 L31.257923,9.758 L31.175923,7.79 L22.975923,7.79 L22.975923,11.562 L26.952923,11.562 L26.952923,23.493 L22.975923,23.493 L22.975923,27.265 L37.366923,27.265 Z M52.839846,27.716 C53.741846,27.716 54.889846,27.5998333 56.283846,27.3675 C57.677846,27.1351667 58.8121793,26.8686667 59.686846,26.568 L59.686846,26.568 L58.825846,23.001 C56.7211793,23.6843333 54.725846,24.026 52.839846,24.026 C50.133846,24.026 48.657846,22.55 48.411846,19.598 L48.411846,19.598 L60.383846,19.598 L60.547846,16.564 C60.4931793,13.5846667 59.748346,11.3228333 58.313346,9.7785 C56.878346,8.23416667 54.848846,7.462 52.224846,7.462 C49.600846,7.462 47.550846,8.31616667 46.074846,10.0245 C44.598846,11.7328333 43.860846,14.2406667 43.860846,17.548 C43.860846,24.3266667 46.853846,27.716 52.839846,27.716 Z M55.996846,16.154 L48.411846,16.154 C48.493846,14.4046667 48.8560127,13.1541667 49.498346,12.4025 C50.1406793,11.6508333 51.1041793,11.275 52.388846,11.275 C54.7941793,11.275 55.996846,12.9013333 55.996846,16.154 L55.996846,16.154 Z M69.747769,27.265 L69.747769,12.874 C71.797769,11.9173333 73.314769,11.439 74.298769,11.439 C75.282769,11.439 76.0071023,11.808 76.471769,12.546 C76.9364357,13.284 77.168769,14.309 77.168769,15.621 L77.168769,15.621 L77.168769,27.265 L81.391769,27.265 L81.391769,15.498 C81.391769,12.7373333 80.8656023,10.7078333 79.813269,9.4095 C78.7609357,8.11116667 77.127769,7.462 74.913769,7.462 C73.6564357,7.462 71.920769,7.96766667 69.706769,8.979 L69.706769,8.979 L69.624769,7.79 L65.524769,7.79 L65.524769,27.265 L69.747769,27.265 Z M102.112692,27.265 L102.112692,23.493 L93.338692,23.493 L102.071692,11.193 L101.825692,7.79 L87.926692,7.79 L87.926692,11.562 L96.372692,11.562 L87.434692,24.313 L87.762692,27.265 L102.112692,27.265 Z M116.970615,27.716 C117.872615,27.716 119.020615,27.5998333 120.414615,27.3675 C121.808615,27.1351667 122.942948,26.8686667 123.817615,26.568 L123.817615,26.568 L122.956615,23.001 C120.851948,23.6843333 118.856615,24.026 116.970615,24.026 C114.264615,24.026 112.788615,22.55 112.542615,19.598 L112.542615,19.598 L124.514615,19.598 L124.678615,16.564 C124.623948,13.5846667 123.879115,11.3228333 122.444115,9.7785 C121.009115,8.23416667 118.979615,7.462 116.355615,7.462 C113.731615,7.462 111.681615,8.31616667 110.205615,10.0245 C108.729615,11.7328333 107.991615,14.2406667 107.991615,17.548 C107.991615,24.3266667 110.984615,27.716 116.970615,27.716 Z M120.127615,16.154 L112.542615,16.154 C112.624615,14.4046667 112.986782,13.1541667 113.629115,12.4025 C114.271448,11.6508333 115.234948,11.275 116.519615,11.275 C118.924948,11.275 120.127615,12.9013333 120.127615,16.154 L120.127615,16.154 Z M133.878538,27.265 L133.878538,12.874 C135.928538,11.9173333 137.445538,11.439 138.429538,11.439 C139.413538,11.439 140.137871,11.808 140.602538,12.546 C141.067205,13.284 141.299538,14.309 141.299538,15.621 L141.299538,15.621 L141.299538,27.265 L145.522538,27.265 L145.522538,15.498 C145.522538,12.7373333 144.996371,10.7078333 143.944038,9.4095 C142.891705,8.11116667 141.258538,7.462 139.044538,7.462 C137.787205,7.462 136.051538,7.96766667 133.837538,8.979 L133.837538,8.979 L133.755538,7.79 L129.655538,7.79 L129.655538,27.265 L133.878538,27.265 Z M9.348,70.675 C14.432,70.675 16.974,68.6113333 16.974,64.484 C16.974,62.68 16.482,61.4021667 15.498,60.6505 C14.514,59.8988333 12.9696667,59.236 10.865,58.662 C8.76033333,58.088 7.45516667,57.6575 6.9495,57.3705 C6.44383333,57.0835 6.191,56.6256667 6.191,55.997 C6.191,55.3683333 6.44383333,54.9241667 6.9495,54.6645 C7.45516667,54.4048333 8.446,54.275 9.922,54.275 C11.398,54.275 13.489,54.6576667 16.195,55.423 L16.195,55.423 L16.974,51.528 C14.1313333,50.8173333 11.6303333,50.462 9.471,50.462 C4.44166667,50.462 1.927,52.4163333 1.927,56.325 C1.927,58.1563333 2.46,59.4751667 3.526,60.2815 C4.592,61.0878333 6.478,61.819 9.184,62.475 C10.5506667,62.803 11.48,63.1173333 11.972,63.418 C12.464,63.7186667 12.71,64.2243333 12.71,64.935 C12.71,65.6456667 12.4366667,66.1376667 11.89,66.411 C11.3433333,66.7116667 10.3046667,66.862 8.774,66.862 C7.24333333,66.862 5.17966667,66.452 2.583,65.632 L2.583,65.632 L1.681,69.363 C4.41433333,70.2376667 6.97,70.675 9.348,70.675 Z M30.970923,47.961 C31.8182563,47.961 32.4742563,47.715 32.938923,47.223 C33.4035897,46.731 33.635923,46.0613333 33.635923,45.214 C33.635923,44.3666667 33.410423,43.7038333 32.959423,43.2255 C32.508423,42.7471667 31.8660897,42.508 31.032423,42.508 C30.1987563,42.508 29.535923,42.754 29.043923,43.246 C28.551923,43.738 28.305923,44.394 28.305923,45.214 C28.305923,46.034 28.5450897,46.6968333 29.023423,47.2025 C29.5017563,47.7081667 30.150923,47.961 30.970923,47.961 Z M39.088923,70.265 L39.088923,66.493 L33.307923,66.493 L33.307923,50.79 L23.303923,50.79 L23.303923,54.562 L29.084923,54.562 L29.084923,66.493 L22.975923,66.493 L22.975923,70.265 L39.088923,70.265 Z M48.370846,70.265 L48.370846,55.874 C50.420846,54.9173333 51.937846,54.439 52.921846,54.439 C53.905846,54.439 54.6301793,54.808 55.094846,55.546 C55.5595127,56.284 55.791846,57.309 55.791846,58.621 L55.791846,58.621 L55.791846,70.265 L60.014846,70.265 L60.014846,58.498 C60.014846,55.7373333 59.4886793,53.7078333 58.436346,52.4095 C57.3840127,51.1111667 55.750846,50.462 53.536846,50.462 C52.2795127,50.462 50.543846,50.9676667 48.329846,51.979 L48.329846,51.979 L48.247846,50.79 L44.147846,50.79 L44.147846,70.265 L48.370846,70.265 Z M72.617769,70.716 C74.3124357,70.716 76.0481023,70.0736667 77.824769,68.789 L77.824769,68.789 L78.193769,70.675 L82.334769,70.265 L81.924769,66.862 L81.924769,42.918 L77.742769,42.918 L77.742769,51.405 C76.266769,50.7763333 74.8044357,50.462 73.355769,50.462 C70.8684357,50.462 68.845769,51.3161667 67.287769,53.0245 C65.729769,54.7328333 64.950769,57.3636667 64.950769,60.917 C64.950769,64.4703333 65.5931023,66.9918333 66.877769,68.4815 C68.1624357,69.9711667 70.075769,70.716 72.617769,70.716 Z M72.904769,66.78 C70.6361023,66.78 69.501769,64.8256667 69.501769,60.917 C69.501769,56.571 70.854769,54.398 73.560769,54.398 C74.9274357,54.398 76.3214357,54.7396667 77.742769,55.423 L77.742769,55.423 L77.742769,64.566 C75.9661023,66.042 74.3534357,66.78 72.904769,66.78 Z M15.99,113.265 L15.99,109.575 L9.881,109.575 L9.881,99.53 C11.6303333,98.546 14.0083333,97.9173333 17.015,97.644 L17.015,97.644 L18.122,97.644 L18.122,93.544 L17.015,93.544 C14.3363333,93.8446667 11.9583333,94.5826667 9.881,95.758 L9.881,95.758 L9.799,93.79 L1.599,93.79 L1.599,97.562 L5.576,97.562 L5.576,109.493 L1.599,109.493 L1.599,113.265 L15.99,113.265 Z M31.462923,113.716 C32.364923,113.716 33.512923,113.599833 34.906923,113.3675 C36.300923,113.135167 37.4352563,112.868667 38.309923,112.568 L38.309923,112.568 L37.448923,109.001 C35.3442563,109.684333 33.348923,110.026 31.462923,110.026 C28.756923,110.026 27.280923,108.55 27.034923,105.598 L27.034923,105.598 L39.006923,105.598 L39.170923,102.564 C39.1162563,99.5846667 38.371423,97.3228333 36.936423,95.7785 C35.501423,94.2341667 33.471923,93.462 30.847923,93.462 C28.223923,93.462 26.173923,94.3161667 24.697923,96.0245 C23.221923,97.7328333 22.483923,100.240667 22.483923,103.548 C22.483923,110.326667 25.476923,113.716 31.462923,113.716 Z M34.619923,102.154 L27.034923,102.154 C27.116923,100.404667 27.4790897,99.1541667 28.121423,98.4025 C28.7637563,97.6508333 29.7272563,97.275 31.011923,97.275 C33.4172563,97.275 34.619923,98.9013333 34.619923,102.154 L34.619923,102.154 Z M60.629846,113.265 L60.629846,109.493 L54.848846,109.493 L54.848846,86 L45.295846,86.041 L45.336846,89.772 L50.625846,89.731 L50.625846,109.493 L44.516846,109.493 L44.516846,113.265 L60.629846,113.265 Z M77.291769,113.716 L81.514769,113.306 L81.063769,109.698 L81.063769,101.375 C81.063769,98.505 80.5376023,96.4686667 79.485269,95.266 C78.4329357,94.0633333 76.5401023,93.462 73.806769,93.462 C71.0734357,93.462 68.271769,93.8993333 65.401769,94.774 L65.401769,94.774 L66.180769,98.669 C67.000769,98.3956667 68.1761023,98.1223333 69.706769,97.849 C71.2374357,97.5756667 72.576769,97.439 73.724769,97.439 C74.872769,97.439 75.6791023,97.7396667 76.143769,98.341 C76.6084357,98.9423333 76.840769,100.063 76.840769,101.703 C75.3374357,101.566333 73.9981023,101.498 72.822769,101.498 C70.3354357,101.498 68.3879357,101.942167 66.980269,102.8305 C65.5726023,103.718833 64.868769,105.27 64.868769,107.484 C64.868769,111.638667 67.0554357,113.716 71.428769,113.716 C72.7681023,113.716 74.585769,113.087333 76.881769,111.83 L76.881769,111.83 L77.291769,113.716 Z M72.084769,109.739 C70.3081023,109.739 69.419769,108.987333 69.419769,107.484 C69.419769,105.789333 70.5541023,104.942 72.822769,104.942 C73.8614357,104.942 75.200769,105.010333 76.840769,105.147 L76.840769,105.147 L76.840769,108.017 C76.2941023,108.454333 75.5561023,108.850667 74.626769,109.206 C73.6974357,109.561333 72.8501023,109.739 72.084769,109.739 Z M96.864692,113.675 C98.7233587,113.675 100.841692,113.360667 103.219692,112.732 L103.219692,112.732 L102.522692,109.083 C100.363359,109.602333 98.4773587,109.862 96.864692,109.862 C95.9353587,109.862 95.3203587,109.5545 95.019692,108.9395 C94.7190253,108.3245 94.568692,107.265333 94.568692,105.762 L94.568692,105.762 L94.568692,97.562 L102.235692,97.562 L102.235692,93.79 L94.568692,93.79 L94.568692,88.706 L90.345692,89.116 L90.345692,93.79 L87.024692,93.79 L87.024692,97.562 L90.345692,97.562 L90.345692,105.762 C90.345692,108.686667 90.776192,110.736667 91.637192,111.912 C92.498192,113.087333 94.240692,113.675 96.864692,113.675 Z M116.478615,90.961 C117.325948,90.961 117.981948,90.715 118.446615,90.223 C118.911282,89.731 119.143615,89.0613333 119.143615,88.214 C119.143615,87.3666667 118.918115,86.7038333 118.467115,86.2255 C118.016115,85.7471667 117.373782,85.508 116.540115,85.508 C115.706448,85.508 115.043615,85.754 114.551615,86.246 C114.059615,86.738 113.813615,87.394 113.813615,88.214 C113.813615,89.034 114.052782,89.6968333 114.531115,90.2025 C115.009448,90.7081667 115.658615,90.961 116.478615,90.961 Z M124.596615,113.265 L124.596615,109.493 L118.815615,109.493 L118.815615,93.79 L108.811615,93.79 L108.811615,97.562 L114.592615,97.562 L114.592615,109.493 L108.483615,109.493 L108.483615,113.265 L124.596615,113.265 Z M141.668538,113.265 L146.629538,93.79 L142.119538,93.79 L138.470538,109.493 L136.953538,109.493 L133.099538,93.79 L128.630538,93.79 L133.796538,113.265 L141.668538,113.265 Z"/>
      <path fill="#24718B" d="M155.859838,113.43 C156.189838,113.43 156.609838,113.3875 157.119838,113.3025 C157.629838,113.2175 158.044838,113.12 158.364838,113.01 L158.364838,113.01 L158.049838,111.705 C157.279838,111.955 156.549838,112.08 155.859838,112.08 C154.869838,112.08 154.329838,111.54 154.239838,110.46 L154.239838,110.46 L158.619838,110.46 L158.679838,109.35 C158.659838,108.26 158.387338,107.4325 157.862338,106.8675 C157.337338,106.3025 156.594838,106.02 155.634838,106.02 C154.674838,106.02 153.924838,106.3325 153.384838,106.9575 C152.844838,107.5825 152.574838,108.5 152.574838,109.71 C152.574838,112.19 153.669838,113.43 155.859838,113.43 Z M157.014838,109.2 L154.239838,109.2 C154.269838,108.56 154.402338,108.1025 154.637338,107.8275 C154.872338,107.5525 155.224838,107.415 155.694838,107.415 C156.574838,107.415 157.014838,108.01 157.014838,109.2 L157.014838,109.2 Z M164.482396,113.265 L164.482396,111.09 L162.307396,111.09 L162.307396,113.265 L164.482396,113.265 Z M172.759954,113.265 L174.859954,103.44 L173.254954,103.44 L171.484954,111.87 L171.169954,111.87 L169.324954,103.44 L167.674954,103.44 L169.849954,113.265 L172.759954,113.265 Z M180.167512,113.265 L180.167512,111.09 L177.992512,111.09 L177.992512,113.265 L180.167512,113.265 Z"/>
    </g>
    <g transform="translate(38 30)">
      <mask id="group-3-copy-b" fill="#fff">
        <use xlink:href="#group-3-copy-a"/>
      </mask>
      <path fill="#61BBE6" fill-rule="nonzero" d="M-0.5,5 C-22.8675324,5 -41,23.1324676 -41,45.5 C-41,67.8675324 -22.8675324,86 -0.5,86 C21.8675324,86 40,67.8675324 40,45.5 C40,23.1324676 21.8675324,5 -0.5,5 Z M-0.5,11 C18.5538239,11 34,26.4461761 34,45.5 C34,64.5538239 18.5538239,80 -0.5,80 C-19.5538239,80 -35,64.5538239 -35,45.5 C-35,26.4461761 -19.5538239,11 -0.5,11 Z" mask="url(#group-3-copy-b)"/>
      <path fill="#24718B" fill-rule="nonzero" d="M-0.5,17 C-16.2401154,17 -29,29.7598846 -29,45.5 C-29,61.2401154 -16.2401154,74 -0.5,74 C15.2401154,74 28,61.2401154 28,45.5 C28,29.7598846 15.2401154,17 -0.5,17 Z M-0.5,23 C11.9264069,23 22,33.0735931 22,45.5 C22,57.9264069 11.9264069,68 -0.5,68 C-12.9264069,68 -23,57.9264069 -23,45.5 C-23,33.0735931 -12.9264069,23 -0.5,23 Z" mask="url(#group-3-copy-b)"/>
    </g>
    <g transform="matrix(-1 0 0 1 47 0)">
      <mask id="group-3-copy-d" fill="#fff">
        <use xlink:href="#group-3-copy-c"/>
      </mask>
      <path fill="#61BBE6" fill-rule="nonzero" d="M-0.5,5 C-22.8675324,5 -41,23.1324676 -41,45.5 C-41,67.8675324 -22.8675324,86 -0.5,86 C21.8675324,86 40,67.8675324 40,45.5 C40,23.1324676 21.8675324,5 -0.5,5 Z M-0.5,11 C18.5538239,11 34,26.4461761 34,45.5 C34,64.5538239 18.5538239,80 -0.5,80 C-19.5538239,80 -35,64.5538239 -35,45.5 C-35,26.4461761 -19.5538239,11 -0.5,11 Z" mask="url(#group-3-copy-d)"/>
      <path fill="#24718B" fill-rule="nonzero" d="M-0.5,17 C-16.2401154,17 -29,29.7598846 -29,45.5 C-29,61.2401154 -16.2401154,74 -0.5,74 C15.2401154,74 28,61.2401154 28,45.5 C28,29.7598846 15.2401154,17 -0.5,17 Z M-0.5,23 C11.9264069,23 22,33.0735931 22,45.5 C22,57.9264069 11.9264069,68 -0.5,68 C-12.9264069,68 -23,57.9264069 -23,45.5 C-23,33.0735931 -12.9264069,23 -0.5,23 Z" mask="url(#group-3-copy-d)"/>
    </g>
  </g>
</svg>
