<svg xmlns="http://www.w3.org/2000/svg" fill="none" viewBox="0 0 6666 897"><g clip-path="url(#a)"><path fill="#262626" d="M1283.4 266.676c23.7 0 45.4 4 65.2 11.9 19.8 7.9 37.1 18.3 51.9 31.3l-47.4 49.3c-11.7-8.5-22.3-14.7-31.8-18.5-9.5-3.8-20.2-5.7-32.2-5.7-23.1 0-40.8 8.8-53.1 26.3-12.3 17.5-18.5 44.2-18.5 79.9 0 26.9 1.9 48 5.7 63.3 3.8 15.3 9.7 26.2 17.8 32.5 8.1 6.3 18.7 9.5 32 9.5 11.7 0 22.9-2.7 33.7-8.1v-60.2h-33.2l-9-65.9h136.1v165.5c-17.4 12-37.3 21.3-59.8 28-22.4 6.6-44.1 10-65 10-54.1 0-94.1-14.8-120-44.3-25.9-29.6-38.9-73.1-38.9-130.6 0-36.3 7.1-67.6 21.3-93.9 14.2-26.2 34-46.2 59.3-59.8 25.4-13.7 54-20.5 85.9-20.5zm321.05 78.3c8.2 0 16.7 1.4 25.6 4.3l-14.7 90.6c-8.5-2.5-16.3-3.8-23.2-3.8-13.9 0-24.3 4.6-31.1 13.8-6.8 9.2-12.2 22.9-16.4 41.2v115.2h-93.9v-253.2h82l7.6 47.4c5.4-16.8 13.9-30.2 25.6-40.3 11.8-10.2 24.6-15.2 38.5-15.2zm293.12 131.3c0 7.9-.6 17.9-1.9 29.9h-153.7c2.5 17.1 7.8 28.6 15.9 34.4 8.1 5.8 19.7 8.8 34.9 8.8 8.8 0 17.9-1.8 27-5.5 9.2-3.6 19.3-9.2 30.4-16.8l37.9 51.2c-30.7 25-65.4 37.5-104.3 37.5-44.9 0-78.9-12.4-102-37.2-23.1-24.8-34.6-57.6-34.6-98.4 0-25.3 4.8-48.3 14.5-69 9.6-20.7 23.9-37.1 42.9-49.3 19-12.2 41.9-18.3 68.8-18.3 25 0 46.8 5.2 65.4 15.7 18.7 10.4 33.1 25.6 43.4 45.5 10.2 19.9 15.4 43.7 15.4 71.5zm-92.5-26.5c-.3-14.9-2.6-26.4-6.9-34.6-4.3-8.2-11.9-12.3-23-12.3-10.4 0-18.3 3.6-23.5 10.9-5.2 7.3-8.6 20.4-10.2 39.3h63.5v-3.3h.1zm297.31-106.2c21.2 0 37.9 6.6 50 19.9 12.2 13.3 18.2 31.9 18.2 56v186.8h-93.9v-169.8c0-9.5-1.2-16-3.6-19.4-2.4-3.5-5.9-5.2-10.6-5.2-10.4 0-21 8.4-31.8 25.1v169.3h-93.9v-253.2h82l6.6 26.1c11.7-12.3 23.6-21.3 35.8-27 12.3-5.8 26-8.6 41.2-8.6zm315.34 9.5v65l-103.8 119h107.2l-8.1 69.2h-208.7v-65.4l105.3-119.5h-95.8v-68.3h203.9zm280.27 123.2c0 7.9-.6 17.9-1.9 29.9h-153.7c2.5 17.1 7.8 28.6 15.9 34.4 8.1 5.8 19.7 8.8 34.9 8.8 8.8 0 17.9-1.8 27-5.5 9.2-3.6 19.3-9.2 30.4-16.8l37.9 51.2c-30.7 25-65.4 37.5-104.3 37.5-44.9 0-78.9-12.4-102-37.2-23.1-24.8-34.6-57.6-34.6-98.4 0-25.3 4.8-48.3 14.5-69 9.6-20.7 23.9-37.1 42.9-49.3 19-12.2 41.9-18.3 68.8-18.3 25 0 46.8 5.2 65.4 15.7 18.7 10.4 33.1 25.6 43.4 45.5 10.2 19.9 15.4 43.7 15.4 71.5zm-92.5-26.5c-.3-14.9-2.6-26.4-6.9-34.6-4.3-8.2-11.9-12.3-23-12.3-10.4 0-18.3 3.6-23.5 10.9-5.2 7.3-8.6 20.4-10.2 39.3h63.5v-3.3h.1zm297.31-106.2c21.2 0 37.9 6.6 50 19.9 12.2 13.3 18.2 31.9 18.2 56v186.8h-93.9v-169.8c0-9.5-1.2-16-3.6-19.4-2.4-3.5-5.9-5.2-10.6-5.2-10.4 0-21 8.4-31.8 25.1v169.3h-93.8v-253.2h82l6.6 26.1c11.7-12.3 23.6-21.3 35.8-27 12.3-5.8 25.9-8.6 41.1-8.6zm339.09 0c18.7 0 36.6 2.9 53.8 8.8 17.2 5.8 31.7 13.8 43.4 23.9l-33.2 50.7c-9.2-5.7-19-10.2-29.4-13.5-10.4-3.3-20.7-5-30.8-5-14.2 0-21.3 3.8-21.3 11.4 0 3.2.9 5.8 2.8 7.8s6.4 4.6 13.5 7.6 18.6 6.9 34.4 11.6c25.3 7.9 44 17.9 56.2 30.1 12.2 12.2 18.3 29.3 18.3 51.4 0 17.1-5.1 32.2-15.4 45.5-10.3 13.3-24.5 23.6-42.7 30.8-18.2 7.3-38.8 10.9-61.9 10.9-22.1 0-42.9-3.6-62.4-10.7-19.4-7.1-35.8-17-49.1-29.6l44.6-49.3c9.5 7.6 19.8 13.7 31.1 18.3 11.2 4.6 22.4 6.9 33.4 6.9 8.5 0 15.1-1.3 19.7-4s6.9-6.6 6.9-11.6c0-4.4-1-7.8-3.1-10.2-2.1-2.4-6.2-4.8-12.6-7.1-6.3-2.4-17.4-5.9-33.2-10.7-49-14.5-73.5-41.9-73.5-82 0-15.5 4.3-29.4 13-41.7 8.7-12.3 21.3-22.1 37.9-29.4 16.6-7.3 36.5-10.9 59.6-10.9zm239.95 9.5v253.2h-93.9v-253.2h93.9zm-47-139.9c15.2 0 27.7 4.8 37.7 14.5 10 9.6 14.9 21.6 14.9 35.8 0 14.2-5 26.2-14.9 35.8-10 9.6-22.5 14.5-37.7 14.5-15.2 0-27.8-4.8-37.7-14.5-10-9.6-14.9-21.6-14.9-35.8 0-14.2 5-26.2 14.9-35.8 10-9.7 22.5-14.5 37.7-14.5zm266 130.4c21.2 0 37.9 6.6 50 19.9 12.2 13.3 18.2 31.9 18.2 56v186.8h-93.9v-169.8c0-9.5-1.2-16-3.6-19.4-2.4-3.5-5.9-5.2-10.6-5.2-10.4 0-21 8.4-31.8 25.1v169.3h-93.9v-253.2h82l6.6 26.1c11.7-12.3 23.6-21.3 35.8-27 12.4-5.8 26-8.6 41.2-8.6zm364.64-90.1v352.8h-83.5l-3.3-26.1c-18 23.7-41.9 35.6-71.6 35.6-31.9 0-56-12.2-72.1-36.5-16.1-24.3-24.2-58-24.2-101 0-25.9 4.4-49.1 13.3-69.5 8.8-20.4 21.2-36.4 37.2-47.9 16-11.5 34.4-17.3 55.2-17.3 21.8 0 40.2 6.6 55 19.9v-119.5l94 9.5zm-126.6 294.9c13.3 0 24.2-7.4 32.7-22.3v-101.4c-4.4-4.8-8.9-8.3-13.3-10.7-4.4-2.4-9.3-3.6-14.7-3.6-11.1 0-19.9 5.5-26.6 16.4-6.6 10.9-10 28.4-10 52.4 0 27.8 2.8 46.3 8.3 55.5 5.7 9.1 13.5 13.7 23.6 13.7zm451.91-203.4c8.2 0 16.7 1.4 25.6 4.3l-14.7 90.6c-8.5-2.5-16.3-3.8-23.2-3.8-13.9 0-24.3 4.6-31.1 13.8-6.8 9.2-12.2 22.9-16.4 41.2v115.2h-93.8v-253.2h82l7.6 47.4c5.4-16.8 13.9-30.2 25.6-40.3 11.7-10.2 24.5-15.2 38.4-15.2zm293.02 131.3c0 7.9-.6 17.9-1.9 29.9h-153.6c2.5 17.1 7.8 28.6 15.9 34.4 8.1 5.8 19.7 8.8 34.9 8.8 8.8 0 17.9-1.8 27-5.5 9.2-3.6 19.3-9.2 30.4-16.8l37.9 51.2c-30.7 25-65.4 37.5-104.3 37.5-44.9 0-78.9-12.4-102-37.2-23.1-24.8-34.6-57.6-34.6-98.4 0-25.3 4.8-48.3 14.5-69 9.6-20.7 23.9-37.1 42.9-49.3 19-12.2 41.9-18.3 68.8-18.3 25 0 46.8 5.2 65.4 15.7 18.7 10.4 33.1 25.6 43.4 45.5 10.2 19.9 15.3 43.7 15.3 71.5zm-92.4-26.5c-.3-14.9-2.6-26.4-6.9-34.6-4.3-8.2-11.9-12.3-23-12.3-10.4 0-18.3 3.6-23.5 10.9-5.2 7.3-8.6 20.4-10.2 39.3h63.5l.1-3.3zm209.11 165.9c-25.6 0-45.3-7.2-59-21.6-13.8-14.4-20.6-34.7-20.6-60.9v-279.7l93.9-9.5v285.5c0 8.5 3.8 12.8 11.4 12.8 3.5 0 6.8-.6 10-1.9l16.6 66.9c-15 5.6-32.4 8.4-52.3 8.4zm297.8-91.5c0 8.9 1.1 15.4 3.3 19.7 2.2 4.3 6.2 7.5 11.9 9.7l-19 60.2c-17.1-1.3-31-4.5-41.7-9.7-10.7-5.2-19.6-13.7-26.5-25.4-16.4 24.7-41.9 37-76.4 37-25 0-45.1-7.5-60.5-22.5-15.3-15-23-34.4-23-58.1 0-28.1 10.4-49.6 31.3-64.5 20.9-14.9 51.2-22.3 91.1-22.3h18v-6.2c0-12.7-2.5-21.2-7.6-25.6-5.1-4.4-14.7-6.6-28.9-6.6-7.6 0-17.3 1.2-29.2 3.6-11.8 2.4-23.9 5.6-36.3 9.7l-20.4-59.8c15.5-6.3 32.3-11.2 50.5-14.7 18.2-3.5 34.7-5.2 49.6-5.2 39.8 0 68.8 7.7 86.8 23s27 38.8 27 70.4v87.3zm-119.5 25.6c5.7 0 11-1.4 15.9-4.2 4.9-2.8 8.9-6.5 12.1-10.9v-37.5h-10c-13.3 0-23.1 2.4-29.4 7.1-6.3 4.7-9.5 12-9.5 21.8 0 7.3 1.9 13.1 5.7 17.3 3.8 4.3 8.9 6.4 15.2 6.4zm352.77 44.1c-9.8 7-21.7 12.3-35.8 16.1-14.1 3.8-27.4 5.7-40.1 5.7-31.3-.3-54.5-9.1-69.5-26.3-15-17.2-22.5-42.8-22.5-76.6v-96.2h-30.4v-63.5h30.4v-53.1l93.9-10.9v64h56.9l-9.5 63.5h-47.4v95.3c0 11.1 1.7 18.9 5.2 23.5 3.5 4.6 8.4 6.9 14.7 6.9 7.9 0 15.8-2.2 23.7-6.6l30.4 58.2zm120.43-240.8v253.2h-93.9v-253.2h93.9zm-46.9-139.9c15.2 0 27.7 4.8 37.7 14.5 10 9.6 14.9 21.6 14.9 35.8 0 14.2-5 26.2-14.9 35.8-10 9.6-22.5 14.5-37.7 14.5-15.2 0-27.8-4.8-37.7-14.5-10-9.6-14.9-21.6-14.9-35.8 0-14.2 5-26.2 14.9-35.8 9.9-9.7 22.5-14.5 37.7-14.5zm337.1 139.9-75.4 253.2h-111l-77.3-253.2h102l31.8 185.4 35.1-185.4h94.8zm383.14 123.2c0 7.9-.6 17.9-1.9 29.9h-153.6c2.5 17.1 7.8 28.6 15.9 34.4 8.1 5.8 19.7 8.8 34.9 8.8 8.8 0 17.9-1.8 27-5.5 9.2-3.6 19.3-9.2 30.4-16.8l37.9 51.2c-30.7 25-65.4 37.5-104.3 37.5-44.9 0-78.9-12.4-102-37.2-23.1-24.8-34.6-57.6-34.6-98.4 0-25.3 4.8-48.3 14.5-69 9.6-20.7 23.9-37.1 42.9-49.3 19-12.2 41.9-18.3 68.8-18.3 25 0 46.8 5.2 65.4 15.7 18.7 10.4 33.1 25.6 43.4 45.5 10.2 19.9 15.3 43.7 15.3 71.5zm-92.5-26.5c-.3-14.9-2.6-26.4-6.9-34.6-4.3-8.2-11.9-12.3-23-12.3-10.4 0-18.3 3.6-23.5 10.9-5.2 7.3-8.6 20.4-10.2 39.3h63.5l.1-3.3zm168.9 68.3c13.6 0 25.1 4.8 34.6 14.5 9.5 9.6 14.2 21.1 14.2 34.4 0 13.3-4.7 24.7-14.2 34.4-9.5 9.6-21 14.5-34.6 14.5-13.6 0-25.1-4.8-34.6-14.5-9.5-9.6-14.2-21.1-14.2-34.4 0-13.3 4.7-24.7 14.2-34.4 9.4-9.7 21-14.5 34.6-14.5zm357.07-241.9-83.5 330h-126.1l-88.7-330h102.9l50.3 262.2 45-262.2h100.1zm58.73 241.9c13.6 0 25.1 4.8 34.6 14.5 9.5 9.6 14.2 21.1 14.2 34.4 0 13.3-4.7 24.7-14.2 34.4-9.5 9.6-21 14.5-34.6 14.5-13.6 0-25.1-4.8-34.6-14.5-9.5-9.6-14.2-21.1-14.2-34.4 0-13.3 4.7-24.7 14.2-34.4s21-14.5 34.6-14.5z"/><path fill="#4F93DD" d="M336.9 680.201c176.4 14.8 306-52.4 383.7-111.2 75.9-57.4 118.4-118.4 126.4-130.4.7-1 31.3-44.5 45.7-65-.3-1.6-.5-3.2-.8-4.8-13.3 18.9-47.4 67.3-48.4 68.9-9.4 14-51.4 72.9-124.9 128.5-77.3 58.4-206.3 125.1-381.3 110.5-96.7-8-153.3-47.6-208-85.8-37.5-26.2-74.2-51.9-122.3-66.8.2 1.3.5 2.6.7 3.9 46.9 14.8 82.9 40 119.7 65.7 54.9 38.5 111.9 78.3 209.5 86.5z"/><path fill="#4F93DD" d="M154 577.3c50.2 33.8 102.1 68.6 183.3 81.5 69.4 11 126.9 9.9 180.8-3.4C711.2 607.6 825.4 449.8 844.2 422c1.3-2 31.4-45.2 45.4-65.4-.3-1.6-.6-3.1-1-4.6-12.9 18.6-45.8 65.9-47 67.7-17.7 26.2-131.3 184.7-324.4 232.4-53.5 13.2-110.5 14.3-179.5 3.3-80.4-12.8-132-47.4-181.9-81-24.5-16.5-47.7-32.1-74.1-45.3-23-11.5-48.2-21.7-78.3-28.2.1 1.2.3 2.4.4 3.6 29.3 6.4 53.9 16.4 76.3 27.6 26.4 13.3 49.5 28.8 73.9 45.2z"/><path fill="#4F93DD" d="M179.9 559.9c44.7 30.2 90.9 61.4 157.6 77.5 54.3 13.1 113.3 23.2 177.2 7.7 195.2-47.2 316-223.6 329.5-244.1.6-1 31.4-44.7 42-59.7-.4-1.5-.7-3-1.1-4.4-8.2 11.6-43.6 62-44.9 63.9-17.8 26.6-136.8 195.1-326.3 240.9-63.2 15.3-121.7 5.3-175.6-7.7-66.1-16-112-47-156.5-77-31.5-21.2-61.2-41.3-97.3-56.2-26.2-10.8-53.7-18.2-83.1-22.2.1 1.2.2 2.3.2 3.5 28.8 3.9 55.8 11.2 81.6 21.8 35.8 14.9 65.4 34.9 96.7 56z"/><path fill="#4F93DD" d="M204.6 542.401c38.9 27.3 79.1 55.6 133.2 73.7 57.3 19.2 109.9 33.9 173.6 18.8 185.4-43.9 310-220.6 329.8-250.2 1.4-2.1 30.5-42.8 41.2-57.8-.4-1.4-.8-2.8-1.2-4.3-8.7 12.2-41.5 58-43 60.3-20 30-143.8 205-327.5 248.5-62.8 14.9-114.9.3-171.7-18.7-53.6-18-93.6-46.1-132.3-73.3-37.6-26.4-73.1-51.3-119.3-66.9-27.1-9.1-55.8-14.8-86.8-16.9 0 1.1 0 2.3.1 3.4 30.6 2.1 58.9 7.7 85.7 16.7 45.6 15.6 80.8 40.4 118.2 66.7z"/><path fill="#4F93DD" d="M227.6 525.001c33.1 24.9 67.3 50.7 110.5 69.7 53.1 23.3 103.2 45.4 169.9 29.9 180.9-41.9 310.6-227.1 331.4-258.3 1.5-2.2 13.9-20.9 18.6-27.9.7-1.1 11.4-18.1 18.8-29.8-.5-1.4-.9-2.8-1.4-4.3-7.3 11.6-19.5 31-20.2 32.1-4.6 6.9-16.9 25.4-18.2 27.2-19 28.7-148.7 215.6-329.8 257.6-65.6 15.2-115.2-6.6-167.8-29.7-42.9-18.9-76.9-44.5-109.9-69.3-42.6-32.1-82.9-62.4-139.6-77.9-28.4-7.8-58.4-11.3-89.4-11.6 0 1.1-.1 2.3-.1 3.4 30.8.2 60.5 3.8 88.6 11.5 56.2 15.4 96.2 45.5 138.6 77.4z"/><path fill="#4F93DD" d="M92.1 419.4c66.5 14.4 110.2 50.5 156.4 88.6 27.5 22.7 56 46.3 90 65.2l3.3 1.8c52.1 29.1 97.1 54.2 163 39.2C684.6 573.4 821.3 372.9 839 346c.8-1.3 21.3-33.2 33.1-51.5-.5-1.4-1-2.7-1.5-4.1-11.6 18-34.3 53.4-35.8 55.6-22 33.1-156 225.1-330.8 264.8-64.6 14.6-109.1-10.1-160.5-38.9l-3.3-1.8c-33.8-18.8-62.1-42.2-89.5-64.9-46.5-38.4-90.5-74.8-157.8-89.3-28.8-6.2-59.2-8.3-90.8-6.9-.1 1.1-.2 2.3-.3 3.4 31.4-1.2 61.6.8 90.3 7z"/><path fill="#4F93DD" d="M95 391.2c77.1 12.9 123.1 55.4 171.9 100.4 22.4 20.6 45.5 42 71.9 60.3l7.7 5.3c47.6 33.1 88.6 61.7 155 46.9 176.8-39.3 319.8-251.8 336.4-277.2.6-1 18-27.6 29.4-45.1-.5-1.3-1-2.6-1.6-3.9-11.6 17.7-30.9 47.3-32.1 49.3-21.8 33-161.5 235.5-332.8 273.5-64.8 14.4-105.4-13.8-152.3-46.4l-7.7-5.3c-26.2-18.1-49.2-39.4-71.5-60-49.1-45.4-95.6-88.2-173.7-101.3-29-4.9-59.5-5.4-90.9-2.8-.2 1.2-.3 2.3-.5 3.5 31.4-2.5 61.9-2 90.8 2.8z"/><path fill="#4F93DD" d="M97.9 363c87.6 10.8 134.8 60.3 184.9 112.6 17.8 18.6 36.1 37.8 56.3 54.9 3.2 2.7 6.4 5.5 9.6 8.2 43.9 37.5 81.9 70 149.5 55.2 173.1-37.7 322.4-261.3 338.3-285.8.6-1 16.7-27.1 24.8-40.4-.6-1.3-1.1-2.5-1.7-3.8-7.6 12.4-25.2 41-25.7 41.7-13.6 21.1-163.2 247.2-336.6 285-65.9 14.3-103.3-17.6-146.5-54.5-3.2-2.7-6.4-5.4-9.6-8.2-20-17-38.3-36.1-56.1-54.6-48.2-50.5-98.1-102.7-186.9-113.7-28.9-3.6-58.9-3.1-89.5.5-.2 1.2-.5 2.4-.7 3.5 30.9-3.6 61-4.2 89.9-.6z"/><path fill="#4F93DD" d="M100.8 334.7c98 8.3 147.5 67.7 195.4 125.1 13.8 16.5 28 33.6 43.2 49.2 3.4 3.5 6.8 7 10.1 10.4 40.7 42.3 75.9 79 145.3 64.2 168.9-36 324.1-269.5 340.2-294.3.6-1 14.6-22.8 21.1-33.1-.6-1.2-1.2-2.4-1.7-3.7-5.8 9.1-21.4 33.6-21.9 34.4-13.9 21.5-169.5 257.4-338.4 293.3C426.7 594.5 392 558.6 352 517c-3.3-3.4-6.7-6.9-10.1-10.5-15.1-15.5-29.3-32.5-43-49-48.4-58-98.4-117.9-197.7-126.3-28-2.4-57-.9-86.5 3.3l-.9 3.6c29.7-4.2 58.9-5.8 87-3.4z"/><path fill="#4F93DD" d="M103.7 306.5c108.2 5.4 156.7 72.7 203.6 137.8 10.4 14.5 21.2 29.4 32.4 43.3 3.3 4.1 6.5 8.1 9.6 12.1 37.8 47.6 70.6 88.6 142.1 73.7C655.3 539.2 816 297.6 833.2 270.9c.7-1 11.3-16.9 17.3-25.9-.6-1.2-1.2-2.3-1.8-3.5-5.7 8.5-17.5 26-17.9 26.8-14.4 22.3-175.9 267.4-340.1 301.7-69.6 14.5-100.1-23.9-138.7-72.5-3.2-4-6.4-8-9.6-12.1-11.1-13.8-21.9-28.7-32.3-43.1-47.4-65.8-96.4-133.8-206.3-139.2-26.4-1.3-53.8.7-81.6 5.3-.4 1.2-.8 2.5-1.2 3.7 28.3-4.7 56-6.9 82.7-5.6z"/><path fill="#4F93DD" d="M106.6 278.2c118.3 2.2 164.9 77.7 209.9 150.6 7.6 12.4 15.5 25.2 23.6 37.2 2.9 4.4 5.8 8.7 8.6 13 35 53.2 65.2 99.1 139.5 84 160.7-32.8 328.7-287.6 344-311.5.5-.8 8.8-12.8 12.4-18.1-.6-1.1-1.2-2.2-1.9-3.4-2.7 3.9-12.8 18.6-13.4 19.5-14.7 22.7-182.2 277.5-342 310.1-72 14.7-100.2-28.2-135.9-82.5-2.8-4.3-5.7-8.6-8.6-13-8-12-15.9-24.8-23.5-37.1-45.5-73.8-92.5-150.1-212.8-152.3-2 0-4-.1-6.1-.1-22.4 0-45.3 2.3-68.4 6.2-.5 1.2-1 2.5-1.5 3.7 23.6-4.2 47-6.5 69.9-6.5 2.2.2 4.2.2 6.2.2z"/><path fill="#4F93DD" d="M112.4 250.001c126.2 0 169.5 83.1 211.5 163.5 5.4 10.3 11 21 16.6 31.2 2.4 4.4 4.8 8.8 7.2 13.1 32.3 59.3 60.1 110.5 137.2 95.1 149.4-29.8 315-272.8 342.9-315.3 1.9-2.9 7.7-11.1 10.6-15.2-.6-1.1-1.3-2.2-1.9-3.3-2.1 3-9.2 12.9-11.1 15.9-26.5 40.3-192.3 284.8-341.1 314.5-74.7 14.9-100.6-32.9-133.5-93.3-2.4-4.3-4.7-8.7-7.2-13.1-5.6-10.1-11.1-20.8-16.5-31.1-42.4-81.3-86.3-165.4-214.5-165.4h-3c-21.2.2-43 2.5-64.9 6.4-.6 1.3-1.2 2.5-1.8 3.8 22.6-4.1 44.9-6.5 66.8-6.8h2.7z"/><path fill="#4F93DD" d="M123 221.601c129.8 0 169 89.7 206.8 176.6 3.7 8.4 7.3 16.8 11 25 1.9 4.2 3.7 8.3 5.5 12.3 29.4 65.8 54.8 122.7 135.1 107.1 150.9-29.4 332.1-304.4 349.8-331.8-.7-1.1-1.3-2.1-2-3.2-11.2 17.4-195.9 302-348.5 331.7-77.7 15.1-101.3-37.9-131.3-105.1-1.8-4.1-3.7-8.2-5.5-12.3-3.7-8.2-7.3-16.6-11-25-36.6-83.9-77.9-178.7-210.3-178.7-3.4 0-6.9.1-10.4.2-17.2.6-34.7 2.6-52.4 5.6-.7 1.3-1.5 2.6-2.2 3.9 18.5-3.3 36.8-5.4 54.8-6.1 3.6-.1 7.1-.2 10.6-.2z"/><path fill="#4F93DD" d="M334.5 382.9c2.3 6.4 4.5 12.7 6.8 18.9l3.9 10.6c26.4 72.9 49.4 135.8 133.1 119.9 140.8-26.7 317.3-287.6 346.4-332-.7-1-1.4-2.1-2.1-3.1-26.4 40.3-204.2 305-345 331.8-80.8 15.3-103.2-46.3-129.2-117.7l-3.9-10.7c-2.3-6.2-4.5-12.6-6.8-18.9-32.3-90.3-68.8-192.2-205.1-192.1-5.7 0-11.5.2-17.5.5-12 .7-24.2 2.1-36.5 4l-2.7 3.9c13.3-2.2 26.4-3.7 39.4-4.5 148-8.9 185.9 96.5 219.2 189.4z"/><path fill="#4F93DD" d="m338 367.5 6 20.8c23.3 80.5 43.3 150 130.9 133.8 129.8-24 300.6-269 342.8-332.1l-2.1-3c-40.6 61-212 307.8-341.2 331.7-50.5 9.3-77.8-11.2-96.5-46.1 18.2 30.9 45.7 47.9 93.8 39.3C592.5 490.2 759.5 255.6 810.5 180c-.7-1-1.5-1.9-2.2-2.9-50 74.3-217.2 309.8-337.2 331.4-48.1 8.7-75-9.7-92.7-42.4 6.1 9.8 13.4 18.1 22.2 24.3 17.6 12.4 39.8 16.1 67.8 11.2C581.3 481.9 745 255.4 803 170.2c-.7-.9-1.5-1.9-2.2-2.8-57.3 84.3-220.9 311.3-333 330.9-27.1 4.8-48.4 1.3-65.2-10.6-35.8-25.3-45.9-86.5-56.6-151.3-18.2-109.6-38.6-232.7-184.6-233.2-1.4 1.1-2.7 2.3-4.1 3.5 146.9-1.6 167.2 121.1 185.3 230.3 1.8 11 3.6 21.9 5.6 32.6-.5-2.4-1.1-4.7-1.6-7.1l-2.4-10.8c-23.1-103.3-49.1-219.5-192.8-219.5-7.1 0-14.5.3-22.2.9-1.2 1.3-2.4 2.5-3.7 3.8 163.7-14.4 191.2 107.7 215.3 215.6l2.4 10.8c4.1 18.1 8 35.7 12.5 52.1-2.8-9-5.5-18.3-8.2-27.8l-6-20.8c-27.8-96.7-59.2-205.7-199.1-205.7-7.8 0-15.8.3-24.3 1.1-5.5.4-11 1-16.5 1.7-1 1.3-2.1 2.6-3.1 3.9 6.6-.9 13.3-1.6 19.9-2.2C276.2 152.4 309 266.7 338 367.5z"/><path fill="#fff" d="M876.1 306.001c-64.7 2.5-135.6 106.5-147.9 120.2-35 38.8-68 75.5-133.7 75.5-64.7 0-97.7-29.9-131.7-62.4-38.5-124-75.3-240-157.9-240-82.5 0-121.2 96.1-158.7 189.1-35.3 87.6-68.6 170.3-130.9 170.3h-.9c1.6 6.4 3.4 12.7 5.3 19 1.1 3.5 2.2 7.1 3.4 10.6 32.3-2.4 57.6-20.1 78.8-46.3 1.4-.7 2.7-1.6 3.8-2.7 8.4-8.3 16.5-17.9 24.2-28.4l.3-.4c15.1-13.1 28.4-27.7 41.2-41.9 35-38.8 68-75.4 133.7-75.4 64.6 0 97.6 30 131.6 62.4 38.5 123.9 75.3 240 157.9 240 82.5 0 121.2-96.1 158.7-189.1 35.3-87.6 68.6-170.3 130.9-170.3h1c-1.6-6.4-3.4-12.8-5.3-19.1-1.4-3.7-2.6-7.4-3.8-11.1zm-571.2-76.7c36.5 0 63.8 40.2 87 95.8-23-23.9-50.8-39.4-87-39.4-48 0-81.2 24.8-108.2 59.1 28.2-64.4 59.2-115.5 108.2-115.5zm0 134c-49.7 0-84.3 17.9-112.2 41.2 28.9-49.1 60.4-88.9 112.2-88.9 43 0 72 31.2 97.3 73.6-25.2-15.3-55.7-25.9-97.3-25.9zm289.5 302.4c-36.5 0-63.8-40.1-87-95.7 23 23.9 50.8 39.4 87.1 39.4 47.9 0 81.1-24.7 108-59-28.2 64.3-59.2 115.3-108.1 115.3zm.1-86.3c-43.1 0-72.2-31.2-97.4-73.6 25.2 15.3 55.7 25.9 97.4 25.9 49.6 0 84.2-17.9 112-41.2-28.8 49.1-60.3 88.9-112 88.9z"/><path fill="url(#b)" d="M448.112 896.634c247.011 0 447.253-200.719 447.253-448.317C895.365 200.718 695.123 0 448.112 0S.859 200.718.859 448.317c0 247.598 200.242 448.317 447.253 448.317z"/><path fill="#4F93DD" d="M335.951 680.818c176.095 14.766 305.436-52.317 382.991-111.016 75.756-57.307 118.174-118.174 126.191-130.159.696-.982 31.252-44.422 45.609-64.875-.286-1.595-.491-3.19-.818-4.786-13.294 18.858-47.327 67.166-48.308 68.761-9.368 13.99-51.295 72.77-124.678 128.278-77.147 58.289-205.915 124.882-380.619 110.32-96.535-7.977-153.025-47.531-207.633-85.655-37.428-26.138-74.079-51.826-122.06-66.675.205 1.309.491 2.577.696 3.886 46.795 14.767 82.75 39.924 119.482 65.571 54.854 38.45 111.711 78.169 209.147 86.35z"/><path fill="#4F93DD" d="M153.393 578.107c50.108 33.746 101.935 68.475 182.967 81.36 69.293 10.962 126.682 9.899 180.472-3.396 192.743-47.695 306.745-205.219 325.52-232.994 1.309-2.004 31.333-45.118 45.323-65.284a69.695 69.695 0 0 0-.982-4.581c-12.885 18.571-45.731 65.775-46.918 67.575-17.671 26.138-131.059 184.358-323.802 231.971-53.422 13.172-110.32 14.276-179.163 3.313-80.255-12.762-131.754-47.326-181.576-80.868-24.462-16.485-47.614-32.029-73.956-45.2-22.948-11.495-48.104-21.68-78.17-28.143.082 1.186.287 2.414.41 3.6 29.247 6.381 53.79 16.362 76.164 27.57 26.302 13.253 49.332 28.715 73.711 45.077z"/><path fill="#4F93DD" d="M179.245 560.761c44.628 30.147 90.727 61.275 157.32 77.351 54.199 13.089 113.102 23.152 176.873 7.69 194.829-47.122 315.417-223.176 328.915-243.67.614-.981 31.333-44.627 41.928-59.598-.41-1.513-.696-2.986-1.105-4.377-8.181 11.576-43.523 61.889-44.831 63.771-17.753 26.547-136.541 194.747-325.725 240.479-63.076 15.257-121.488 5.277-175.277-7.69-65.98-15.953-111.793-46.918-156.216-76.86-31.456-21.148-61.071-41.232-97.108-56.081-26.138-10.799-53.585-18.161-82.955-22.17.082 1.186.205 2.291.205 3.477 28.756 3.886 55.712 11.167 81.441 21.761 35.751 14.889 65.284 34.851 96.535 55.917z"/><path fill="#4F93DD" d="M203.91 543.295c38.819 27.243 78.947 55.508 132.941 73.547 57.185 19.184 109.707 33.828 173.273 18.775 185.053-43.809 309.444-220.19 329.201-249.764 1.391-2.087 30.433-42.705 41.11-57.676-.41-1.391-.819-2.782-1.187-4.295-8.671 12.189-41.436 57.88-42.909 60.171-19.961 29.942-143.535 204.646-326.911 248.046-62.666 14.89-114.697.287-171.391-18.652-53.503-17.958-93.426-46.018-132.04-73.179-37.551-26.343-72.975-51.213-119.074-66.797C59.885 464.39 31.21 458.704.286 456.618c0 1.104 0 2.29.082 3.395 30.556 2.086 58.78 7.69 85.532 16.689 45.527 15.585 80.664 40.332 118.01 66.593z"/><path fill="#4F93DD" d="M226.859 525.914c33.051 24.87 67.165 50.599 110.32 69.579 53.013 23.275 102.998 45.322 169.591 29.86 180.554-41.804 310.059-226.694 330.798-257.822 1.513-2.209 13.866-20.862 18.57-27.857.696-1.104 11.372-18.08 18.776-29.737-.491-1.391-.9-2.782-1.391-4.295-7.281 11.576-19.471 30.924-20.166 32.028-4.582 6.872-16.853 25.361-18.162 27.161-18.98 28.633-148.443 215.2-329.202 257.127-65.489 15.176-114.983-6.585-167.505-29.656-42.827-18.857-76.778-44.422-109.707-69.17-42.541-32.028-82.75-62.298-139.363-77.76C61.071 437.6 31.13 434.083.164 433.796c0 1.105-.082 2.291-.082 3.395 30.76.205 60.376 3.804 88.437 11.495 56.08 15.339 96.003 45.404 138.34 77.228z"/><path fill="#4F93DD" d="M91.586 420.5c66.388 14.357 109.993 50.395 156.134 88.436 27.447 22.661 55.917 46.222 89.827 65.08l3.313 1.799c51.99 29.043 96.944 54.118 162.719 39.146C683.07 574.22 819.487 374.114 837.158 347.239c.818-1.309 21.271-33.133 33.051-51.417-.491-1.391-.981-2.7-1.513-4.091-11.576 17.958-34.238 53.299-35.751 55.508-21.966 33.051-155.725 224.69-330.184 264.327-64.466 14.562-108.888-10.062-160.224-38.818l-3.313-1.8c-33.747-18.776-61.971-42.132-89.336-64.793-46.427-38.328-90.318-74.652-157.525-89.132-28.756-6.177-59.107-8.304-90.645-6.872-.082 1.104-.205 2.291-.286 3.395 31.374-1.227 61.52.777 90.154 6.954z"/><path fill="#4F93DD" d="M94.49 392.358c76.942 12.885 122.879 55.304 171.596 100.217 22.375 20.575 45.405 41.928 71.788 60.171l7.69 5.277c47.532 33.051 88.436 61.602 154.702 46.795 176.464-39.228 319.221-251.36 335.788-276.68.613-.982 17.957-27.57 29.329-45.036-.491-1.309-.982-2.577-1.596-3.886-11.576 17.671-30.842 47.204-32.028 49.208-21.762 32.929-161.206 235.08-332.188 272.999-64.671 14.358-105.207-13.785-152.043-46.304l-7.69-5.277c-26.139-18.08-49.127-39.31-71.379-59.885-49.004-45.322-95.431-88.027-173.396-101.116-28.96-4.909-59.394-5.4-90.727-2.782-.204 1.186-.286 2.291-.49 3.477 31.373-2.454 61.807-1.963 90.644 2.822z"/><path fill="#4F93DD" d="M97.395 364.215c87.454 10.798 134.535 60.171 184.562 112.406 17.753 18.571 36.037 37.714 56.203 54.813 3.191 2.699 6.381 5.481 9.572 8.181 43.809 37.428 81.769 69.865 149.221 55.098 172.781-37.632 321.798-260.809 337.669-285.27.613-.982 16.689-27.038 24.747-40.332-.613-1.309-1.104-2.495-1.677-3.804-7.567 12.394-25.156 40.945-25.647 41.641-13.581 21.066-162.924 246.738-335.992 284.493-65.775 14.276-103.121-17.548-146.235-54.403-3.19-2.7-6.381-5.4-9.572-8.181-19.961-16.976-38.246-36.038-55.998-54.486-48.104-50.394-97.926-102.507-186.567-113.511-28.838-3.599-58.78-3.108-89.336.491-.205 1.186-.491 2.414-.696 3.477 30.843-3.6 60.908-4.213 89.746-.613z"/><path fill="#4F93DD" d="M100.299 335.95c97.803 8.303 147.216 67.574 195.034 124.882 13.785 16.485 27.938 33.542 43.113 49.127 3.396 3.477 6.791 6.994 10.063 10.389 40.619 42.214 75.756 78.865 145.048 64.098 168.61-35.955 323.516-269.031 339.592-293.778.614-.982 14.562-22.743 21.066-33.051a37.402 37.402 0 0 1-1.677-3.681c-5.808 9.08-21.352 33.541-21.843 34.319-13.867 21.475-169.182 256.923-337.792 292.755-67.288 14.276-101.935-21.557-141.858-63.075a847.9 847.9 0 0 1-10.062-10.472c-15.053-15.462-29.247-32.437-42.91-48.922-48.308-57.88-98.212-117.683-197.324-126.068-27.938-2.414-56.899-.9-86.35 3.313-.287 1.186-.614 2.413-.9 3.6 29.574-4.214 58.74-5.809 86.8-3.436z"/><path fill="#4F93DD" d="M103.162 307.807c107.989 5.399 156.42 72.565 203.215 137.563 10.39 14.48 21.148 29.328 32.356 43.236a684.555 684.555 0 0 1 9.572 12.067c37.714 47.531 70.479 88.436 141.858 73.547 163.619-34.156 324.006-275.29 341.186-301.96.696-.981 11.29-16.852 17.262-25.851-.613-1.187-1.186-2.291-1.8-3.477-5.685 8.467-17.466 25.933-17.875 26.751-14.357 22.253-175.563 266.904-339.469 301.142-69.456 14.48-99.93-23.848-138.463-72.361-3.19-4.009-6.381-7.976-9.571-12.067-11.086-13.785-21.843-28.633-32.233-43.032-47.327-65.693-96.208-133.554-205.915-138.953-26.343-1.309-53.708.695-81.441 5.276a125.77 125.77 0 0 0-1.187 3.682c28.225-4.663 55.876-6.872 82.505-5.563z"/><path fill="#4F93DD" d="M106.066 279.542c118.093 2.208 164.601 77.555 209.515 150.325 7.567 12.394 15.462 25.156 23.561 37.141 2.904 4.377 5.809 8.672 8.59 12.967 34.933 53.095 65.08 98.908 139.24 83.855 160.429-32.724 328.098-287.07 343.396-310.917.491-.819 8.795-12.763 12.394-18.08-.613-1.105-1.186-2.209-1.881-3.395-2.7 3.885-12.763 18.57-13.376 19.47-14.685 22.661-181.863 277.008-341.392 309.527-71.87 14.685-100.012-28.143-135.64-82.341-2.782-4.295-5.686-8.59-8.59-12.967-7.977-11.985-15.871-24.748-23.439-37.019-45.404-73.67-92.322-149.834-212.419-152.043-2.004 0-4.008-.082-6.094-.082-22.375 0-45.2 2.291-68.27 6.176-.491 1.187-.982 2.496-1.514 3.682 23.561-4.172 46.918-6.504 69.784-6.504 2.168.205 4.131.205 6.135.205z"/><path fill="#4F93DD" d="M111.875 251.401c125.986 0 169.182 82.955 211.109 163.21 5.4 10.267 10.963 20.943 16.567 31.128 2.413 4.377 4.786 8.795 7.199 13.09 32.233 59.189 60.007 110.32 136.949 94.94 149.139-29.738 314.435-272.303 342.292-314.721 1.881-2.905 7.69-11.086 10.594-15.176-.614-1.105-1.309-2.209-1.882-3.313-2.086 2.986-9.203 12.885-11.085 15.871-26.465 40.209-191.966 284.288-340.491 313.944-74.57 14.889-100.422-32.847-133.268-93.14-2.414-4.295-4.704-8.672-7.2-13.09-5.603-10.063-11.085-20.78-16.484-31.047-42.337-81.155-86.146-165.091-214.096-165.091h-2.986c-21.148.204-42.91 2.495-64.793 6.381-.614 1.309-1.186 2.495-1.8 3.804 22.58-4.091 44.832-6.504 66.675-6.79h2.7z"/><path fill="#4F93DD" d="M122.428 223.052c129.546 0 168.692 89.54 206.447 176.299 3.681 8.386 7.281 16.771 10.962 24.952 1.882 4.173 3.682 8.304 5.481 12.272 29.329 65.693 54.69 122.468 134.863 106.925 150.612-29.329 331.493-303.841 349.164-331.206-.695-1.104-1.309-2.086-2.004-3.19-11.167 17.384-195.566 301.467-347.855 331.082-77.555 15.053-101.117-37.837-131.059-104.92-1.8-4.091-3.681-8.181-5.481-12.272-3.682-8.181-7.281-16.566-10.963-24.952-36.528-83.732-77.76-178.385-209.923-178.385-3.395 0-6.872.082-10.39.204-17.18.614-34.646 2.577-52.317 5.604-.696 1.309-1.514 2.577-2.209 3.886 18.448-3.313 36.733-5.399 54.69-6.094 3.64-.082 7.117-.205 10.594-.205z"/><path fill="#4F93DD" d="M333.579 384.052c2.29 6.382 4.499 12.681 6.79 18.858l3.886 10.594c26.342 72.77 49.29 135.558 132.859 119.687 140.548-26.67 316.725-287.07 345.768-331.41-.696-.982-1.391-2.086-2.086-3.109-26.343 40.209-203.829 304.454-344.378 331.206-80.664 15.258-102.998-46.222-128.973-117.478l-3.886-10.677c-2.29-6.176-4.499-12.557-6.79-18.857-32.233-90.154-68.679-191.843-204.728-191.761-5.686 0-11.495.204-17.467.49-11.985.696-24.174 2.087-36.446 4.009-.9 1.309-1.8 2.577-2.7 3.886a388.546 388.546 0 0 1 39.31-4.5c147.748-8.876 185.585 96.331 218.841 189.062z"/><path fill="#4F93DD" d="m337.056 368.715 5.972 20.78c23.275 80.337 43.236 149.712 130.65 133.554 129.545-23.97 300.037-268.499 342.169-331.493-.696-.981-1.391-2.004-2.086-2.986-40.537 60.908-211.601 307.236-340.574 331.084-50.395 9.285-77.678-11.167-96.331-46.018 18.162 30.842 45.609 47.818 93.631 39.228 120.588-21.68 287.275-255.819 338.201-331.289-.695-.981-1.513-1.881-2.208-2.904-49.904 74.161-216.796 309.241-336.606 330.798-48.023 8.672-74.856-9.695-92.527-42.337 6.095 9.776 13.376 18.08 22.17 24.257 17.549 12.394 39.719 16.075 67.698 11.167 112.693-19.675 276.108-245.757 333.988-330.798-.696-.9-1.514-1.881-2.209-2.781-57.185 84.141-220.518 310.754-332.393 330.306-27.038 4.786-48.308 1.309-65.079-10.594-35.751-25.238-45.814-86.35-56.49-151.021C326.87 228.248 306.5 105.37 160.756 104.879c-1.391 1.104-2.7 2.291-4.091 3.477 146.644-1.595 166.892 120.874 184.972 229.885 1.8 10.963 3.6 21.843 5.604 32.56-.491-2.413-1.104-4.704-1.595-7.076l-2.414-10.799c-23.07-103.121-49.004-219.086-192.457-219.086-7.076 0-14.48.286-22.17.899-1.186 1.309-2.414 2.496-3.682 3.805 163.415-14.358 190.862 107.498 214.914 215.2l2.414 10.799c4.09 18.08 7.976 35.628 12.476 51.99-2.782-8.999-5.482-18.285-8.181-27.734l-5.972-20.779c-27.734-96.536-59.108-205.343-198.757-205.343-7.772 0-15.789.287-24.257 1.105-5.481.409-10.962.982-16.484 1.677-.982 1.309-2.086 2.577-3.109 3.886 6.586-.9 13.294-1.595 19.88-2.209 157.524-13.13 190.248 100.953 219.209 201.579z"/><path fill="#fff" d="M874.176 307.317c-64.589 2.495-135.354 106.311-147.625 119.974-34.933 38.736-67.861 75.346-133.473 75.346-64.588 0-97.517-29.86-131.468-62.298-38.45-123.778-75.183-239.579-157.606-239.579-82.341 0-120.996 95.922-158.424 188.775-35.219 87.455-68.475 170.001-130.65 170.001h-.9c1.596 6.381 3.395 12.68 5.277 18.98 1.104 3.477 2.209 7.076 3.395 10.594 32.233-2.413 57.512-20.043 78.66-46.222 1.391-.696 2.7-1.596 3.804-2.7 8.386-8.304 16.485-17.876 24.175-28.347l.286-.409c15.053-13.09 28.347-27.652 41.11-41.805 34.932-38.737 67.861-75.265 133.472-75.265 64.466 0 97.435 29.942 131.345 62.298 38.451 123.696 75.183 239.58 157.606 239.58 82.342 0 120.997-95.922 158.425-188.776 35.219-87.454 68.474-170 130.649-170h.982c-1.595-6.382-3.395-12.763-5.277-19.062-1.349-3.722-2.577-7.404-3.763-11.085zm-570.172-76.574c36.447 0 63.689 40.128 86.841 95.635-22.947-23.847-50.722-39.309-86.841-39.309-47.899 0-81.073 24.747-107.988 58.985 28.142-64.303 59.107-115.311 107.988-115.311zm0 133.759c-49.617 0-84.141 17.875-111.997 41.109 28.838-49.004 60.294-88.722 111.997-88.722 42.909 0 71.87 31.128 97.108 73.465-25.115-15.258-55.589-25.852-97.108-25.852zm288.993 301.877c-36.446 0-63.689-40.046-86.841-95.513 22.947 23.848 50.722 39.31 86.922 39.31 47.818 0 80.951-24.666 107.826-58.903-28.143 64.18-59.108 115.106-107.907 115.106zm.081-86.145c-43.031 0-72.074-31.129-97.23-73.465 25.156 15.257 55.589 25.851 97.23 25.851 49.495 0 84.06-17.875 111.793-41.109-28.715 48.963-60.171 88.723-111.793 88.723z"/></g><defs><linearGradient id="b" x1="895.362" x2=".88" y1="448.328" y2="448.328" gradientUnits="userSpaceOnUse"><stop stop-color="#4F93DD"/><stop offset=".004" stop-color="#4F92DC"/><stop offset=".008" stop-color="#4E92DC"/><stop offset=".012" stop-color="#4E91DB"/><stop offset=".016" stop-color="#4E91DA"/><stop offset=".02" stop-color="#4D90D9"/><stop offset=".023" stop-color="#4D8FD9"/><stop offset=".027" stop-color="#4D8FD8"/><stop offset=".031" stop-color="#4C8ED7"/><stop offset=".035" stop-color="#4C8ED6"/><stop offset=".039" stop-color="#4C8DD6"/><stop offset=".043" stop-color="#4B8DD5"/><stop offset=".047" stop-color="#4B8CD4"/><stop offset=".051" stop-color="#4B8BD3"/><stop offset=".055" stop-color="#4A8BD3"/><stop offset=".059" stop-color="#4A8AD2"/><stop offset=".063" stop-color="#4A8AD1"/><stop offset=".066" stop-color="#4A89D0"/><stop offset=".07" stop-color="#4989D0"/><stop offset=".074" stop-color="#4988CF"/><stop offset=".078" stop-color="#4987CE"/><stop offset=".082" stop-color="#4887CD"/><stop offset=".086" stop-color="#4886CD"/><stop offset=".09" stop-color="#4886CC"/><stop offset=".094" stop-color="#4785CB"/><stop offset=".098" stop-color="#4785CA"/><stop offset=".102" stop-color="#4784CA"/><stop offset=".105" stop-color="#4683C9"/><stop offset=".109" stop-color="#4683C8"/><stop offset=".113" stop-color="#4682C7"/><stop offset=".117" stop-color="#4582C7"/><stop offset=".121" stop-color="#4581C6"/><stop offset=".125" stop-color="#4581C5"/><stop offset=".129" stop-color="#4480C4"/><stop offset=".133" stop-color="#447FC4"/><stop offset=".137" stop-color="#447FC3"/><stop offset=".141" stop-color="#437EC2"/><stop offset=".144" stop-color="#437EC1"/><stop offset=".148" stop-color="#437DC1"/><stop offset=".152" stop-color="#427DC0"/><stop offset=".156" stop-color="#427CBF"/><stop offset=".16" stop-color="#427BBE"/><stop offset=".164" stop-color="#417BBE"/><stop offset=".168" stop-color="#417ABD"/><stop offset=".172" stop-color="#417ABC"/><stop offset=".176" stop-color="#4079BB"/><stop offset=".18" stop-color="#4079BB"/><stop offset=".184" stop-color="#4078BA"/><stop offset=".188" stop-color="#3F77B9"/><stop offset=".191" stop-color="#3F77B8"/><stop offset=".195" stop-color="#3F76B8"/><stop offset=".199" stop-color="#3E76B7"/><stop offset=".203" stop-color="#3E75B6"/><stop offset=".207" stop-color="#3E75B5"/><stop offset=".211" stop-color="#3D74B5"/><stop offset=".215" stop-color="#3D73B4"/><stop offset=".219" stop-color="#3D73B3"/><stop offset=".223" stop-color="#3C72B2"/><stop offset=".227" stop-color="#3C72B2"/><stop offset=".231" stop-color="#3C71B1"/><stop offset=".234" stop-color="#3B71B0"/><stop offset=".238" stop-color="#3B70AF"/><stop offset=".242" stop-color="#3B6FAE"/><stop offset=".246" stop-color="#3A6FAE"/><stop offset=".25" stop-color="#3A6EAD"/><stop offset=".254" stop-color="#3A6EAC"/><stop offset=".258" stop-color="#3A6DAB"/><stop offset=".262" stop-color="#396DAB"/><stop offset=".266" stop-color="#396CAA"/><stop offset=".27" stop-color="#396BA9"/><stop offset=".273" stop-color="#386BA8"/><stop offset=".277" stop-color="#386AA8"/><stop offset=".281" stop-color="#386AA7"/><stop offset=".285" stop-color="#3769A6"/><stop offset=".289" stop-color="#3769A5"/><stop offset=".293" stop-color="#3768A5"/><stop offset=".297" stop-color="#3667A4"/><stop offset=".301" stop-color="#3667A3"/><stop offset=".305" stop-color="#3666A2"/><stop offset=".309" stop-color="#3566A2"/><stop offset=".313" stop-color="#3565A1"/><stop offset=".316" stop-color="#3565A0"/><stop offset=".32" stop-color="#34649F"/><stop offset=".324" stop-color="#34639F"/><stop offset=".328" stop-color="#34639E"/><stop offset=".332" stop-color="#33629D"/><stop offset=".336" stop-color="#33629C"/><stop offset=".34" stop-color="#33619C"/><stop offset=".344" stop-color="#32619B"/><stop offset=".348" stop-color="#32609A"/><stop offset=".352" stop-color="#325F99"/><stop offset=".355" stop-color="#315F99"/><stop offset=".359" stop-color="#315E98"/><stop offset=".363" stop-color="#315E97"/><stop offset=".367" stop-color="#305D96"/><stop offset=".371" stop-color="#305D96"/><stop offset=".375" stop-color="#305C95"/><stop offset=".379" stop-color="#2F5B94"/><stop offset=".383" stop-color="#2F5B93"/><stop offset=".387" stop-color="#2F5A93"/><stop offset=".391" stop-color="#2E5A92"/><stop offset=".395" stop-color="#2E5991"/><stop offset=".398" stop-color="#2E5990"/><stop offset=".402" stop-color="#2D5890"/><stop offset=".406" stop-color="#2D578F"/><stop offset=".41" stop-color="#2D578E"/><stop offset=".414" stop-color="#2C568D"/><stop offset=".418" stop-color="#2C568D"/><stop offset=".422" stop-color="#2C558C"/><stop offset=".426" stop-color="#2B558B"/><stop offset=".43" stop-color="#2B548A"/><stop offset=".434" stop-color="#2B538A"/><stop offset=".438" stop-color="#2B5389"/><stop offset=".441" stop-color="#2A5288"/><stop offset=".445" stop-color="#2A5287"/><stop offset=".449" stop-color="#2A5187"/><stop offset=".453" stop-color="#295186"/><stop offset=".457" stop-color="#295085"/><stop offset=".461" stop-color="#295084"/><stop offset=".465" stop-color="#284F84"/><stop offset=".469" stop-color="#284E83"/><stop offset=".473" stop-color="#284E82"/><stop offset=".477" stop-color="#274D81"/><stop offset=".48" stop-color="#274D81"/><stop offset=".484" stop-color="#274C80"/><stop offset=".488" stop-color="#264C7F"/><stop offset=".492" stop-color="#264B7E"/><stop offset=".496" stop-color="#264A7E"/><stop offset=".5" stop-color="#254A7D"/><stop offset=".504" stop-color="#25497C"/><stop offset=".508" stop-color="#25497B"/><stop offset=".512" stop-color="#24487B"/><stop offset=".516" stop-color="#24487A"/><stop offset=".519" stop-color="#244779"/><stop offset=".523" stop-color="#234678"/><stop offset=".527" stop-color="#234678"/><stop offset=".531" stop-color="#234577"/><stop offset=".535" stop-color="#224576"/><stop offset=".539" stop-color="#224475"/><stop offset=".543" stop-color="#224475"/><stop offset=".547" stop-color="#214374"/><stop offset=".551" stop-color="#214273"/><stop offset=".555" stop-color="#214272"/><stop offset=".559" stop-color="#204172"/><stop offset=".563" stop-color="#204171"/><stop offset=".566" stop-color="#204070"/><stop offset=".57" stop-color="#1F406F"/><stop offset=".574" stop-color="#1F3F6F"/><stop offset=".578" stop-color="#1F3E6E"/><stop offset=".582" stop-color="#1E3E6D"/><stop offset=".586" stop-color="#1E3D6C"/><stop offset=".59" stop-color="#1E3D6C"/><stop offset=".594" stop-color="#1D3C6B"/><stop offset=".598" stop-color="#1D3C6A"/><stop offset=".602" stop-color="#1D3B69"/><stop offset=".606" stop-color="#1C3A69"/><stop offset=".609" stop-color="#1C3A68"/><stop offset=".613" stop-color="#1C3967"/><stop offset=".617" stop-color="#1B3966"/><stop offset=".621" stop-color="#1B3866"/><stop offset=".625" stop-color="#1B3865"/><stop offset=".629" stop-color="#1B3764"/><stop offset=".633" stop-color="#1A3663"/><stop offset=".641" stop-color="#1A3663"/><stop offset=".656" stop-color="#1A3663"/><stop offset=".688" stop-color="#1A3663"/><stop offset=".75" stop-color="#1A3663"/><stop offset="1" stop-color="#1B3663"/></linearGradient><clipPath id="a"><path fill="#fff" d="M0 0h6666v897H0z"/></clipPath></defs></svg>
