<svg xmlns="http://www.w3.org/2000/svg" fill="none" viewBox="0 0 897 897"><path fill="url(#a)" d="M448.112 896.634c247.011 0 447.253-200.719 447.253-448.317C895.365 200.718 695.123 0 448.112 0S.859 200.718.859 448.317c0 247.598 200.242 448.317 447.253 448.317z"/><path fill="#4F93DD" d="M335.951 680.818c176.095 14.766 305.436-52.317 382.991-111.016 75.756-57.307 118.174-118.174 126.191-130.159.696-.982 31.252-44.422 45.609-64.875-.286-1.595-.491-3.19-.818-4.786-13.294 18.858-47.327 67.166-48.308 68.761-9.368 13.99-51.295 72.77-124.678 128.278-77.147 58.289-205.915 124.882-380.619 110.32-96.535-7.977-153.025-47.531-207.633-85.655-37.428-26.138-74.079-51.826-122.06-66.675.205 1.309.491 2.577.696 3.886 46.795 14.767 82.75 39.924 119.482 65.571 54.854 38.45 111.711 78.169 209.147 86.35z"/><path fill="#4F93DD" d="M153.393 578.107c50.108 33.746 101.935 68.475 182.967 81.36 69.293 10.962 126.682 9.899 180.472-3.396 192.743-47.695 306.745-205.219 325.52-232.994 1.309-2.004 31.333-45.118 45.323-65.284a69.695 69.695 0 0 0-.982-4.581c-12.885 18.571-45.731 65.775-46.918 67.575-17.671 26.138-131.059 184.358-323.802 231.971-53.422 13.172-110.32 14.276-179.163 3.313-80.255-12.762-131.754-47.326-181.576-80.868-24.462-16.485-47.614-32.029-73.956-45.2-22.948-11.495-48.104-21.68-78.17-28.143.082 1.186.287 2.414.41 3.6 29.247 6.381 53.79 16.362 76.164 27.57 26.302 13.253 49.332 28.715 73.711 45.077z"/><path fill="#4F93DD" d="M179.245 560.761c44.628 30.147 90.727 61.275 157.32 77.351 54.199 13.089 113.102 23.152 176.873 7.69 194.829-47.122 315.417-223.176 328.915-243.67.614-.981 31.333-44.627 41.928-59.598-.41-1.513-.696-2.986-1.105-4.377-8.181 11.576-43.523 61.889-44.831 63.771-17.753 26.547-136.541 194.747-325.725 240.479-63.076 15.257-121.488 5.277-175.277-7.69-65.98-15.953-111.793-46.918-156.216-76.86-31.456-21.148-61.071-41.232-97.108-56.081-26.138-10.799-53.585-18.161-82.955-22.17.082 1.186.205 2.291.205 3.477 28.756 3.886 55.712 11.167 81.441 21.761 35.751 14.889 65.284 34.851 96.535 55.917z"/><path fill="#4F93DD" d="M203.91 543.295c38.819 27.243 78.947 55.508 132.941 73.547 57.185 19.184 109.707 33.828 173.273 18.775 185.053-43.809 309.444-220.19 329.201-249.764 1.391-2.087 30.433-42.705 41.11-57.676-.41-1.391-.819-2.782-1.187-4.295-8.671 12.189-41.436 57.88-42.909 60.171-19.961 29.942-143.535 204.646-326.911 248.046-62.666 14.89-114.697.287-171.391-18.652-53.503-17.958-93.426-46.018-132.04-73.179-37.551-26.343-72.975-51.213-119.074-66.797C59.885 464.39 31.21 458.704.286 456.618c0 1.104 0 2.29.082 3.395 30.556 2.086 58.78 7.69 85.532 16.689 45.527 15.585 80.664 40.332 118.01 66.593z"/><path fill="#4F93DD" d="M226.859 525.914c33.051 24.87 67.165 50.599 110.32 69.579 53.013 23.275 102.998 45.322 169.591 29.86 180.554-41.804 310.059-226.694 330.798-257.822 1.513-2.209 13.866-20.862 18.57-27.857.696-1.104 11.372-18.08 18.776-29.737-.491-1.391-.9-2.782-1.391-4.295-7.281 11.576-19.471 30.924-20.166 32.028-4.582 6.872-16.853 25.361-18.162 27.161-18.98 28.633-148.443 215.2-329.202 257.127-65.489 15.176-114.983-6.585-167.505-29.656-42.827-18.857-76.778-44.422-109.707-69.17-42.541-32.028-82.75-62.298-139.363-77.76C61.071 437.6 31.13 434.083.164 433.796c0 1.105-.082 2.291-.082 3.395 30.76.205 60.376 3.804 88.437 11.495 56.08 15.339 96.003 45.404 138.34 77.228z"/><path fill="#4F93DD" d="M91.586 420.5c66.388 14.357 109.993 50.395 156.134 88.436 27.447 22.661 55.917 46.222 89.827 65.08l3.313 1.799c51.99 29.043 96.944 54.118 162.719 39.146C683.07 574.22 819.487 374.114 837.158 347.239c.818-1.309 21.271-33.133 33.051-51.417-.491-1.391-.981-2.7-1.513-4.091-11.576 17.958-34.238 53.299-35.751 55.508-21.966 33.051-155.725 224.69-330.184 264.327-64.466 14.562-108.888-10.062-160.224-38.818l-3.313-1.8c-33.747-18.776-61.971-42.132-89.336-64.793-46.427-38.328-90.318-74.652-157.525-89.132-28.756-6.177-59.107-8.304-90.645-6.872-.082 1.104-.205 2.291-.286 3.395 31.374-1.227 61.52.777 90.154 6.954z"/><path fill="#4F93DD" d="M94.49 392.358c76.942 12.885 122.879 55.304 171.596 100.217 22.375 20.575 45.405 41.928 71.788 60.171l7.69 5.277c47.532 33.051 88.436 61.602 154.702 46.795 176.464-39.228 319.221-251.36 335.788-276.68.613-.982 17.957-27.57 29.329-45.036-.491-1.309-.982-2.577-1.596-3.886-11.576 17.671-30.842 47.204-32.028 49.208-21.762 32.929-161.206 235.08-332.188 272.999-64.671 14.358-105.207-13.785-152.043-46.304l-7.69-5.277c-26.139-18.08-49.127-39.31-71.379-59.885-49.004-45.322-95.431-88.027-173.396-101.116-28.96-4.909-59.394-5.4-90.727-2.782-.204 1.186-.286 2.291-.49 3.477 31.373-2.454 61.807-1.963 90.644 2.822z"/><path fill="#4F93DD" d="M97.395 364.215c87.454 10.798 134.535 60.171 184.562 112.406 17.753 18.571 36.037 37.714 56.203 54.813 3.191 2.699 6.381 5.481 9.572 8.181 43.809 37.428 81.769 69.865 149.221 55.098 172.781-37.632 321.798-260.809 337.669-285.27.613-.982 16.689-27.038 24.747-40.332-.613-1.309-1.104-2.495-1.677-3.804-7.567 12.394-25.156 40.945-25.647 41.641-13.581 21.066-162.924 246.738-335.992 284.493-65.775 14.276-103.121-17.548-146.235-54.403-3.19-2.7-6.381-5.4-9.572-8.181-19.961-16.976-38.246-36.038-55.998-54.486-48.104-50.394-97.926-102.507-186.567-113.511-28.838-3.599-58.78-3.108-89.336.491-.205 1.186-.491 2.414-.696 3.477 30.843-3.6 60.908-4.213 89.746-.613z"/><path fill="#4F93DD" d="M100.299 335.95c97.803 8.303 147.216 67.574 195.034 124.882 13.785 16.485 27.938 33.542 43.113 49.127 3.396 3.477 6.791 6.994 10.063 10.389 40.619 42.214 75.756 78.865 145.048 64.098 168.61-35.955 323.516-269.031 339.592-293.778.614-.982 14.562-22.743 21.066-33.051a37.402 37.402 0 0 1-1.677-3.681c-5.808 9.08-21.352 33.541-21.843 34.319-13.867 21.475-169.182 256.923-337.792 292.755-67.288 14.276-101.935-21.557-141.858-63.075a847.9 847.9 0 0 1-10.062-10.472c-15.053-15.462-29.247-32.437-42.91-48.922-48.308-57.88-98.212-117.683-197.324-126.068-27.938-2.414-56.899-.9-86.35 3.313-.287 1.186-.614 2.413-.9 3.6 29.574-4.214 58.74-5.809 86.8-3.436z"/><path fill="#4F93DD" d="M103.162 307.807c107.989 5.399 156.42 72.565 203.215 137.563 10.39 14.48 21.148 29.328 32.356 43.236a684.555 684.555 0 0 1 9.572 12.067c37.714 47.531 70.479 88.436 141.858 73.547 163.619-34.156 324.006-275.29 341.186-301.96.696-.981 11.29-16.852 17.262-25.851-.613-1.187-1.186-2.291-1.8-3.477-5.685 8.467-17.466 25.933-17.875 26.751-14.357 22.253-175.563 266.904-339.469 301.142-69.456 14.48-99.93-23.848-138.463-72.361-3.19-4.009-6.381-7.976-9.571-12.067-11.086-13.785-21.843-28.633-32.233-43.032-47.327-65.693-96.208-133.554-205.915-138.953-26.343-1.309-53.708.695-81.441 5.276a125.77 125.77 0 0 0-1.187 3.682c28.225-4.663 55.876-6.872 82.505-5.563z"/><path fill="#4F93DD" d="M106.066 279.542c118.093 2.208 164.601 77.555 209.515 150.325 7.567 12.394 15.462 25.156 23.561 37.141 2.904 4.377 5.809 8.672 8.59 12.967 34.933 53.095 65.08 98.908 139.24 83.855 160.429-32.724 328.098-287.07 343.396-310.917.491-.819 8.795-12.763 12.394-18.08-.613-1.105-1.186-2.209-1.881-3.395-2.7 3.885-12.763 18.57-13.376 19.47-14.685 22.661-181.863 277.008-341.392 309.527-71.87 14.685-100.012-28.143-135.64-82.341-2.782-4.295-5.686-8.59-8.59-12.967-7.977-11.985-15.871-24.748-23.439-37.019-45.404-73.67-92.322-149.834-212.419-152.043-2.004 0-4.008-.082-6.094-.082-22.375 0-45.2 2.291-68.27 6.176-.491 1.187-.982 2.496-1.514 3.682 23.561-4.172 46.918-6.504 69.784-6.504 2.168.205 4.131.205 6.135.205z"/><path fill="#4F93DD" d="M111.875 251.401c125.986 0 169.182 82.955 211.109 163.21 5.4 10.267 10.963 20.943 16.567 31.128 2.413 4.377 4.786 8.795 7.199 13.09 32.233 59.189 60.007 110.32 136.949 94.94 149.139-29.738 314.435-272.303 342.292-314.721 1.881-2.905 7.69-11.086 10.594-15.176-.614-1.105-1.309-2.209-1.882-3.313-2.086 2.986-9.203 12.885-11.085 15.871-26.465 40.209-191.966 284.288-340.491 313.944-74.57 14.889-100.422-32.847-133.268-93.14-2.414-4.295-4.704-8.672-7.2-13.09-5.603-10.063-11.085-20.78-16.484-31.047-42.337-81.155-86.146-165.091-214.096-165.091h-2.986c-21.148.204-42.91 2.495-64.793 6.381-.614 1.309-1.186 2.495-1.8 3.804 22.58-4.091 44.832-6.504 66.675-6.79h2.7z"/><path fill="#4F93DD" d="M122.428 223.052c129.546 0 168.692 89.54 206.447 176.299 3.681 8.386 7.281 16.771 10.962 24.952 1.882 4.173 3.682 8.304 5.481 12.272 29.329 65.693 54.69 122.468 134.863 106.925 150.612-29.329 331.493-303.841 349.164-331.206-.695-1.104-1.309-2.086-2.004-3.19-11.167 17.384-195.566 301.467-347.855 331.082-77.555 15.053-101.117-37.837-131.059-104.92-1.8-4.091-3.681-8.181-5.481-12.272-3.682-8.181-7.281-16.566-10.963-24.952-36.528-83.732-77.76-178.385-209.923-178.385-3.395 0-6.872.082-10.39.204-17.18.614-34.646 2.577-52.317 5.604-.696 1.309-1.514 2.577-2.209 3.886 18.448-3.313 36.733-5.399 54.69-6.094 3.64-.082 7.117-.205 10.594-.205z"/><path fill="#4F93DD" d="M333.579 384.052c2.29 6.382 4.499 12.681 6.79 18.858l3.886 10.594c26.342 72.77 49.29 135.558 132.859 119.687 140.548-26.67 316.725-287.07 345.768-331.41-.696-.982-1.391-2.086-2.086-3.109-26.343 40.209-203.829 304.454-344.378 331.206-80.664 15.258-102.998-46.222-128.973-117.478l-3.886-10.677c-2.29-6.176-4.499-12.557-6.79-18.857-32.233-90.154-68.679-191.843-204.728-191.761-5.686 0-11.495.204-17.467.49-11.985.696-24.174 2.087-36.446 4.009-.9 1.309-1.8 2.577-2.7 3.886a388.546 388.546 0 0 1 39.31-4.5c147.748-8.876 185.585 96.331 218.841 189.062z"/><path fill="#4F93DD" d="m337.056 368.715 5.972 20.78c23.275 80.337 43.236 149.712 130.65 133.554 129.545-23.97 300.037-268.499 342.169-331.493-.696-.981-1.391-2.004-2.086-2.986-40.537 60.908-211.601 307.236-340.574 331.084-50.395 9.285-77.678-11.167-96.331-46.018 18.162 30.842 45.609 47.818 93.631 39.228 120.588-21.68 287.275-255.819 338.201-331.289-.695-.981-1.513-1.881-2.208-2.904-49.904 74.161-216.796 309.241-336.606 330.798-48.023 8.672-74.856-9.695-92.527-42.337 6.095 9.776 13.376 18.08 22.17 24.257 17.549 12.394 39.719 16.075 67.698 11.167 112.693-19.675 276.108-245.757 333.988-330.798-.696-.9-1.514-1.881-2.209-2.781-57.185 84.141-220.518 310.754-332.393 330.306-27.038 4.786-48.308 1.309-65.079-10.594-35.751-25.238-45.814-86.35-56.49-151.021C326.87 228.248 306.5 105.37 160.756 104.879c-1.391 1.104-2.7 2.291-4.091 3.477 146.644-1.595 166.892 120.874 184.972 229.885 1.8 10.963 3.6 21.843 5.604 32.56-.491-2.413-1.104-4.704-1.595-7.076l-2.414-10.799c-23.07-103.121-49.004-219.086-192.457-219.086-7.076 0-14.48.286-22.17.899-1.186 1.309-2.414 2.496-3.682 3.805 163.415-14.358 190.862 107.498 214.914 215.2l2.414 10.799c4.09 18.08 7.976 35.628 12.476 51.99-2.782-8.999-5.482-18.285-8.181-27.734l-5.972-20.779c-27.734-96.536-59.108-205.343-198.757-205.343-7.772 0-15.789.287-24.257 1.105-5.481.409-10.962.982-16.484 1.677-.982 1.309-2.086 2.577-3.109 3.886 6.586-.9 13.294-1.595 19.88-2.209 157.524-13.13 190.248 100.953 219.209 201.579z"/><path fill="#fff" d="M874.176 307.317c-64.589 2.495-135.354 106.311-147.625 119.974-34.933 38.736-67.861 75.346-133.473 75.346-64.588 0-97.517-29.86-131.468-62.298-38.45-123.778-75.183-239.579-157.606-239.579-82.341 0-120.996 95.922-158.424 188.775-35.219 87.455-68.475 170.001-130.65 170.001h-.9c1.596 6.381 3.395 12.68 5.277 18.98 1.104 3.477 2.209 7.076 3.395 10.594 32.233-2.413 57.512-20.043 78.66-46.222 1.391-.696 2.7-1.596 3.804-2.7 8.386-8.304 16.485-17.876 24.175-28.347l.286-.409c15.053-13.09 28.347-27.652 41.11-41.805 34.932-38.737 67.861-75.265 133.472-75.265 64.466 0 97.435 29.942 131.345 62.298 38.451 123.696 75.183 239.58 157.606 239.58 82.342 0 120.997-95.922 158.425-188.776 35.219-87.454 68.474-170 130.649-170h.982c-1.595-6.382-3.395-12.763-5.277-19.062-1.349-3.722-2.577-7.404-3.763-11.085zm-570.172-76.574c36.447 0 63.689 40.128 86.841 95.635-22.947-23.847-50.722-39.309-86.841-39.309-47.899 0-81.073 24.747-107.988 58.985 28.142-64.303 59.107-115.311 107.988-115.311zm0 133.759c-49.617 0-84.141 17.875-111.997 41.109 28.838-49.004 60.294-88.722 111.997-88.722 42.909 0 71.87 31.128 97.108 73.465-25.115-15.258-55.589-25.852-97.108-25.852zm288.993 301.877c-36.446 0-63.689-40.046-86.841-95.513 22.947 23.848 50.722 39.31 86.922 39.31 47.818 0 80.951-24.666 107.826-58.903-28.143 64.18-59.108 115.106-107.907 115.106zm.081-86.145c-43.031 0-72.074-31.129-97.23-73.465 25.156 15.257 55.589 25.851 97.23 25.851 49.495 0 84.06-17.875 111.793-41.109-28.715 48.963-60.171 88.723-111.793 88.723z"/><defs><linearGradient id="a" x1="895.362" x2=".88" y1="448.328" y2="448.328" gradientUnits="userSpaceOnUse"><stop stop-color="#4F93DD"/><stop offset=".004" stop-color="#4F92DC"/><stop offset=".008" stop-color="#4E92DC"/><stop offset=".012" stop-color="#4E91DB"/><stop offset=".016" stop-color="#4E91DA"/><stop offset=".02" stop-color="#4D90D9"/><stop offset=".023" stop-color="#4D8FD9"/><stop offset=".027" stop-color="#4D8FD8"/><stop offset=".031" stop-color="#4C8ED7"/><stop offset=".035" stop-color="#4C8ED6"/><stop offset=".039" stop-color="#4C8DD6"/><stop offset=".043" stop-color="#4B8DD5"/><stop offset=".047" stop-color="#4B8CD4"/><stop offset=".051" stop-color="#4B8BD3"/><stop offset=".055" stop-color="#4A8BD3"/><stop offset=".059" stop-color="#4A8AD2"/><stop offset=".063" stop-color="#4A8AD1"/><stop offset=".066" stop-color="#4A89D0"/><stop offset=".07" stop-color="#4989D0"/><stop offset=".074" stop-color="#4988CF"/><stop offset=".078" stop-color="#4987CE"/><stop offset=".082" stop-color="#4887CD"/><stop offset=".086" stop-color="#4886CD"/><stop offset=".09" stop-color="#4886CC"/><stop offset=".094" stop-color="#4785CB"/><stop offset=".098" stop-color="#4785CA"/><stop offset=".102" stop-color="#4784CA"/><stop offset=".105" stop-color="#4683C9"/><stop offset=".109" stop-color="#4683C8"/><stop offset=".113" stop-color="#4682C7"/><stop offset=".117" stop-color="#4582C7"/><stop offset=".121" stop-color="#4581C6"/><stop offset=".125" stop-color="#4581C5"/><stop offset=".129" stop-color="#4480C4"/><stop offset=".133" stop-color="#447FC4"/><stop offset=".137" stop-color="#447FC3"/><stop offset=".141" stop-color="#437EC2"/><stop offset=".144" stop-color="#437EC1"/><stop offset=".148" stop-color="#437DC1"/><stop offset=".152" stop-color="#427DC0"/><stop offset=".156" stop-color="#427CBF"/><stop offset=".16" stop-color="#427BBE"/><stop offset=".164" stop-color="#417BBE"/><stop offset=".168" stop-color="#417ABD"/><stop offset=".172" stop-color="#417ABC"/><stop offset=".176" stop-color="#4079BB"/><stop offset=".18" stop-color="#4079BB"/><stop offset=".184" stop-color="#4078BA"/><stop offset=".188" stop-color="#3F77B9"/><stop offset=".191" stop-color="#3F77B8"/><stop offset=".195" stop-color="#3F76B8"/><stop offset=".199" stop-color="#3E76B7"/><stop offset=".203" stop-color="#3E75B6"/><stop offset=".207" stop-color="#3E75B5"/><stop offset=".211" stop-color="#3D74B5"/><stop offset=".215" stop-color="#3D73B4"/><stop offset=".219" stop-color="#3D73B3"/><stop offset=".223" stop-color="#3C72B2"/><stop offset=".227" stop-color="#3C72B2"/><stop offset=".231" stop-color="#3C71B1"/><stop offset=".234" stop-color="#3B71B0"/><stop offset=".238" stop-color="#3B70AF"/><stop offset=".242" stop-color="#3B6FAE"/><stop offset=".246" stop-color="#3A6FAE"/><stop offset=".25" stop-color="#3A6EAD"/><stop offset=".254" stop-color="#3A6EAC"/><stop offset=".258" stop-color="#3A6DAB"/><stop offset=".262" stop-color="#396DAB"/><stop offset=".266" stop-color="#396CAA"/><stop offset=".27" stop-color="#396BA9"/><stop offset=".273" stop-color="#386BA8"/><stop offset=".277" stop-color="#386AA8"/><stop offset=".281" stop-color="#386AA7"/><stop offset=".285" stop-color="#3769A6"/><stop offset=".289" stop-color="#3769A5"/><stop offset=".293" stop-color="#3768A5"/><stop offset=".297" stop-color="#3667A4"/><stop offset=".301" stop-color="#3667A3"/><stop offset=".305" stop-color="#3666A2"/><stop offset=".309" stop-color="#3566A2"/><stop offset=".313" stop-color="#3565A1"/><stop offset=".316" stop-color="#3565A0"/><stop offset=".32" stop-color="#34649F"/><stop offset=".324" stop-color="#34639F"/><stop offset=".328" stop-color="#34639E"/><stop offset=".332" stop-color="#33629D"/><stop offset=".336" stop-color="#33629C"/><stop offset=".34" stop-color="#33619C"/><stop offset=".344" stop-color="#32619B"/><stop offset=".348" stop-color="#32609A"/><stop offset=".352" stop-color="#325F99"/><stop offset=".355" stop-color="#315F99"/><stop offset=".359" stop-color="#315E98"/><stop offset=".363" stop-color="#315E97"/><stop offset=".367" stop-color="#305D96"/><stop offset=".371" stop-color="#305D96"/><stop offset=".375" stop-color="#305C95"/><stop offset=".379" stop-color="#2F5B94"/><stop offset=".383" stop-color="#2F5B93"/><stop offset=".387" stop-color="#2F5A93"/><stop offset=".391" stop-color="#2E5A92"/><stop offset=".395" stop-color="#2E5991"/><stop offset=".398" stop-color="#2E5990"/><stop offset=".402" stop-color="#2D5890"/><stop offset=".406" stop-color="#2D578F"/><stop offset=".41" stop-color="#2D578E"/><stop offset=".414" stop-color="#2C568D"/><stop offset=".418" stop-color="#2C568D"/><stop offset=".422" stop-color="#2C558C"/><stop offset=".426" stop-color="#2B558B"/><stop offset=".43" stop-color="#2B548A"/><stop offset=".434" stop-color="#2B538A"/><stop offset=".438" stop-color="#2B5389"/><stop offset=".441" stop-color="#2A5288"/><stop offset=".445" stop-color="#2A5287"/><stop offset=".449" stop-color="#2A5187"/><stop offset=".453" stop-color="#295186"/><stop offset=".457" stop-color="#295085"/><stop offset=".461" stop-color="#295084"/><stop offset=".465" stop-color="#284F84"/><stop offset=".469" stop-color="#284E83"/><stop offset=".473" stop-color="#284E82"/><stop offset=".477" stop-color="#274D81"/><stop offset=".48" stop-color="#274D81"/><stop offset=".484" stop-color="#274C80"/><stop offset=".488" stop-color="#264C7F"/><stop offset=".492" stop-color="#264B7E"/><stop offset=".496" stop-color="#264A7E"/><stop offset=".5" stop-color="#254A7D"/><stop offset=".504" stop-color="#25497C"/><stop offset=".508" stop-color="#25497B"/><stop offset=".512" stop-color="#24487B"/><stop offset=".516" stop-color="#24487A"/><stop offset=".519" stop-color="#244779"/><stop offset=".523" stop-color="#234678"/><stop offset=".527" stop-color="#234678"/><stop offset=".531" stop-color="#234577"/><stop offset=".535" stop-color="#224576"/><stop offset=".539" stop-color="#224475"/><stop offset=".543" stop-color="#224475"/><stop offset=".547" stop-color="#214374"/><stop offset=".551" stop-color="#214273"/><stop offset=".555" stop-color="#214272"/><stop offset=".559" stop-color="#204172"/><stop offset=".563" stop-color="#204171"/><stop offset=".566" stop-color="#204070"/><stop offset=".57" stop-color="#1F406F"/><stop offset=".574" stop-color="#1F3F6F"/><stop offset=".578" stop-color="#1F3E6E"/><stop offset=".582" stop-color="#1E3E6D"/><stop offset=".586" stop-color="#1E3D6C"/><stop offset=".59" stop-color="#1E3D6C"/><stop offset=".594" stop-color="#1D3C6B"/><stop offset=".598" stop-color="#1D3C6A"/><stop offset=".602" stop-color="#1D3B69"/><stop offset=".606" stop-color="#1C3A69"/><stop offset=".609" stop-color="#1C3A68"/><stop offset=".613" stop-color="#1C3967"/><stop offset=".617" stop-color="#1B3966"/><stop offset=".621" stop-color="#1B3866"/><stop offset=".625" stop-color="#1B3865"/><stop offset=".629" stop-color="#1B3764"/><stop offset=".633" stop-color="#1A3663"/><stop offset=".641" stop-color="#1A3663"/><stop offset=".656" stop-color="#1A3663"/><stop offset=".688" stop-color="#1A3663"/><stop offset=".75" stop-color="#1A3663"/><stop offset="1" stop-color="#1B3663"/></linearGradient></defs></svg>