<svg xmlns="http://www.w3.org/2000/svg" fill="none" viewBox="0 0 870 441">
  <g clip-path="url(#clip0_1_1069)">
    <path fill="#fff" d="M0 0h870v441H0z"/>
    <path fill="#fff" d="M-103 395.029l21.394-11.673c21.398-11.502 64.19-35.112 106.981-44.296 42.792-9.183 85.584-4.81 128.376 4.678 42.792 9.314 85.583 23.308 128.375 34.981 42.792 11.502 85.58 21.122 128.372 9.314 42.792-11.806 85.584-44.163 128.376-41.977 42.791 2.188 85.583 39.792 128.375 44.296 42.792 4.677 85.584-23.306 128.376-20.99 42.791 2.494 85.583 34.851 106.977 51.334L924 437.006V451H-103v-55.971z"/>
    <path fill="#1A3663" d="M-132.225 183.19c28.209 0 43.304 34.712 59.288 71.467C-55.98 293.665-38.441 334-1.07 334c37.407 0 54.099-48.691 71.534-100.696 15.393-13.597 30.339-26.162 59.637-26.162 29.754 0 44.721 15.393 60.57 31.69 5.78 5.946 11.775 12.074 18.575 17.539l.134.167c3.454 4.433 7.134 8.441 10.943 11.936v-.005c.503.462 1.093.829 1.729 1.133 10.348 11.889 22.866 19.563 39.157 19.563 3.747 0 6.786-2.813 6.786-6.289 0-3.471-3.039-6.289-6.786-6.289-28.198 0-43.294-34.713-59.272-71.463-16.958-39.007-34.496-79.343-71.857-79.343-37.407 0-54.098 48.677-71.529 100.672-15.398 13.602-30.344 26.181-59.6 26.181-29.77 0-44.721-15.369-60.556-31.642-5.805-5.965-11.82-12.112-18.652-17.592l-.128-.162c-3.46-4.432-7.14-8.441-10.943-11.931h-.005c-.498-.457-1.088-.823-1.72-1.128-10.347-11.888-22.871-19.563-39.167-19.563-3.747 0-6.78 2.814-6.78 6.284 0 3.476 3.028 6.29 6.775 6.29zM-1.07 321.426c-22.158 0-36.216-21.444-48.976-48.439 12.21 14.407 27.25 24.805 48.997 24.805 16.404 0 28.979-6.513 39.393-16.539-10.527 23.324-22.866 40.173-39.414 40.173zm131.171-126.857c-18.894 0-32.706 4.442-44.116 10.874 11.441-17.787 24.617-30.885 44.116-30.885 23.42 0 37.694 16.692 50.741 37.284-12.595-9.756-28.255-17.273-50.741-17.273zm-.026-56.214c22.132 0 36.185 21.401 48.935 48.358-12.185-14.364-27.203-24.729-48.909-24.729-16.425 0-29.01 6.508-39.435 16.526 10.522-23.315 22.861-40.155 39.409-40.155zM-1.049 265.208c18.857 0 32.649-4.437 44.048-10.87-11.43 17.783-24.59 30.881-44.048 30.881-23.43 0-37.725-16.697-50.793-37.303 12.595 9.765 28.265 17.292 50.793 17.292z"/>
    <path fill="#4F93DD" d="M892.966 196.195c-27.006 11.856-59.577-13.079-94.065-39.479-36.6-28.022-74.443-56.995-110.219-41.284-35.814 15.725-26.372 66.618-15.915 120.806-7.638 18.722-15.393 36.328-43.442 48.647-28.484 12.506-50.847 4.93-74.522-3.096-8.642-2.926-17.578-5.928-26.942-7.996l-.21-.093c-5.629-2.54-11.242-4.608-16.71-6.153v.004c-.722-.208-1.483-.289-2.244-.297-16.11-6.361-32.102-8.013-47.7-1.164-3.59 1.576-5.024 5.389-3.214 8.519 1.814 3.129 6.189 4.386 9.779 2.811 26.996-11.856 59.567 13.083 94.05 39.483 36.6 28.022 74.443 56.995 110.214 41.292 35.81-15.725 26.377-66.605 15.92-120.785 7.638-18.735 15.383-36.353 43.389-48.651 28.498-12.514 50.837-4.951 74.487 3.058 8.672 2.934 17.641 5.944 27.04 8.008l.21.089c5.623 2.544 11.242 4.612 16.71 6.158v-.005c.717.204 1.473.285 2.234.298 16.114 6.361 32.107 8.013 47.71 1.163 3.585-1.575 5.024-5.388 3.209-8.518-1.809-3.13-6.184-4.391-9.769-2.815zm-197.719-69.433c21.212-9.313 45.862 4.097 72.166 23.058-19.207-7.848-39.034-10.897-59.851-1.754-15.705 6.892-24.342 18.051-29.078 31.466-2.098-25.445.917-45.81 16.763-52.77zm-59.353 169.452c18.086-7.941 28.991-17.75 36.551-28.344-1.663 20.837-7.438 38.179-26.108 46.379-22.417 9.843-44.794.802-68.035-12.268 17.144 3.495 36.064 3.686 57.592-5.767zm29.367 50.647c-21.187 9.304-45.808-4.072-72.088-23.011 19.164 7.826 38.946 10.854 59.729 1.728 15.724-6.9 24.377-18.064 29.123-31.47 2.097 25.436-.922 45.797-16.764 52.753zM724.57 177.43c-18.051 7.924-28.938 17.724-36.493 28.31 1.664-20.828 7.424-38.166 26.05-46.345 22.427-9.847 44.828-.811 68.098 12.26-17.153-3.499-36.087-3.695-57.655 5.775z"/>
  </g>
  <defs>
    <clipPath id="clip0_1_1069">
      <path fill="#fff" d="M0 0h870v441H0z"/>
    </clipPath>
  </defs>
</svg>
