<?xml version="1.0" encoding="UTF-8" standalone="no"?>
<svg
   xmlns:dc="http://purl.org/dc/elements/1.1/"
   xmlns:cc="http://creativecommons.org/ns#"
   xmlns:rdf="http://www.w3.org/1999/02/22-rdf-syntax-ns#"
   xmlns:svg="http://www.w3.org/2000/svg"
   xmlns="http://www.w3.org/2000/svg"
   id="svg21222"
   height="240"
   width="600"
   version="1.1">
  <metadata
     id="metadata4225">
    <rdf:RDF>
      <cc:Work
         rdf:about="">
        <dc:format>image/svg+xml</dc:format>
        <dc:type
           rdf:resource="http://purl.org/dc/dcmitype/StillImage" />
        <dc:title></dc:title>
      </cc:Work>
    </rdf:RDF>
  </metadata>
  <defs
     id="defs21224" />
  <path
     id="path4782"
     d="m 264.72471,237.62155 c -6.95511,-4.425 -1.68277,-52.74237 6.21858,-56.98894 8.04002,-4.3211 10.24121,-2.43236 16.5748,14.22211 2.97309,7.8179 6.45444,14.21436 7.73633,14.21436 1.28188,0 5.6216,-7.05598 9.64383,-15.67994 4.02221,-8.62398 8.82948,-15.65834 10.68281,-15.63193 7.97245,0.1136 10.4865,6.21978 13.21456,32.09587 2.84318,26.96829 2.77631,27.43989 -3.89247,27.43989 -7.42923,0 -10.5227,-7.15086 -10.59398,-24.48898 -0.0543,-13.21577 -4.99564,-10.3629 -9.77027,5.64084 -5.2744,17.67893 -11.01507,18.18811 -18.99904,1.68512 -3.69525,-7.63813 -7.87754,-13.16822 -9.29397,-12.2891 -1.41644,0.87911 -2.57534,8.57107 -2.57534,17.09325 0,15.71304 -1.29764,17.55342 -8.94584,12.68745 z m 74.66041,-12.3638 c -3.87152,-14.43859 -2.82732,-36.69267 1.94657,-41.4868 4.85058,-4.87109 41.63581,-7.93831 41.63581,-3.47167 0,4.71182 -10.40556,9.95386 -19.75861,9.95386 -7.40559,0 -13.15647,7.2651 -9.91722,12.52846 0.86466,1.40499 7.19282,1.79742 14.06257,0.87209 8.37283,-1.12778 12.49048,-0.48002 12.49048,1.96491 0,3.79549 -2.07251,4.80077 -16.39452,7.95229 -5.845,1.28615 -8.58763,3.87366 -8.58763,8.10189 0,5.15694 2.12189,6.21224 12.49107,6.21224 14.8421,0 16.55596,4.67156 2.73243,7.44797 -22.35784,4.4905 -27.2235,2.89372 -30.70095,-10.07524 z m 46.70514,-14.23669 c 0,-20.23475 1.14584,-27.22691 4.98637,-30.42777 4.23159,-3.52675 5.49762,-3.23838 8.36398,1.90515 1.85767,3.33355 8.71278,11.73407 15.23356,18.6678 l 11.85593,12.60682 0.0781,-16.23995 c 0.0716,-14.84969 5.24728,-26.09491 12.01152,-26.09636 1.16544,-2.4e-4 1.62364,12.34772 1.01817,27.4399 -1.5601,38.88937 -6.15695,42.8389 -28.00338,24.06002 l -13.05318,-11.22034 0,9.02514 c 4e-5,8.67238 -4.75694,16.5515 -9.99283,16.5515 -1.37401,0 -2.49821,-11.82236 -2.49821,-26.27191 z m 80.2117,23.00667 c -9.04408,-2.6467 -17.7548,-8.54011 -17.75822,-12.01469 -0.001,-1.0824 7.02516,-1.47899 15.61384,-0.88134 12.35239,0.85958 15.61578,0.0925 15.61578,-3.67082 0,-2.71942 -3.95046,-5.62882 -9.22166,-6.79147 -12.06217,-2.6605 -25.1288,-13.14233 -25.1288,-20.15784 0,-12.10922 19.39658,-21.49563 32.25845,-15.61055 8.75591,4.00634 15.02491,14.26081 6.77458,11.08146 -5.97586,-2.30286 -20.82348,4.25082 -19.39312,8.56004 0.58577,1.76476 5.02157,4.27126 9.85733,5.57001 10.93851,2.93781 23.58985,14.55585 23.58985,21.66316 0,10.43228 -16.70798,16.78804 -32.20803,12.25204 z m 44.4589,-9.03747 c -10.40643,-10.45048 -11.90947,-23.37526 -4.41163,-37.93587 8.33243,-16.18138 27.06646,-20.85736 37.44091,-9.3452 5.53535,6.1424 5.45432,6.27197 -3.92257,6.27197 -6.85801,0 -11.8686,2.73765 -17.65922,9.64858 -8.29415,9.89878 -9.49582,14.36895 -6.18903,23.02283 2.09248,5.47602 15.35031,6.78396 18.40773,1.81599 2.60922,-4.23971 14.04724,1.96757 14.04724,7.62328 0,11.58059 -25.83619,10.82593 -37.71343,-1.10158 z m 42.13191,-5.72922 c -1.16052,-6.46798 -3.50417,-13.52395 -5.20801,-15.67994 -2.07712,-2.62823 -2.00503,-3.91999 0.21859,-3.91999 1.82414,0 3.75277,-5.28025 4.28581,-11.73387 0.66198,-8.01409 2.63828,-12.05134 6.23422,-12.73525 4.06609,-0.77334 5.48826,1.72001 6.24553,10.94987 0.85454,10.41548 2.08411,12.07878 9.56818,12.94355 8.10142,0.93612 8.58761,0.28226 8.58761,-11.54863 0,-9.93852 1.34488,-12.96958 6.48088,-14.60658 3.56448,-1.13612 6.90469,-1.58402 7.42269,-0.99533 0.51801,0.58868 1.58918,12.78568 2.38036,27.10443 1.24936,22.61024 0.71083,26.4252 -4.09463,29.0079 -8.11046,4.35896 -8.59109,4.00397 -10.83395,-8.00216 -1.66366,-8.90599 -3.45713,-10.97596 -9.50975,-10.97596 -6.14505,0 -7.45938,1.59855 -7.45938,9.07244 0,7.61708 -4.51229,12.87949 -11.04359,12.87949 -0.64049,0 -2.11403,-5.292 -3.27456,-11.75997 z M 268.20569,163.2321 c -2.1469,-0.94903 -3.90346,-3.84232 -3.90346,-6.4295 0,-2.58721 -1.05392,-4.18832 -2.34208,-3.55804 -1.28814,0.63027 -6.14105,3.06124 -10.78425,5.40214 -8.07685,4.07201 -9.25643,3.54779 -27.25928,-12.11436 -10.34941,-9.00381 -22.35947,-20.59821 -26.68899,-25.76536 l -7.87186,-9.39479 0,20.28903 c 0,24.01806 -0.32292,24.26138 -34.58197,26.05783 l -23.65227,1.24026 -7.05247,-15.12105 -7.05246,-15.12106 -30.189282,3.9992 c -16.60411,2.19956 -32.695852,4.04998 -35.75945,4.11206 -3.063586,0.0621 -8.472066,5.05206 -12.018833,11.08885 -5.21948,8.88377 -8.340792,10.97593 -16.375083,10.97593 -12.7267105,0 -24.8782485,-8.28175 -22.33374555,-15.22131 C 1.3813305,140.83249 17.209225,111.40031 35.513301,78.26706 70.530688,14.880087 75.069158,9.7624646 94.241318,12.044922 c 10.068732,1.198695 8.016392,-2.017057 35.679242,55.904631 l 21.71692,45.471847 -1.88705,-46.176205 c -1.41247,-34.563397 -0.91007,-47.358372 1.99769,-50.876844 5.16624,-6.251285 24.57812,-9.7977004 29.04971,-5.30718 1.90665,1.91473 4.26087,13.519525 5.23159,25.788436 l 1.76495,22.30711 16.48615,-20.691485 c 18.50444,-23.224661 25.82526,-25.65255 40.11934,-13.305238 l 8.55085,7.38625 -19.45218,23.906262 c -15.61247,19.187369 -18.85577,25.002848 -16.43082,29.461615 2.7993,5.147097 14.45921,16.693099 35.52414,35.177099 l 8.58762,7.53543 0,-20.74127 0,-20.741267 -11.7104,-0.973311 c -9.57212,-0.795584 -11.90019,-2.319933 -12.74988,-8.348251 -2.18829,-15.525135 1.82525,-21.973282 14.32365,-23.012384 l 11.69801,-0.972561 1.61029,-18.176686 c 1.85658,-20.956375 5.47602,-24.581643 23.37187,-23.409382 l 12.49108,0.818217 0.92476,21.229228 0.92477,21.229241 24.8381,-2.08019 24.83808,-2.080178 0,8.10578 c 0,12.130529 4.05356,12.359086 12.02387,0.677961 11.37398,-16.669499 29.57507,-27.573368 48.68259,-29.164616 23.22516,-1.934163 36.83643,3.492049 51.96826,20.717445 l 12.8933,14.677134 -0.73161,-15.67994 c -1.04132,-22.318204 -0.95575,-22.545738 9.90867,-26.349128 5.40889,-1.893519 10.51652,-3.442773 11.35033,-3.442773 0.83386,0 14.67662,12.960729 30.76172,28.801612 l 29.24567,28.801625 0,-25.281644 c 0,-29.31561 2.6581,-33.234673 22.81047,-33.631564 l 13.10139,-0.258022 1.99638,24.695465 c 1.098,13.582498 2.50326,42.47468 3.12277,64.204839 l 1.12639,39.5094 -8.5029,3.01038 c -11.44416,4.05171 -18.77837,-0.24293 -49.732,-29.12115 l -25.2159,-23.52525 1.1294,26.36869 c 1.09173,25.48946 0.86907,26.50122 -6.67753,30.3427 -4.29381,2.1857 -12.2101,3.9948 -17.59172,4.02023 -10.7413,0.0507 -13.51429,-4.98783 -13.59335,-24.6992 l -0.0427,-10.63349 -13.13272,14.98272 c -15.77158,17.9933 -27.75409,23.53219 -50.90818,23.53219 -20.77019,0 -38.01625,-7.8733 -49.61151,-22.64901 l -8.06636,-10.27888 -0.0347,11.58213 c -0.025,8.38837 -1.94843,12.9283 -6.97502,16.46394 -8.31432,5.84825 -27.00787,6.46643 -29.08585,0.96183 -0.81386,-2.156 -2.52633,-18.73755 -3.80545,-36.84788 -2.18509,-30.937235 -2.75044,-32.988466 -9.35192,-33.929999 -6.91934,-0.986862 -7.02623,-0.479854 -7.02623,33.327909 0,25.72476 -1.10429,35.25037 -4.4055,38.00174 -5.08365,4.23689 -23.4191,7.11071 -29.16427,4.57107 z M 424.8225,117.69314 c 7.35489,-3.36529 14.35486,-16.64305 14.35486,-27.228691 0,-8.245742 -9.87961,-16.245189 -20.00131,-16.194889 -11.41245,0.05674 -15.28731,2.271768 -20.12722,11.505778 -5.57184,10.630442 -4.28722,19.391272 4.07475,27.788632 8.68372,8.72051 10.78897,9.12111 21.69892,4.12917 z M 101.28448,97.72391 C 103.21092,96.06195 87.726168,67.074961 84.742958,66.758641 81.784688,66.444961 64.672977,94.83928 64.517902,100.3191 c -0.0616,2.17634 34.024586,-0.22965 36.766578,-2.59519 z m 216.3315,-63.125153 c -7.3781,-9.419439 -7.5494,-10.435493 -3.5431,-21.017463 1.84562,-4.8748944 7.08759,-9.1149774 14.1712,-11.4626624 9.51673,-3.1541046 12.47865,-2.9122761 19.29937,1.575748 7.09968,4.671579 7.85246,6.8351864 6.33395,18.2044594 -2.88804,21.623111 -23.59222,28.874377 -36.26142,12.699918 z"
     style="fill:#de1616;fill-opacity:1" />
</svg>
