<?xml version="1.0" standalone="no"?>
<!DOCTYPE svg PUBLIC "-//W3C//DTD SVG 20010904//EN"
 "http://www.w3.org/TR/2001/REC-SVG-20010904/DTD/svg10.dtd">
<svg version="1.0" xmlns="http://www.w3.org/2000/svg"
 width="512.000000pt" height="512.000000pt" viewBox="0 0 512.000000 512.000000"
 preserveAspectRatio="xMidYMid meet">
<metadata>
Created by potrace 1.14, written by Peter Selinger 2001-2017
</metadata>
<g transform="translate(0.000000,512.000000) scale(0.100000,-0.100000)"
fill="#000000" stroke="none">
<path d="M2345 4974 c-16 -2 -70 -9 -120 -15 -667 -81 -1299 -445 -1704 -980
-137 -182 -283 -450 -338 -619 -8 -25 -19 -54 -24 -65 -14 -31 -58 -193 -68
-249 -5 -28 -17 -94 -27 -146 -22 -119 -26 -565 -7 -673 7 -37 18 -96 24 -132
11 -62 13 -65 39 -65 15 0 61 17 101 37 128 63 252 213 363 438 27 55 57 116
67 135 16 33 39 88 183 445 32 77 70 168 87 203 16 35 29 65 29 67 0 3 27 60
61 127 185 373 378 554 626 589 308 43 545 -184 758 -726 45 -114 180 -512
204 -601 9 -34 28 -57 99 -119 149 -132 274 -204 427 -247 107 -29 334 -31
440 -4 165 43 325 150 476 318 46 51 145 157 219 235 74 77 194 204 267 280
138 145 196 189 305 228 34 12 64 28 66 34 2 6 -23 64 -56 128 -245 489 -627
867 -1122 1113 -257 128 -510 206 -810 250 -75 11 -508 22 -565 14z"/>
<path d="M1583 3881 c-161 -55 -325 -254 -459 -557 l-25 -57 68 69 c170 173
326 243 544 245 87 0 117 -4 184 -26 96 -32 167 -71 246 -136 l58 -49 -35 77
c-106 233 -232 388 -352 433 -66 25 -158 25 -229 1z"/>
<path d="M1595 3398 c-85 -16 -186 -71 -266 -147 -74 -68 -174 -195 -215 -271
-12 -22 -28 -47 -35 -57 -8 -9 15 5 51 31 90 66 235 135 333 158 106 26 340
32 447 13 91 -17 194 -51 278 -94 34 -17 62 -29 62 -25 0 22 -108 163 -180
234 -146 146 -288 194 -475 158z"/>
<path d="M4915 3276 c-115 -36 -229 -134 -322 -275 -68 -103 -179 -331 -266
-546 -36 -88 -91 -223 -122 -300 -79 -193 -192 -422 -265 -535 -83 -127 -231
-274 -321 -317 -179 -88 -374 -82 -518 15 -68 46 -156 138 -214 225 -47 70
-167 293 -167 311 0 4 -9 25 -19 49 -38 82 -112 291 -176 495 l-65 207 -70 67
c-100 95 -192 162 -285 207 -69 34 -109 46 -245 77 -14 3 -83 6 -155 6 -151 0
-248 -21 -357 -77 -128 -65 -214 -140 -440 -385 -188 -203 -216 -232 -376
-396 -156 -160 -219 -203 -341 -235 -59 -15 -58 -1 -4 -149 77 -209 210 -448
351 -629 36 -47 120 -142 187 -210 217 -223 416 -366 700 -506 251 -124 483
-195 785 -242 143 -22 527 -24 670 -4 390 54 702 161 1022 350 208 122 495
371 645 556 450 558 628 1248 502 1945 -23 130 -71 303 -84 306 -5 1 -28 -3
-50 -10z"/>
<path d="M3947 2369 c-101 -83 -295 -166 -432 -184 -79 -11 -290 -8 -353 5
-135 28 -244 66 -322 113 -21 13 -31 16 -24 7 5 -8 32 -49 60 -90 78 -117 177
-211 279 -261 77 -39 95 -43 174 -47 175 -8 292 40 430 177 74 73 177 208 220
289 15 28 14 28 -32 -9z"/>
<path d="M3902 1980 c-178 -196 -434 -285 -671 -235 -122 26 -258 99 -336 183
l-26 27 17 -40 c120 -291 283 -475 440 -499 153 -23 328 86 458 286 31 47 56
89 56 92 0 4 10 23 23 44 21 34 109 213 104 212 -1 -1 -30 -32 -65 -70z"/>
</g>
</svg>
