<?xml version="1.0" standalone="no"?>
<!DOCTYPE svg PUBLIC "-//W3C//DTD SVG 20010904//EN"
 "http://www.w3.org/TR/2001/REC-SVG-20010904/DTD/svg10.dtd">
<svg version="1.0" xmlns="http://www.w3.org/2000/svg"
 width="700.000000pt" height="700.000000pt" viewBox="0 0 700.000000 700.000000"
 preserveAspectRatio="xMidYMid meet">
<metadata>
Created by potrace 1.14, written by Peter Selinger 2001-2017
</metadata>
<g transform="translate(0.000000,700.000000) scale(0.100000,-0.100000)"
fill="#000000" stroke="none">
<path d="M4050 6976 c-252 -47 -396 -99 -551 -202 -168 -112 -293 -254 -373
-425 -35 -74 -83 -225 -91 -286 -2 -18 -7 -48 -10 -65 -3 -18 -7 -50 -10 -72
-5 -48 -5 -47 -52 -52 -80 -10 -249 -34 -273 -39 -14 -3 -47 -10 -75 -15 -139
-28 -464 -128 -489 -151 -6 -5 -16 -9 -23 -9 -8 0 -73 -29 -146 -64 -300 -145
-547 -319 -768 -539 -130 -129 -161 -165 -263 -302 -235 -314 -389 -658 -472
-1050 -6 -30 -32 -194 -38 -245 -23 -182 -23 -562 -2 -735 3 -16 7 -64 11
-105 4 -41 8 -77 10 -80 2 -3 6 -30 10 -60 10 -81 41 -229 76 -360 170 -643
515 -1180 994 -1546 232 -178 514 -325 802 -418 60 -19 120 -37 134 -40 13 -3
63 -14 110 -25 279 -65 499 -86 899 -86 223 0 451 9 483 20 6 2 41 6 77 9 62
6 77 8 160 22 19 3 46 8 60 10 67 11 142 28 215 46 44 11 87 21 95 23 109 22
379 124 555 210 152 74 394 224 479 295 288 243 443 423 620 723 154 261 294
668 341 992 3 22 10 65 15 95 5 30 11 84 14 120 4 36 8 90 11 120 11 113 13
266 5 310 -4 25 -11 77 -14 115 -14 156 -46 243 -123 328 l-34 38 6 -63 c3
-35 7 -121 9 -193 2 -71 9 -149 15 -172 16 -57 54 -100 102 -114 21 -7 39 -13
39 -14 0 -3 -28 -75 -40 -100 -57 -129 -116 -318 -189 -612 -72 -286 -130
-441 -248 -663 -209 -394 -529 -739 -893 -965 -103 -63 -341 -185 -363 -185
-7 0 -17 -4 -22 -9 -15 -14 -240 -87 -340 -111 -49 -12 -99 -23 -110 -26 -11
-3 41 26 115 64 256 130 441 243 620 381 236 182 473 421 625 631 21 30 42 57
45 60 5 4 128 195 166 257 92 150 235 474 307 698 47 146 117 405 117 435 0
10 -13 20 -33 27 -32 10 -34 9 -46 -21 -19 -47 -102 -279 -106 -296 -2 -8 -18
-53 -34 -100 l-31 -85 7 55 c13 101 7 192 -16 268 -23 76 -21 92 8 92 54 0 99
146 65 212 -10 19 -11 39 -5 72 4 25 7 105 6 178 -2 151 -19 208 -73 246 l-30
22 -12 -33 c-7 -17 -14 -81 -16 -142 -4 -129 14 -222 52 -272 14 -19 22 -33
17 -32 -4 1 -18 1 -30 0 -22 -1 -23 -4 -23 -111 0 -142 -40 -342 -130 -645
-244 -821 -722 -1363 -1413 -1601 -149 -52 -358 -104 -482 -120 -22 -3 -51 -7
-65 -10 -14 -2 -52 -7 -85 -10 -33 -3 -71 -7 -85 -9 -14 -3 -110 -8 -215 -11
-104 -3 -191 -7 -193 -9 -2 -2 -4 -18 -5 -35 -2 -28 2 -34 23 -38 14 -3 131
-6 260 -6 206 0 325 8 430 29 14 3 41 8 60 11 109 16 381 99 542 164 72 29 73
29 43 5 -16 -14 -33 -25 -37 -25 -4 0 -26 -13 -50 -29 -151 -102 -468 -235
-658 -276 -208 -46 -324 -59 -505 -58 -166 0 -282 13 -443 49 -342 76 -671
238 -1029 505 -523 392 -901 1056 -1028 1804 -8 50 -17 115 -20 145 -3 30 -9
89 -13 130 -13 131 -7 393 14 570 7 63 43 249 55 286 5 17 12 42 14 54 8 42
67 213 97 285 70 162 199 392 271 481 183 225 312 349 507 486 204 143 527
274 820 332 125 25 133 27 200 36 36 6 75 12 88 15 19 5 25 0 33 -25 6 -17 28
-65 49 -108 128 -265 337 -472 612 -608 51 -25 101 -50 111 -56 25 -13 196
-65 238 -72 291 -51 579 4 797 153 78 53 252 224 252 247 0 4 7 15 16 25 15
17 20 15 87 -34 154 -112 238 -215 357 -442 75 -142 114 -205 177 -282 45 -57
164 -175 170 -170 1 2 4 30 5 63 2 65 -12 116 -50 184 -33 58 -24 50 48 -46
97 -129 221 -350 345 -617 10 -21 19 -36 20 -35 9 9 -78 422 -109 519 -139
435 -420 812 -811 1091 -41 29 -74 57 -74 61 -1 4 8 27 18 51 79 172 104 278
105 446 1 165 -5 209 -54 407 -15 63 -67 189 -106 262 -159 290 -511 525 -892
596 -141 26 -206 26 -342 1z"/>
<path d="M2134 4655 c-163 -33 -206 -48 -362 -134 -14 -8 -63 -50 -107 -95
-87 -86 -139 -168 -173 -271 -35 -105 -47 -193 -46 -340 0 -92 6 -139 23 -200
61 -217 198 -401 391 -521 242 -150 475 -186 712 -108 181 60 317 190 427 410
89 179 113 264 114 393 2 242 -79 465 -219 607 -130 132 -298 220 -491 259
-120 24 -150 24 -269 0z"/>
</g>
</svg>
