<svg xmlns="http://www.w3.org/2000/svg" fill="none" viewBox="0 0 512 512">
  <path fill="#fff" d="m482.784 297.891.116-1.912-.31.753-.464-2.916c-.407-2.55-.697-5.331-.969-8.035-.832-8.131-1.703-16.532-5.982-21.727l-5.731-6.973.852 8.981c.251 2.646.251 5.717.251 8.691 0 9.174 0 19.565 8.016 22.114l3.524 1.12-5.615 14.022c-4.647 11.588-7.474 23.157-10.203 34.339-2.576 10.507-4.996 20.415-8.752 29.975-24.938 63.29-75.161 105.258-139.713 117.754 80.389-35.305 130.536-97.939 149.2-186.491l-5.266-1.603c-3.64 8.884-6.796 18.367-9.855 27.522-1.51 4.5-3.021 9.019-4.589 13.5 2.459-9.58 3.272-18.792.678-26.788l-2.13-6.586 2.052-.289c2.304-.329 4.105-2.357 5.228-5.833.891-2.82 1.781-8.788-.987-11.781l.639-3.979c.038-.251 2.981-25.146-4.163-30.013l-3.117-2.125-1.085 3.631c-1.665 5.582-2.42 25.031 3.892 30.207l.968.792c-.871-.116-1.781 0-2.711.328l-1.8.676v15.103l-2.091 10.178C420.324 429.86 358.928 480.268 249.342 479.07l-.329 5.505c43.292 4.809 76.865-5.852 103.081-17.035-52.122 36.425-113.885 41.138-168.949 11.859-9.932-5.273-35.102-19.719-54.096-39.651-41.027-42.992-63.273-110.299-56.652-171.445 5.557-51.374 30.746-94.617 70.96-121.772 29.43-19.893 75.936-30.612 124.34-28.68 51.463 2.047 97.098 18.27 125.211 44.479 7.551 7.049 11.772 15.141 16.244 23.716 5.228 10.005 10.61 20.357 21.724 30.554l3.988 3.651.639-5.37c.62-5.098-2.44-10.912-6.138-17.111 8.868 10.39 16.826 22.983 24.086 38.067l8.887 18.444-3.659-20.125c-14.134-77.621-77.04-112.752-130.264-134.673-69.683-28.719-147.283-22.944-207.536 15.451-55.433 35.247-88.754 92.744-91.542 157.811-2.672 62.537 13.805 120.187 46.39 162.349 34.483 44.614 84.939 70.764 145.889 75.612A393.381 393.381 0 0 0 253.214 512c66.372 0 121.823-17.826 161.688-52.262 39.827-34.398 62.945-85.057 66.894-146.512l.968-15.007h.078l-.058-.328Z"/>
  <path fill="#fff" d="M307.562 0c22.692 1.854 42.247 8.788 60.137 23.253 15.063 12.168 22.904 26.576 27.474 44.711 4.743 18.85 5.092 37.024-2.711 54.677-5.305 12.013-10.862 24.47-19.013 34.571-11.714 14.504-27.048 23.659-46.835 26.556-20.001 2.916-37.542-1.603-54.387-10.488-21.375-11.279-37.484-28.101-46.39-50.813-7.048-18-7.319-36.503-3.524-55.507 4.473-22.384 15.489-39.013 35.141-51.586C273.311 5.213 290.292 2.53 307.562 0ZM165.527 169.959c15.567 1.274 28.985 6.026 41.26 15.953 10.339 8.343 15.702 18.232 18.838 30.669 3.253 12.941 3.486 25.398-1.858 37.507-3.64 8.247-7.454 16.784-13.05 23.717-8.035 9.947-18.548 16.224-32.121 18.213-13.727 2.008-25.75-1.101-37.309-7.204-14.676-7.745-25.712-19.275-31.831-34.861-4.84-12.341-5.014-25.05-2.42-38.086 3.079-15.354 10.63-26.769 24.105-35.382 10.881-6.973 22.518-8.807 34.386-10.546"/>
</svg>
